{"glyphs":{"0":{"ha":776,"x_min":46,"x_max":731,"o":"m 731 461 q 706 267 731 354 q 635 118 681 181 q 524 22 589 56 q 381 -12 460 -12 q 233 25 301 -12 q 119 138 164 63 q 62 294 78 208 q 46 467 46 379 q 76 670 46 583 q 156 814 107 757 q 268 899 206 871 q 396 926 331 926 q 519 897 460 926 q 626 810 579 868 q 702 664 674 751 q 731 461 731 576 m 514 465 q 480 744 514 650 q 393 838 446 838 q 297 744 331 838 q 263 468 263 650 q 290 176 263 275 q 382 76 317 76 q 480 174 446 76 q 514 465 514 272 z "},"1":{"ha":776,"x_min":44,"x_max":749,"o":"m 60 0 l 60 38 l 90 38 q 198 45 158 38 q 256 70 238 53 q 280 117 275 88 q 285 189 285 146 l 285 692 q 283 736 285 717 q 269 769 281 756 q 234 790 257 783 q 169 797 211 797 q 128 792 150 797 q 85 783 106 788 l 53 776 l 44 811 l 521 925 l 521 172 q 525 110 521 136 q 547 69 529 85 q 603 45 565 53 q 708 38 640 38 l 749 38 l 749 0 l 60 0 z "},"2":{"ha":776,"x_min":7,"x_max":689,"o":"m 624 -28 q 597 -4 613 -8 q 553 0 581 0 l 7 0 q 185 185 110 94 q 311 358 261 276 q 385 511 361 440 q 410 638 410 582 q 296 814 410 814 q 228 799 260 814 q 174 757 197 785 q 136 688 150 729 q 122 594 122 647 l 107 590 l 61 821 q 203 898 122 869 q 378 926 285 926 q 576 859 504 926 q 647 656 647 792 q 566 442 647 557 q 325 190 485 326 l 529 190 q 620 210 586 190 q 675 269 654 229 l 689 261 l 624 -28 z "},"3":{"ha":776,"x_min":4,"x_max":701,"o":"m 701 333 q 672 204 701 267 q 591 94 643 142 q 466 17 539 46 q 306 -12 393 -12 q 150 5 222 -12 q 4 71 78 22 l 104 300 l 118 296 q 113 271 115 285 q 111 244 111 257 q 158 130 111 175 q 279 85 206 85 q 354 102 319 85 q 415 149 389 119 q 455 217 440 178 q 469 297 469 256 q 417 447 469 390 q 264 503 364 503 q 179 493 222 503 l 429 739 l 239 739 q 161 727 192 739 q 111 671 131 715 l 99 674 l 153 933 q 167 917 161 922 q 203 913 174 913 l 618 913 q 632 861 625 881 q 649 824 639 842 l 468 647 q 560 611 518 638 q 634 544 603 585 q 683 450 665 503 q 701 333 701 397 z "},"4":{"ha":776,"x_min":25,"x_max":740,"o":"m 708 217 q 693 242 700 238 q 668 247 686 247 l 603 247 l 603 111 q 622 58 603 72 q 656 40 640 43 l 674 38 l 674 0 l 308 0 l 308 38 l 339 40 q 375 59 358 43 q 392 111 392 75 l 392 247 l 82 247 q 47 244 57 247 q 25 225 38 240 l 25 244 q 39 319 25 276 q 81 410 53 363 q 135 497 104 449 q 192 597 165 546 q 236 699 218 649 q 254 794 254 750 q 244 820 254 811 q 229 832 233 829 l 419 974 q 421 953 421 965 q 421 925 421 940 q 374 725 421 844 q 228 471 326 606 q 173 389 192 419 q 150 346 154 358 l 392 346 l 392 676 q 485 743 449 711 q 544 810 522 775 q 576 884 565 844 q 590 972 586 924 l 621 969 q 613 924 617 949 q 608 875 610 899 q 604 831 606 851 q 603 796 603 810 l 603 346 l 649 346 q 704 363 689 346 q 729 399 719 379 l 740 394 l 708 217 z "},"5":{"ha":776,"x_min":51,"x_max":718,"o":"m 718 342 q 688 196 718 261 q 604 84 657 131 q 482 12 551 38 q 335 -14 413 -14 q 189 4 260 -14 q 51 57 118 22 l 126 281 l 144 275 q 140 251 142 264 q 139 229 139 239 q 149 177 139 203 q 178 131 158 151 q 226 97 197 110 q 294 83 256 83 q 367 101 332 83 q 427 147 401 118 q 469 215 453 176 q 485 299 485 254 q 471 378 485 343 q 433 436 457 413 q 376 472 408 460 q 308 485 344 485 q 179 454 235 485 q 79 386 124 424 q 139 609 121 504 q 157 789 157 714 q 144 933 157 867 q 159 924 153 928 q 173 918 165 921 q 190 914 181 915 q 217 913 200 913 l 594 913 q 610 916 601 913 q 621 921 618 919 l 569 700 q 554 727 564 715 q 515 739 544 739 l 242 739 q 236 667 240 699 q 225 607 232 635 q 312 637 269 628 q 407 646 354 646 q 528 624 471 646 q 627 563 585 603 q 694 466 669 522 q 718 342 718 410 z "},"6":{"ha":776,"x_min":46,"x_max":736,"o":"m 736 306 q 710 176 736 235 q 639 76 683 118 q 535 10 594 33 q 407 -14 475 -14 q 138 108 231 -14 q 46 474 46 231 q 64 596 46 525 q 115 729 82 667 q 257 876 167 825 q 461 926 347 926 q 583 913 524 926 q 690 876 643 900 l 651 624 l 635 628 q 635 638 635 635 q 636 649 636 642 q 624 725 636 690 q 590 785 611 760 q 540 824 568 810 q 479 838 511 838 q 326 748 388 838 q 260 482 264 658 q 350 573 297 544 q 475 601 403 601 q 575 580 528 601 q 658 519 622 558 q 715 425 694 479 q 736 306 736 371 m 526 296 q 518 374 526 338 q 494 438 510 411 q 457 481 478 465 q 411 496 436 496 q 315 442 349 496 q 281 292 281 389 q 315 131 281 186 q 403 75 350 75 q 492 131 457 75 q 526 296 526 186 z "},"7":{"ha":776,"x_min":93,"x_max":683,"o":"m 683 921 q 667 763 683 836 q 626 622 651 690 q 573 485 601 553 q 519 344 544 418 q 476 185 494 269 q 457 0 458 101 l 193 0 q 231 163 203 88 q 299 306 260 239 q 381 431 338 372 q 466 540 425 489 q 540 637 507 592 q 588 722 572 682 l 243 722 q 185 718 207 722 q 149 704 164 714 q 126 680 135 694 q 108 644 117 665 l 93 647 l 146 939 q 167 916 156 919 q 204 913 178 913 l 618 913 q 642 913 633 913 q 658 917 651 914 q 669 925 664 919 q 682 939 675 931 q 683 933 682 938 q 683 921 683 928 z "},"8":{"ha":776,"x_min":42,"x_max":736,"o":"m 736 265 q 709 147 736 199 q 635 60 682 96 q 526 5 589 24 q 394 -14 464 -14 q 134 60 226 -14 q 42 267 42 135 q 54 344 42 307 q 92 413 67 382 q 157 465 118 443 q 247 494 196 486 q 117 576 158 524 q 75 699 75 629 q 94 781 75 740 q 153 854 114 822 q 253 906 193 886 q 392 925 313 925 q 511 908 456 925 q 608 862 567 892 q 672 790 649 832 q 696 700 696 749 q 528 494 696 560 q 683 412 629 475 q 736 265 736 349 m 485 694 q 456 793 485 754 q 386 832 426 832 q 345 821 364 832 q 313 790 326 810 q 292 746 300 771 q 285 692 285 721 q 313 581 285 617 q 385 544 340 544 q 459 584 433 544 q 485 694 485 624 m 508 272 q 476 399 508 350 q 390 447 443 447 q 298 400 331 447 q 265 274 265 353 q 297 135 265 186 q 390 83 328 83 q 475 132 442 83 q 508 272 508 181 z "},"9":{"ha":776,"x_min":40,"x_max":731,"o":"m 731 443 q 717 330 731 394 q 676 210 703 265 q 535 45 628 103 q 315 -12 442 -12 q 208 -1 268 -12 q 89 38 147 11 l 129 281 l 144 279 l 144 264 q 191 117 144 167 q 300 68 238 68 q 406 103 364 68 q 474 193 449 139 q 509 310 499 247 q 519 426 519 372 q 435 340 483 374 q 307 307 388 307 q 205 328 253 307 q 120 390 157 350 q 62 485 83 429 q 40 610 40 540 q 65 731 40 674 q 133 831 89 788 q 240 901 178 875 q 379 926 303 926 q 636 804 542 926 q 731 443 731 682 m 497 622 q 488 707 497 668 q 462 774 478 746 q 424 818 446 803 q 376 833 401 833 q 283 779 314 833 q 251 621 251 725 q 284 465 251 518 q 379 413 317 413 q 463 463 428 413 q 497 622 497 514 z "},"\r":{"ha":0,"x_min":0,"x_max":0,"o":""}," ":{"ha":389,"x_min":0,"x_max":0,"o":""},"!":{"ha":433,"x_min":78,"x_max":356,"o":"m 356 913 q 320 774 339 858 q 301 557 301 690 q 310 408 301 468 q 322 315 319 349 q 285 329 304 324 q 246 335 265 335 q 172 319 203 335 q 111 283 140 304 q 130 424 125 358 q 135 550 135 490 q 130 667 135 614 q 117 765 125 721 q 98 846 108 810 q 78 913 88 882 l 356 913 m 335 117 q 303 22 335 58 q 219 -14 271 -14 q 138 22 169 -14 q 106 117 106 58 q 138 208 106 174 q 219 242 171 242 q 301 208 268 242 q 335 117 335 174 z "},"\"":{"ha":547,"x_min":64,"x_max":483,"o":"m 483 843 q 481 809 483 824 q 475 782 478 794 l 421 546 l 381 546 l 326 782 q 320 814 322 800 q 318 843 318 828 q 346 906 318 885 q 401 926 374 926 q 456 905 429 926 q 483 843 483 883 m 229 843 q 226 809 229 824 q 221 782 224 794 l 167 546 l 126 546 l 72 782 q 66 814 68 800 q 64 843 64 828 q 92 906 64 885 q 147 926 119 926 q 202 905 175 926 q 229 843 229 883 z "},"#":{"ha":776,"x_min":28,"x_max":749,"o":"m 726 588 l 596 588 l 550 360 l 681 360 l 658 250 l 529 250 l 479 0 l 364 0 l 413 250 l 272 250 l 222 0 l 107 0 l 157 250 l 28 250 l 50 360 l 178 360 l 224 588 l 96 588 l 118 697 l 246 697 l 289 914 l 404 914 l 361 697 l 503 697 l 546 914 l 661 914 l 618 697 l 749 697 l 726 588 m 339 588 l 293 360 l 436 360 l 481 588 l 339 588 z "},"$":{"ha":776,"x_min":65,"x_max":711,"o":"m 711 342 q 692 233 711 285 q 635 142 672 182 q 546 74 599 101 q 426 38 493 47 l 426 -50 q 436 -90 426 -83 q 465 -100 446 -97 l 465 -125 l 254 -125 l 254 -100 q 297 -50 297 -96 l 297 38 q 215 58 244 47 q 179 68 186 68 q 148 61 157 68 q 119 38 139 54 l 65 358 l 81 361 q 114 282 93 319 q 162 214 135 244 q 223 162 189 183 q 297 132 257 140 l 297 419 q 134 506 188 457 q 81 642 81 554 q 135 786 81 722 q 297 874 189 850 l 297 972 q 292 1001 297 992 q 265 1018 288 1011 l 265 1039 l 457 1039 l 457 1018 q 433 1003 440 1011 q 426 972 426 994 l 426 876 q 501 865 469 874 q 557 857 533 857 q 580 865 568 857 q 601 883 592 872 l 622 624 l 607 621 q 515 758 576 714 q 379 803 454 803 q 288 777 321 803 q 256 715 256 751 q 280 667 256 685 q 350 633 304 650 q 461 592 396 615 q 608 525 526 568 q 648 494 629 514 q 681 449 667 474 q 703 396 694 424 q 711 342 711 368 m 533 254 q 426 374 533 338 l 426 132 q 470 144 450 133 q 504 172 490 156 q 526 210 518 189 q 533 254 533 232 z "},"%":{"ha":1160,"x_min":38,"x_max":1124,"o":"m 1124 278 q 1108 163 1124 215 q 1063 72 1092 110 q 994 13 1035 35 q 904 -8 954 -8 q 822 10 860 -8 q 756 63 783 28 q 712 153 728 99 q 696 281 696 207 q 711 390 696 340 q 755 477 726 440 q 824 535 783 514 q 914 556 864 556 q 992 538 954 556 q 1058 486 1029 521 q 1106 399 1088 451 q 1124 278 1124 347 m 819 892 q 783 865 793 881 q 761 817 772 850 l 518 99 q 509 71 514 86 q 504 54 504 56 q 510 34 504 40 q 532 24 515 28 l 532 0 l 340 0 l 340 24 q 379 50 369 35 q 400 99 389 65 l 654 825 q 660 843 657 832 q 664 865 664 854 q 657 879 664 869 q 635 892 650 889 l 635 913 l 819 913 l 819 892 m 465 643 q 449 527 465 579 q 405 438 433 475 q 336 379 376 400 q 246 358 296 358 q 163 376 201 358 q 97 428 125 393 q 53 517 69 464 q 38 644 38 571 q 53 755 38 704 q 97 842 68 806 q 165 899 125 878 q 256 919 206 919 q 333 902 294 919 q 400 851 371 885 q 447 765 429 817 q 465 643 465 713 m 985 279 q 965 443 985 388 q 913 499 944 499 q 853 442 874 499 q 833 281 833 386 q 849 109 833 168 q 904 50 864 50 q 964 108 943 50 q 985 279 985 167 m 326 644 q 306 808 326 753 q 254 863 286 863 q 195 806 215 863 q 175 646 175 750 q 191 474 175 533 q 247 415 207 415 q 306 474 286 415 q 326 644 326 532 z "},"&":{"ha":1026,"x_min":44,"x_max":1006,"o":"m 1006 663 q 989 583 1006 621 q 947 519 972 546 q 888 476 921 492 q 825 460 856 460 q 773 469 792 460 q 735 494 754 479 q 738 465 738 482 q 739 432 739 449 q 735 369 739 400 q 725 310 732 338 q 783 231 757 269 q 829 153 810 192 q 858 92 847 115 q 879 58 869 69 q 899 42 889 46 q 924 36 908 38 l 924 0 l 639 0 l 639 18 q 629 75 639 51 q 606 118 619 99 q 476 19 544 51 q 335 -14 407 -14 q 222 5 275 -14 q 130 58 169 24 q 67 144 90 93 q 44 260 44 194 q 90 422 44 356 q 214 543 135 489 q 160 616 181 579 q 140 710 140 653 q 159 794 140 754 q 211 863 178 833 q 291 909 244 892 q 392 926 338 926 q 556 873 497 926 q 615 740 615 819 q 612 705 615 719 q 606 679 608 690 q 642 647 622 660 q 683 625 663 633 q 723 613 704 617 q 754 608 742 608 q 828 632 797 608 q 860 692 860 656 q 847 724 860 710 q 814 739 833 739 q 793 735 803 739 q 776 726 783 731 l 768 736 q 822 786 792 768 q 889 804 851 804 q 926 797 906 804 q 964 772 946 789 q 994 728 982 756 q 1006 663 1006 701 m 494 740 q 465 822 494 793 q 404 851 436 851 q 347 829 368 851 q 326 769 326 807 q 354 690 326 732 q 426 615 382 649 q 476 663 458 638 q 494 740 494 689 m 657 489 q 641 581 657 536 q 597 668 625 626 q 481 575 556 593 q 538 522 497 561 q 650 404 579 483 q 656 455 656 435 q 657 489 657 475 m 567 178 q 406 369 483 288 q 275 494 328 450 q 253 438 263 468 q 243 358 243 407 q 262 251 243 296 q 310 178 281 207 q 376 137 340 150 q 444 124 411 124 q 513 138 485 124 q 567 178 540 151 z "},"'":{"ha":293,"x_min":64,"x_max":229,"o":"m 229 843 q 226 809 229 824 q 221 782 224 794 l 167 546 l 126 546 l 72 782 q 66 814 68 800 q 64 843 64 828 q 92 906 64 885 q 147 926 119 926 q 202 905 175 926 q 229 843 229 883 z "},"(":{"ha":433,"x_min":82,"x_max":386,"o":"m 304 -239 q 209 -117 250 -181 q 140 20 168 -53 q 97 176 111 93 q 82 356 82 258 q 140 692 82 549 q 304 953 197 836 l 386 863 q 378 863 383 863 q 368 864 372 864 q 330 824 353 864 q 286 716 307 785 q 250 553 265 647 q 235 350 235 458 q 260 103 235 219 q 329 -108 285 -14 q 351 -143 342 -135 q 371 -151 360 -151 q 386 -149 375 -151 l 304 -239 z "},")":{"ha":433,"x_min":46,"x_max":350,"o":"m 350 356 q 294 20 350 163 q 131 -239 238 -122 l 46 -149 q 52 -150 47 -149 q 64 -151 57 -151 q 102 -112 79 -151 q 146 -3 125 -72 q 182 160 167 67 q 197 364 197 254 q 173 612 197 496 q 104 822 149 728 q 82 856 92 849 q 61 864 72 864 q 46 863 51 864 l 131 953 q 294 692 238 836 q 350 356 350 549 z "},"*":{"ha":694,"x_min":131,"x_max":564,"o":"m 310 676 q 288 647 299 664 q 264 613 278 629 q 233 585 250 597 q 193 574 215 574 q 151 592 172 574 q 131 640 131 610 q 147 683 131 669 q 185 702 163 697 q 235 709 208 707 q 286 718 263 711 l 286 733 q 242 739 268 738 q 190 747 215 740 q 148 769 165 754 q 131 813 131 783 q 153 861 131 844 q 192 878 175 878 q 230 867 214 878 q 259 840 246 856 q 283 807 272 825 q 310 775 294 789 l 324 781 q 299 834 314 807 q 283 894 283 861 q 299 942 283 922 q 347 963 315 963 q 397 940 383 963 q 411 894 411 917 q 406 867 411 881 q 394 838 401 853 q 381 809 388 824 q 371 781 375 794 l 385 775 q 406 805 394 788 q 431 838 417 822 q 461 866 444 854 q 501 878 478 878 q 543 860 522 878 q 564 811 564 842 q 548 768 564 782 q 509 749 532 754 q 458 742 486 744 q 408 733 431 740 l 408 718 q 453 713 426 714 q 504 704 479 711 q 547 683 529 697 q 564 639 564 668 q 542 590 564 607 q 503 574 519 574 q 464 585 479 574 q 435 611 449 596 q 410 644 422 626 q 385 676 399 663 l 371 668 q 395 615 379 644 q 411 553 411 585 q 396 507 411 529 q 346 485 381 485 q 298 506 314 485 q 282 543 282 526 q 287 572 282 557 q 299 603 292 588 q 313 636 306 619 q 324 668 319 653 l 310 676 z "},"+":{"ha":776,"x_min":60,"x_max":715,"o":"m 444 190 q 450 163 444 171 q 463 149 456 156 l 463 129 l 307 129 l 307 149 q 327 169 324 158 q 331 190 331 179 l 331 401 l 119 401 q 93 395 101 401 q 78 378 85 389 l 60 378 l 60 533 l 78 533 q 90 522 81 528 q 121 515 100 515 l 331 515 l 331 726 q 324 753 331 746 q 307 768 318 761 l 307 788 l 463 788 l 463 768 q 451 756 457 765 q 444 726 444 746 l 444 515 l 654 515 q 683 521 674 515 q 697 533 692 526 l 715 533 l 715 378 l 697 378 q 676 397 686 393 q 654 401 665 401 l 444 401 l 444 190 z "},",":{"ha":411,"x_min":21,"x_max":328,"o":"m 199 -157 l 21 -157 q 44 -141 31 -153 q 69 -96 58 -129 l 132 88 q 142 131 142 114 q 138 147 142 140 q 132 156 135 153 l 328 156 l 199 -157 z "},"-":{"ha":472,"x_min":40,"x_max":424,"o":"m 325 228 q 296 258 317 251 q 251 265 275 265 l 160 265 q 106 258 132 265 q 61 228 79 251 l 40 239 l 139 469 q 160 444 146 450 q 222 439 174 439 l 308 439 q 373 447 353 439 q 403 469 393 454 l 424 460 l 325 228 z "},".":{"ha":411,"x_min":90,"x_max":321,"o":"m 321 117 q 288 22 321 58 q 206 -14 256 -14 q 123 22 156 -14 q 90 117 90 58 q 123 208 90 174 q 204 242 156 242 q 287 208 253 242 q 321 117 321 174 z "},"/":{"ha":565,"x_min":4,"x_max":492,"o":"m 492 931 l 492 911 q 459 888 468 904 q 443 846 450 872 l 179 -107 q 174 -126 176 -117 q 171 -144 171 -136 q 180 -165 171 -158 q 200 -172 189 -171 l 200 -192 l 4 -192 l 4 -172 q 36 -149 28 -165 q 51 -107 44 -133 l 317 846 q 322 866 319 853 q 325 883 325 879 q 294 911 325 907 l 294 931 l 492 931 z "},":":{"ha":424,"x_min":97,"x_max":326,"o":"m 326 513 q 294 418 326 454 q 211 382 263 382 q 129 418 161 382 q 97 513 97 454 q 130 604 97 569 q 211 639 163 639 q 293 604 260 639 q 326 513 326 569 m 326 117 q 294 22 326 58 q 211 -14 263 -14 q 129 22 161 -14 q 97 117 97 58 q 130 208 97 174 q 211 242 163 242 q 293 208 260 242 q 326 117 326 174 z "},";":{"ha":424,"x_min":-1,"x_max":326,"o":"m 326 506 q 294 411 326 447 q 211 375 263 375 q 129 411 161 375 q 97 506 97 447 q 130 597 97 563 q 211 632 163 632 q 293 597 260 632 q 326 506 326 563 m 176 -157 l -1 -157 q 22 -141 8 -153 q 47 -96 36 -129 l 110 90 q 116 108 113 97 q 119 131 119 118 q 116 147 119 140 q 110 156 113 153 l 306 156 l 176 -157 z "},"<":{"ha":776,"x_min":50,"x_max":725,"o":"m 50 574 l 68 574 q 94 550 68 550 q 106 552 99 550 q 120 557 113 554 q 135 562 128 560 q 144 565 142 564 l 586 760 q 648 790 625 776 q 683 814 671 803 q 700 834 696 825 q 707 854 704 843 l 725 854 l 725 650 l 707 650 q 681 671 707 671 q 669 669 676 671 q 655 664 663 667 q 640 659 647 661 q 631 656 633 657 l 181 458 l 181 453 l 631 256 q 655 247 636 253 q 681 240 674 240 q 707 261 707 240 l 725 261 l 725 57 l 707 57 q 701 75 706 65 q 683 97 696 85 q 647 122 669 108 q 586 151 624 135 l 144 346 q 119 354 138 347 q 94 361 101 361 q 68 338 68 361 l 50 338 l 50 574 z "},"=":{"ha":776,"x_min":60,"x_max":717,"o":"m 60 650 l 78 650 q 91 633 82 640 q 121 626 100 626 l 656 626 q 683 633 675 626 q 699 650 692 639 l 717 650 l 717 489 l 699 489 q 677 508 688 504 q 656 513 667 513 l 119 513 q 93 506 101 513 q 78 489 85 500 l 60 489 l 60 650 m 60 428 l 78 428 q 91 411 82 418 q 121 404 100 404 l 656 404 q 683 410 675 404 q 699 428 692 417 l 717 428 l 717 267 l 699 267 q 677 286 688 282 q 656 290 667 290 l 119 290 q 93 284 101 290 q 78 267 85 278 l 60 267 l 60 428 z "},">":{"ha":776,"x_min":51,"x_max":726,"o":"m 726 338 l 708 338 q 682 361 708 361 q 671 359 678 361 q 656 354 664 357 q 642 349 649 351 q 632 346 635 347 l 190 151 q 128 122 151 135 q 93 97 106 108 q 76 76 81 86 q 69 57 71 67 l 51 57 l 51 261 l 69 261 q 96 240 69 240 q 107 242 100 240 q 122 247 114 244 q 136 252 129 250 q 146 256 143 254 l 596 453 l 596 458 l 146 656 q 121 664 139 657 q 96 671 103 671 q 69 650 69 671 l 51 650 l 51 854 l 69 854 q 76 836 71 846 q 94 815 81 826 q 130 790 107 803 q 190 760 153 776 l 632 565 q 656 556 638 563 q 682 550 675 550 q 708 574 708 550 l 726 574 l 726 338 z "},"?":{"ha":638,"x_min":24,"x_max":617,"o":"m 617 696 q 603 622 617 654 q 566 563 589 589 q 513 516 543 538 q 449 474 482 494 q 383 431 408 449 q 342 400 357 414 q 320 374 326 386 q 314 346 314 361 q 317 326 314 336 q 321 313 319 317 q 301 318 314 315 q 272 321 288 321 q 213 310 240 321 q 163 281 186 299 q 156 299 160 288 q 153 321 153 310 q 169 397 153 363 q 229 472 186 431 q 293 538 267 508 q 337 592 319 567 q 362 642 354 618 q 369 690 369 665 q 341 786 369 751 q 254 821 313 821 q 172 793 214 821 q 106 714 129 765 q 89 659 92 683 q 86 613 86 635 q 87 588 86 601 q 89 568 88 575 l 72 564 l 24 844 q 35 838 28 842 q 54 833 43 833 q 88 848 64 833 q 149 880 111 863 q 238 912 186 897 q 356 926 289 926 q 547 865 478 926 q 617 696 617 804 m 392 117 q 360 22 392 58 q 276 -14 328 -14 q 194 22 226 -14 q 163 117 163 58 q 195 208 163 174 q 276 242 228 242 q 358 208 325 242 q 392 117 392 174 z "},"@":{"ha":1033,"x_min":39,"x_max":994,"o":"m 607 650 q 597 653 600 653 q 588 653 593 653 q 551 643 576 653 q 499 606 525 633 q 469 562 482 588 q 445 508 456 536 q 429 451 435 479 q 424 399 424 422 q 434 333 424 349 q 468 318 444 318 q 524 344 496 318 q 564 424 553 371 l 607 650 m 674 -6 q 588 -24 636 -19 q 485 -28 539 -28 q 428 -24 468 -28 q 340 -6 389 -21 q 237 38 290 8 q 140 117 183 67 q 67 242 96 167 q 39 426 39 318 q 85 648 39 550 q 205 814 131 746 q 372 918 279 882 q 561 954 465 954 q 713 932 636 954 q 853 862 790 910 q 955 739 915 814 q 994 557 994 664 q 974 427 994 488 q 910 321 953 367 q 804 248 868 275 q 653 221 740 221 q 586 248 611 221 q 560 328 561 275 q 471 243 514 265 q 382 221 428 221 q 268 389 268 221 q 291 509 268 450 q 353 614 314 568 q 447 688 393 660 q 560 717 500 717 q 592 715 572 717 q 631 707 613 713 q 660 700 640 704 q 699 696 679 696 q 741 701 722 696 q 769 711 760 707 l 715 422 q 709 386 711 400 q 706 364 707 372 q 704 350 704 356 q 704 339 704 344 q 717 310 704 321 q 744 299 729 299 q 792 318 769 299 q 833 372 815 338 q 862 451 851 406 q 872 550 872 497 q 844 706 872 643 q 773 808 817 769 q 675 863 729 846 q 568 879 621 879 q 401 839 476 879 q 273 734 326 799 q 190 590 219 669 q 161 432 161 511 q 244 145 161 244 q 511 46 328 46 q 547 47 522 46 q 602 51 572 47 q 662 65 632 56 q 713 90 692 74 q 769 144 753 122 q 801 188 786 165 l 815 185 l 746 -7 q 735 1 742 -3 q 721 6 729 6 q 699 2 714 6 q 674 -6 685 -1 z "},"A":{"ha":889,"x_min":17,"x_max":872,"o":"m 511 0 l 511 38 l 529 40 q 549 57 542 43 q 556 110 556 71 q 531 215 556 167 q 465 297 506 263 q 376 350 425 331 q 279 369 326 369 l 219 149 q 214 119 217 136 q 211 89 211 101 q 224 51 211 61 q 254 39 238 42 l 267 38 l 267 0 l 17 0 l 17 38 l 28 40 q 76 79 61 49 q 103 149 92 110 l 300 818 q 304 835 303 826 q 306 853 306 844 q 286 875 306 871 l 279 876 l 279 913 l 647 913 l 647 876 l 639 875 q 618 851 618 871 q 619 835 618 844 q 624 818 621 826 l 804 117 q 822 66 813 85 q 860 40 832 47 l 872 38 l 872 0 l 511 0 m 390 792 l 300 450 q 349 444 321 450 q 403 430 376 439 q 456 407 431 421 q 496 376 481 393 l 390 792 z "},"B":{"ha":824,"x_min":24,"x_max":804,"o":"m 804 250 q 775 131 804 186 q 694 44 746 76 q 590 8 649 17 q 461 0 532 0 l 24 0 l 24 38 l 36 40 q 89 111 89 53 l 89 800 q 75 851 89 831 q 36 874 61 871 l 24 875 l 24 913 l 572 913 q 694 884 653 913 q 736 790 736 856 q 561 579 736 692 q 744 433 685 518 q 804 250 804 347 m 515 753 q 411 832 515 832 q 342 813 358 832 q 325 739 325 794 l 325 554 q 401 593 367 569 q 462 643 436 617 q 501 698 488 669 q 515 753 515 726 m 554 314 q 464 529 554 442 q 385 490 421 506 q 325 468 349 475 l 325 189 q 326 143 325 161 q 335 114 328 125 q 359 98 343 103 q 404 93 375 93 q 463 108 435 93 q 510 152 490 124 q 542 222 531 181 q 554 314 554 263 z "},"C":{"ha":776,"x_min":36,"x_max":765,"o":"m 696 -21 q 656 -4 681 -4 q 601 -9 635 -4 q 508 -14 567 -14 q 352 3 421 -14 q 219 67 283 19 q 83 240 129 132 q 36 479 36 349 q 65 665 36 582 q 147 806 94 747 q 272 895 199 864 q 435 926 346 926 q 499 921 472 926 q 547 909 526 915 q 584 898 568 903 q 615 893 600 893 q 643 899 629 893 q 675 921 657 906 l 718 581 l 701 576 q 608 765 664 701 q 483 829 553 829 q 398 806 435 829 q 336 741 361 782 q 299 644 311 700 q 286 525 286 589 q 309 335 286 417 q 369 197 332 253 q 457 112 407 140 q 561 83 507 83 q 672 131 625 83 q 746 265 718 178 l 765 258 l 696 -21 z "},"D":{"ha":889,"x_min":24,"x_max":847,"o":"m 847 436 q 731 108 847 215 q 390 0 614 0 l 24 0 l 24 38 l 36 40 q 89 111 89 53 l 89 800 q 75 851 89 831 q 36 874 61 871 l 24 875 l 24 913 l 411 913 q 598 878 517 913 q 735 781 679 843 q 819 631 790 718 q 847 436 847 543 m 596 403 q 580 569 596 493 q 537 702 564 646 q 474 790 510 758 q 397 822 438 822 q 338 806 350 822 q 325 756 325 789 l 325 165 q 327 137 325 150 q 338 113 329 124 q 363 97 346 103 q 410 90 379 90 q 480 108 446 90 q 540 164 514 126 q 581 260 565 201 q 596 403 596 319 z "},"E":{"ha":742,"x_min":24,"x_max":732,"o":"m 642 -25 q 613 -3 631 -7 q 574 0 596 0 l 24 0 l 24 38 l 36 40 q 89 111 89 53 l 89 800 q 75 851 89 831 q 36 874 61 871 l 24 875 l 24 913 l 556 913 q 597 916 583 913 q 624 939 611 919 l 671 633 l 654 631 q 616 721 642 682 q 558 785 590 760 q 488 824 525 811 q 414 836 451 836 q 340 815 356 836 q 325 758 325 794 l 325 657 l 385 657 q 436 664 417 657 q 467 684 456 671 q 483 716 478 697 q 493 757 489 735 l 510 758 l 546 439 l 528 435 q 472 542 511 507 q 382 576 433 576 l 325 576 l 325 175 q 332 123 325 142 q 352 94 339 104 q 385 83 365 85 q 433 81 406 81 q 510 96 471 81 q 588 142 550 111 q 658 219 625 172 q 717 326 692 265 l 732 322 l 642 -25 z "},"F":{"ha":638,"x_min":24,"x_max":664,"o":"m 646 632 q 555 781 618 726 q 410 836 492 836 q 363 831 379 836 q 338 815 346 825 q 327 791 329 804 q 325 763 325 778 l 325 657 l 376 657 q 451 683 431 657 q 472 760 471 708 l 492 763 l 529 435 l 510 432 q 379 576 476 576 l 325 576 l 325 111 q 338 64 325 81 q 375 40 351 47 l 386 38 l 386 0 l 24 0 l 24 38 l 38 40 q 89 111 89 50 l 89 800 q 76 851 89 831 q 38 874 63 871 l 24 875 l 24 913 l 544 913 q 587 919 574 913 q 611 938 600 926 l 664 638 l 646 632 z "},"G":{"ha":914,"x_min":31,"x_max":893,"o":"m 549 0 q 447 3 493 0 q 357 17 400 6 q 274 48 314 28 q 193 104 235 68 q 72 272 114 174 q 31 496 31 369 q 64 665 31 586 q 156 801 97 743 q 297 893 215 860 q 472 926 378 926 q 546 920 514 926 q 604 907 578 914 q 651 894 631 900 q 689 888 672 888 q 719 897 708 888 q 739 918 729 907 l 767 608 l 751 606 q 655 767 721 714 q 504 821 589 821 q 344 743 407 821 q 282 507 282 665 q 301 335 282 411 q 351 205 319 258 q 424 122 383 151 q 510 93 465 93 q 557 102 540 93 q 581 126 574 111 q 590 157 589 140 q 592 190 592 174 l 592 433 q 576 483 592 464 q 538 507 560 503 l 524 510 l 524 547 l 889 547 l 889 511 l 879 510 q 840 486 851 506 q 829 438 829 467 l 829 111 q 845 62 829 79 q 881 40 861 44 l 893 38 l 893 0 l 549 0 z "},"H":{"ha":869,"x_min":24,"x_max":846,"o":"m 479 0 l 479 38 l 490 40 q 529 64 514 47 q 544 111 544 81 l 544 588 l 325 588 l 325 111 q 378 40 325 53 l 390 38 l 390 0 l 24 0 l 24 38 l 36 40 q 89 111 89 53 l 89 800 q 76 848 89 829 q 38 872 64 867 l 24 875 l 24 913 l 390 913 l 390 875 l 376 872 q 325 800 325 863 l 325 668 l 544 668 l 544 800 q 492 872 544 861 l 479 875 l 479 913 l 846 913 l 846 875 l 832 872 q 781 800 781 863 l 781 111 q 832 40 781 51 l 846 38 l 846 0 l 479 0 z "},"I":{"ha":414,"x_min":24,"x_max":390,"o":"m 24 0 l 24 38 l 38 40 q 89 111 89 51 l 89 800 q 76 851 89 831 q 38 874 63 871 l 24 875 l 24 913 l 390 913 l 390 875 l 378 874 q 339 851 353 871 q 325 800 325 831 l 325 111 q 340 63 325 81 q 378 40 354 46 l 390 38 l 390 0 l 24 0 z "},"J":{"ha":629,"x_min":-32,"x_max":608,"o":"m 597 874 q 556 851 569 871 q 543 800 543 832 l 543 304 q 542 231 543 264 q 533 168 540 197 q 512 113 526 139 q 471 63 497 86 q 370 8 435 29 q 226 -12 306 -12 q 84 5 146 -12 q -32 50 22 22 l 36 318 l 51 313 q 49 290 49 301 q 49 264 49 279 q 59 193 49 226 q 89 135 69 160 q 134 95 108 110 q 192 81 160 81 q 251 94 229 81 q 286 131 274 107 q 303 186 299 154 q 307 256 307 218 l 307 800 q 294 851 307 831 q 254 874 282 871 l 242 875 l 242 913 l 608 913 l 608 875 l 597 874 z "},"K":{"ha":818,"x_min":24,"x_max":842,"o":"m 474 0 l 474 38 q 510 47 497 40 q 522 75 522 54 q 510 165 522 108 q 477 284 497 222 q 431 405 457 346 q 376 504 404 464 l 325 446 l 325 111 q 378 40 325 53 l 390 38 l 390 0 l 24 0 l 24 38 l 36 40 q 89 111 89 53 l 89 800 q 75 851 89 831 q 36 874 61 871 l 24 875 l 24 913 l 390 913 l 390 875 l 378 874 q 339 851 353 871 q 325 800 325 832 l 325 565 l 508 796 q 524 819 515 806 q 532 847 532 832 q 526 863 532 856 q 506 874 519 871 l 497 875 l 497 913 l 788 913 l 788 875 l 764 871 q 663 816 728 864 q 524 671 599 768 q 592 562 563 614 q 646 456 622 510 q 690 346 669 403 q 732 224 711 289 q 750 157 743 188 q 765 102 757 126 q 788 62 774 78 q 828 40 801 46 l 842 38 l 842 0 l 474 0 z "},"L":{"ha":671,"x_min":24,"x_max":671,"o":"m 582 -22 q 518 0 561 0 l 24 0 l 24 38 l 36 39 q 76 62 64 42 q 89 111 89 82 l 89 800 q 35 874 89 867 l 24 875 l 24 913 l 390 913 l 390 875 l 376 872 q 338 848 350 867 q 325 800 325 829 l 325 165 q 344 99 325 117 q 401 81 363 81 q 466 99 431 81 q 536 154 501 118 q 602 244 571 190 q 654 367 633 297 l 671 363 l 582 -22 z "},"M":{"ha":982,"x_min":24,"x_max":960,"o":"m 592 0 l 592 38 l 604 40 q 642 62 628 46 q 657 110 657 78 l 657 814 l 432 225 l 201 800 l 201 111 q 220 58 201 72 q 254 40 239 43 l 271 38 l 271 0 l 24 0 l 24 38 l 36 40 q 74 63 60 46 q 89 111 89 79 l 89 800 q 74 851 89 835 q 36 872 58 867 l 24 875 l 24 913 l 458 913 l 458 875 l 453 874 q 436 865 444 871 q 428 850 428 860 q 431 831 428 842 q 436 814 433 821 l 507 650 l 571 825 q 575 836 572 828 q 578 853 578 844 q 570 866 578 860 q 554 874 563 872 l 544 875 l 544 913 l 960 913 l 960 875 l 946 874 q 908 851 922 871 q 893 800 893 832 l 893 111 q 908 60 893 79 q 947 39 924 42 l 960 38 l 960 0 l 592 0 z "},"N":{"ha":838,"x_min":24,"x_max":814,"o":"m 571 0 l 571 38 l 585 40 q 636 111 636 51 l 636 139 q 635 176 636 160 q 628 208 633 192 q 613 243 624 225 q 585 285 603 261 l 203 782 l 203 111 q 254 40 203 53 l 267 38 l 267 0 l 24 0 l 24 38 l 36 40 q 89 111 89 53 l 89 800 q 75 851 89 831 q 36 874 61 871 l 24 875 l 24 913 l 461 913 l 461 875 l 446 874 q 429 856 429 871 q 434 841 429 849 q 443 829 439 833 l 636 596 l 636 800 q 622 851 636 832 q 583 874 608 871 l 571 875 l 571 913 l 814 913 l 814 875 l 801 874 q 763 851 776 871 q 749 800 749 831 l 749 111 q 763 63 749 81 q 801 40 778 46 l 814 38 l 814 0 l 571 0 z "},"O":{"ha":914,"x_min":31,"x_max":883,"o":"m 883 454 q 851 260 883 347 q 762 113 819 174 q 624 19 704 51 q 449 -14 544 -14 q 278 19 354 -14 q 146 112 201 51 q 60 260 90 172 q 31 456 31 347 q 64 649 31 563 q 156 798 97 736 q 295 893 215 860 q 467 926 375 926 q 633 892 557 926 q 765 797 710 858 q 852 647 821 735 q 883 454 883 560 m 632 417 q 583 725 632 617 q 444 833 533 833 q 319 755 357 833 q 282 526 282 676 q 333 196 282 313 q 483 79 385 79 q 599 165 567 79 q 632 417 632 250 z "},"P":{"ha":756,"x_min":24,"x_max":742,"o":"m 742 757 q 638 565 742 640 q 325 442 535 490 l 325 111 q 378 40 325 53 l 390 38 l 390 0 l 24 0 l 24 38 l 36 40 q 89 111 89 53 l 89 800 q 74 849 89 831 q 36 874 60 867 l 24 875 l 24 913 l 424 913 q 558 909 499 913 q 658 891 617 906 q 720 844 699 876 q 742 757 742 813 m 514 726 q 484 806 514 779 q 404 832 454 832 q 359 825 375 832 q 335 806 343 818 q 326 778 328 794 q 325 742 325 761 l 325 522 q 409 558 374 535 q 468 610 444 582 q 503 669 492 639 q 514 726 514 700 z "},"Q":{"ha":914,"x_min":31,"x_max":883,"o":"m 883 454 q 831 213 883 315 q 686 51 778 110 q 708 -7 699 15 q 728 -42 718 -29 q 752 -60 739 -56 q 782 -65 765 -65 q 865 -4 838 -65 l 879 -4 q 853 -92 872 -54 q 808 -154 835 -129 q 750 -192 782 -179 q 686 -206 718 -206 q 617 -188 646 -206 q 569 -142 589 -171 q 538 -79 550 -114 q 519 -8 526 -44 q 485 -12 503 -11 q 449 -14 467 -14 q 278 19 354 -14 q 146 112 201 51 q 60 260 90 172 q 31 456 31 347 q 64 649 31 563 q 156 798 97 736 q 295 893 215 860 q 467 926 375 926 q 633 892 557 926 q 765 797 710 858 q 852 647 821 735 q 883 454 883 560 m 632 417 q 583 725 632 617 q 444 833 533 833 q 319 755 357 833 q 282 526 282 676 q 289 388 282 451 q 308 272 296 324 q 372 297 340 288 q 447 306 403 306 q 487 301 465 306 q 531 284 508 296 q 574 253 553 272 q 613 207 596 235 q 628 299 624 247 q 632 417 632 351 m 497 81 q 469 169 489 135 q 424 222 450 203 q 369 250 399 242 q 311 263 340 258 q 378 126 335 174 q 483 79 421 79 q 490 80 486 79 q 497 81 494 81 z "},"R":{"ha":849,"x_min":24,"x_max":876,"o":"m 518 0 l 518 38 l 531 40 q 549 53 542 43 q 556 76 556 63 q 549 126 556 92 q 524 213 542 161 q 476 330 507 264 q 396 475 444 396 l 325 450 l 325 111 q 333 69 325 90 q 376 40 342 49 l 388 38 l 388 0 l 24 0 l 24 38 l 36 40 q 89 111 89 53 l 89 800 q 75 851 89 831 q 36 874 61 871 l 24 875 l 24 913 l 565 913 q 608 911 585 913 q 650 907 631 910 q 731 865 697 901 q 764 775 764 828 q 722 666 764 721 q 597 563 679 611 q 654 480 625 526 q 710 381 683 433 q 758 272 736 328 q 793 161 781 215 q 818 82 804 117 q 864 40 832 47 l 876 38 l 876 0 l 518 0 m 518 740 q 492 806 518 779 q 413 832 467 832 q 365 825 382 832 q 338 808 347 818 q 327 783 329 797 q 325 754 325 768 l 325 542 q 411 579 375 556 q 471 631 447 603 q 506 687 494 658 q 518 740 518 715 z "},"S":{"ha":776,"x_min":42,"x_max":750,"o":"m 750 304 q 722 184 750 242 q 644 83 694 126 q 522 13 593 39 q 363 -14 450 -14 q 282 -8 319 -14 q 214 4 244 -3 q 161 17 183 11 q 125 22 139 22 q 92 13 104 22 q 69 -6 79 4 l 42 365 l 60 368 q 108 237 78 292 q 176 146 139 182 q 258 92 214 110 q 349 75 303 75 q 480 117 431 75 q 529 224 529 160 q 518 278 529 256 q 487 317 507 300 q 438 346 467 333 q 375 372 410 358 l 239 425 q 114 507 163 454 q 65 654 65 560 q 90 762 65 713 q 158 848 114 811 q 264 906 201 885 q 401 926 326 926 q 515 913 464 926 q 603 900 567 900 q 636 908 625 900 q 656 924 647 915 l 667 608 l 649 607 q 613 707 636 664 q 558 779 589 750 q 490 823 526 808 q 419 838 454 838 q 319 807 353 838 q 285 735 285 776 q 294 698 285 714 q 319 670 304 682 q 353 650 335 658 q 392 633 372 642 l 533 578 q 616 539 576 561 q 685 485 656 517 q 733 410 715 454 q 750 304 750 367 z "},"T":{"ha":685,"x_min":-14,"x_max":699,"o":"m 679 633 q 605 770 660 717 q 463 826 550 824 l 463 111 q 517 40 463 53 l 529 38 l 529 0 l 161 0 l 161 38 l 172 40 q 212 64 197 47 q 226 111 226 81 l 226 826 q 160 816 192 826 q 97 782 129 806 q 33 706 53 749 q 3 631 13 663 l -14 633 l 36 935 q 57 916 49 919 q 93 913 65 913 l 593 913 q 626 917 617 913 q 646 935 635 922 l 699 639 l 679 633 z "},"U":{"ha":821,"x_min":36,"x_max":806,"o":"m 793 874 q 760 866 774 871 q 740 850 747 861 q 729 821 732 839 q 726 775 726 803 q 727 749 726 768 q 728 722 728 729 l 740 367 q 740 355 740 364 q 741 335 740 346 q 742 315 742 324 q 742 303 742 306 q 661 66 742 144 q 401 -12 581 -12 q 253 7 318 -12 q 150 63 189 26 q 108 114 122 88 q 86 167 93 140 q 78 220 79 193 q 76 274 76 247 q 76 303 76 289 q 78 332 76 317 l 92 724 q 94 763 93 743 q 94 796 94 783 q 81 851 94 832 q 44 874 67 871 l 36 875 l 36 913 l 407 913 l 407 875 l 396 874 q 366 864 378 871 q 347 840 354 857 q 337 795 340 824 q 332 722 333 767 l 315 364 q 315 351 315 361 q 315 327 315 340 q 314 299 314 314 q 314 272 314 283 q 350 133 314 182 q 468 85 386 85 q 550 106 513 85 q 607 168 588 128 q 623 228 618 192 q 628 307 628 264 q 628 322 628 311 q 627 344 628 332 q 626 366 626 356 q 626 381 626 376 l 614 713 q 595 826 611 783 q 543 874 579 869 l 531 875 l 531 913 l 806 913 l 806 875 l 793 874 z "},"V":{"ha":765,"x_min":4,"x_max":765,"o":"m 753 872 q 717 845 732 868 q 693 789 703 822 l 503 108 q 497 87 500 97 q 494 65 494 76 q 499 51 494 58 q 518 40 503 43 l 531 38 l 531 0 l 231 0 l 231 38 l 242 39 q 267 71 267 44 q 263 92 267 78 q 257 117 260 106 l 75 797 q 21 871 58 861 l 4 875 l 4 913 l 363 913 l 363 875 l 346 872 q 322 859 331 869 q 314 833 314 849 q 317 805 314 819 q 322 781 319 790 l 436 254 l 571 786 q 576 808 574 796 q 578 825 578 821 q 574 851 578 838 q 546 872 569 865 l 535 875 l 535 913 l 765 913 l 765 875 l 753 872 z "},"W":{"ha":1026,"x_min":1,"x_max":1026,"o":"m 1011 872 q 986 860 996 869 q 970 836 976 850 q 960 806 964 822 q 954 776 957 790 l 829 131 q 823 103 826 121 q 819 78 819 85 q 825 51 819 60 q 851 38 831 42 l 851 0 l 556 0 l 556 38 l 567 39 q 581 49 578 40 q 585 71 585 58 q 584 84 585 78 q 582 97 583 90 l 501 724 l 401 118 q 397 87 399 104 q 394 63 394 69 q 414 39 394 43 l 422 38 l 422 0 l 149 0 l 149 38 l 161 39 q 176 48 172 40 q 179 67 179 56 q 178 82 179 74 q 176 97 178 90 l 64 796 q 50 847 58 829 q 11 872 42 864 l 1 875 l 1 913 l 344 913 l 344 875 l 332 872 q 299 851 307 867 q 290 817 290 836 q 291 796 290 806 q 293 776 292 786 l 353 279 l 428 792 q 429 809 428 794 q 431 825 431 824 q 426 856 431 842 q 394 874 421 871 l 389 875 l 389 913 l 713 913 l 713 875 l 703 874 q 672 836 672 869 q 674 819 672 833 q 676 796 675 806 l 756 268 l 851 783 q 856 812 854 797 q 858 842 858 826 q 849 862 858 853 q 825 874 840 871 l 817 875 l 817 913 l 1026 913 l 1026 875 l 1011 872 z "},"X":{"ha":797,"x_min":-4,"x_max":814,"o":"m 428 0 l 428 38 l 442 39 q 467 49 457 40 q 476 71 476 58 q 473 94 476 82 q 465 115 469 107 l 338 385 l 228 140 q 213 108 221 125 q 206 78 206 92 q 217 53 206 64 q 246 39 228 42 l 258 38 l 258 0 l -4 0 l -4 38 l 8 39 q 63 72 40 42 q 111 153 85 103 l 288 490 l 140 782 q 100 847 117 828 q 64 872 83 867 l 53 875 l 53 913 l 428 913 l 428 875 l 407 872 q 390 865 397 871 q 382 847 382 858 q 385 831 382 842 q 392 814 389 819 l 465 647 l 547 814 q 553 828 550 818 q 557 846 557 839 q 531 872 557 864 l 521 875 l 521 913 l 757 913 l 757 875 l 742 871 q 691 839 710 863 q 654 782 672 815 l 521 533 l 726 126 q 763 65 747 86 q 804 39 778 43 l 814 38 l 814 0 l 428 0 z "},"Y":{"ha":776,"x_min":-3,"x_max":781,"o":"m 769 872 q 724 845 742 865 q 679 772 707 825 l 506 435 l 506 111 q 558 40 506 51 l 571 38 l 571 0 l 204 0 l 204 38 l 217 40 q 269 111 269 53 l 269 410 l 78 797 q 4 872 49 854 l -3 875 l -3 913 l 396 913 l 396 875 l 386 872 q 336 829 336 864 q 340 803 336 817 q 350 779 344 790 l 458 543 l 563 758 q 581 798 572 778 q 589 833 589 818 q 576 861 589 851 q 550 874 564 871 l 543 875 l 543 913 l 781 913 l 781 875 l 769 872 z "},"Z":{"ha":685,"x_min":3,"x_max":676,"o":"m 582 -28 q 563 -8 574 -15 q 528 0 551 0 l 3 0 l 374 836 l 356 836 q 279 831 321 836 q 186 794 238 825 q 138 759 157 778 q 106 722 118 740 q 85 683 93 703 q 71 643 78 664 l 54 646 l 106 940 q 135 919 117 925 q 174 913 153 913 l 668 913 l 299 79 l 339 79 q 516 133 432 79 q 660 308 600 188 l 676 306 l 582 -28 z "},"[":{"ha":433,"x_min":104,"x_max":429,"o":"m 200 -217 q 206 -208 203 -214 q 210 -194 210 -201 q 206 -180 210 -187 q 199 -169 201 -172 l 151 -104 q 130 -78 139 -87 q 104 -62 121 -69 q 119 -41 117 -51 q 122 -11 122 -31 l 122 725 q 119 756 122 746 q 104 776 115 765 q 131 792 122 783 q 151 818 140 801 l 199 883 q 206 896 201 886 q 210 910 210 906 q 206 923 210 918 q 200 931 203 928 l 429 931 q 391 913 407 922 q 353 874 375 903 l 268 760 l 268 -46 l 353 -160 q 388 -196 372 -185 q 429 -217 403 -207 l 200 -217 z "},"\\":{"ha":565,"x_min":38,"x_max":525,"o":"m 328 -192 l 328 -172 q 349 -165 339 -171 q 358 -144 358 -158 q 356 -126 358 -136 q 350 -107 353 -117 l 85 846 q 69 888 78 872 q 38 911 61 904 l 38 931 l 233 931 l 233 911 q 204 883 204 907 q 207 866 204 879 q 213 846 210 853 l 476 -107 q 492 -149 483 -133 q 525 -172 501 -165 l 525 -192 l 328 -192 z "},"]":{"ha":433,"x_min":4,"x_max":329,"o":"m 329 -62 q 302 -78 311 -69 q 282 -104 293 -87 l 235 -169 q 228 -180 232 -172 q 225 -194 225 -187 q 228 -208 225 -203 q 233 -217 231 -212 l 4 -217 q 44 -198 28 -208 q 81 -160 61 -187 l 165 -46 l 165 760 l 81 874 q 42 913 58 903 q 4 931 25 924 l 233 931 q 228 923 231 928 q 225 910 225 918 q 228 894 225 903 q 235 883 232 886 l 282 818 q 302 792 293 801 q 329 776 311 783 q 315 756 318 765 q 311 725 311 746 l 311 -11 q 314 -41 311 -31 q 329 -62 317 -51 z "},"^":{"ha":776,"x_min":61,"x_max":717,"o":"m 636 550 q 658 515 649 528 q 677 493 668 501 q 695 481 686 485 q 717 474 704 478 l 717 461 l 483 461 l 483 474 q 510 490 510 474 q 501 515 510 499 q 481 550 492 532 l 389 718 l 297 550 q 277 515 286 532 q 268 490 268 499 q 294 474 268 474 l 294 461 l 61 461 l 61 474 q 103 497 85 481 q 142 550 121 514 l 383 972 l 394 972 l 636 550 z "},"_":{"ha":694,"x_min":0,"x_max":694,"o":"m 0 -174 l 0 -104 l 694 -104 l 694 -174 l 0 -174 z "},"`":{"ha":482,"x_min":92,"x_max":390,"o":"m 372 767 l 244 794 q 135 830 178 810 q 92 886 92 850 q 113 948 92 928 q 167 968 133 968 q 231 947 199 968 q 306 885 264 925 l 390 804 l 372 767 z "},"a":{"ha":688,"x_min":35,"x_max":678,"o":"m 449 0 q 423 48 429 29 q 413 99 417 67 q 321 13 374 40 q 214 -14 268 -14 q 140 1 174 -14 q 83 41 107 15 q 47 102 60 67 q 35 178 35 138 q 62 278 35 235 q 138 356 89 322 q 254 414 186 389 q 406 458 322 439 l 406 482 q 401 534 406 511 q 386 573 397 557 q 353 597 375 589 q 296 606 331 606 q 242 595 271 606 q 187 564 214 585 q 136 513 160 543 q 99 440 113 482 l 85 442 l 107 685 q 126 663 117 669 q 150 657 136 657 q 186 663 165 657 q 235 678 207 669 q 301 692 264 686 q 388 699 339 699 q 514 678 468 699 q 582 625 560 658 q 610 548 604 592 q 615 458 615 504 l 615 167 q 627 72 615 106 q 663 38 639 38 l 678 38 l 678 0 l 449 0 m 406 379 q 328 349 360 368 q 278 306 297 329 q 249 257 258 282 q 240 211 240 232 q 259 137 240 161 q 306 113 278 113 q 380 171 354 113 q 406 347 406 229 l 406 379 z "},"b":{"ha":763,"x_min":15,"x_max":724,"o":"m 724 315 q 694 176 724 243 q 608 65 664 110 q 551 28 579 42 q 494 9 524 15 q 433 1 465 3 q 361 0 400 0 l 28 0 l 28 38 l 39 40 q 77 64 63 47 q 92 111 92 81 l 92 793 q 80 850 92 825 q 32 875 68 875 l 15 875 l 15 911 l 301 931 l 301 696 q 337 698 317 697 q 372 699 357 699 q 521 671 456 699 q 631 593 586 643 q 700 472 676 543 q 724 315 724 401 m 496 299 q 447 533 496 454 q 311 611 399 611 l 301 610 l 301 149 q 313 98 301 115 q 363 81 325 81 q 412 97 388 81 q 455 142 436 113 q 485 211 474 171 q 496 299 496 251 z "},"c":{"ha":628,"x_min":29,"x_max":628,"o":"m 556 -15 q 535 -3 543 -6 q 521 -1 528 -1 q 465 -8 493 -1 q 404 -14 436 -14 q 233 17 304 -14 q 116 99 161 49 q 50 213 71 149 q 29 342 29 276 q 55 492 29 426 q 126 604 81 558 q 231 674 171 650 q 358 699 290 699 q 442 690 403 699 q 504 682 482 682 q 529 692 521 682 q 544 713 538 701 l 589 443 l 572 438 q 503 567 544 522 q 413 611 461 611 q 349 594 378 611 q 300 545 321 576 q 268 470 279 514 q 257 375 257 426 q 269 260 257 314 q 306 167 282 207 q 361 106 329 128 q 433 83 393 83 q 495 95 468 83 q 543 126 522 107 q 581 169 564 144 q 613 222 597 194 l 628 217 l 556 -15 z "},"d":{"ha":757,"x_min":39,"x_max":739,"o":"m 351 0 q 263 7 307 0 q 175 42 219 14 q 74 155 108 82 q 39 328 39 228 q 64 482 39 413 q 135 601 89 551 q 244 677 181 650 q 386 704 308 704 q 420 704 403 704 q 456 703 438 704 l 456 792 q 447 847 456 825 q 399 874 438 869 l 393 875 l 393 911 l 665 931 l 665 111 q 685 58 665 74 q 722 40 704 43 l 739 38 l 739 0 l 351 0 m 456 624 l 436 624 q 374 605 404 624 q 319 549 343 586 q 281 454 296 511 q 267 321 267 397 q 303 144 267 208 q 396 81 339 81 q 447 106 439 81 q 456 175 456 131 l 456 624 z "},"e":{"ha":679,"x_min":29,"x_max":663,"o":"m 592 -12 q 574 1 585 -6 q 551 8 563 8 q 491 -3 529 8 q 394 -14 453 -14 q 234 15 303 -14 q 120 91 165 43 q 52 203 75 139 q 29 338 29 267 q 57 492 29 425 q 132 606 85 560 q 241 675 179 651 q 372 699 303 699 q 572 622 492 699 q 634 530 617 581 q 663 419 651 479 l 263 313 q 282 219 267 261 q 322 147 297 176 q 376 100 346 117 q 442 83 407 83 q 644 274 569 83 l 663 269 l 592 -12 m 444 460 q 417 572 442 535 q 358 610 393 610 q 283 560 310 610 q 256 422 256 510 l 256 404 l 444 460 z "},"f":{"ha":447,"x_min":19,"x_max":535,"o":"m 489 767 l 471 771 q 472 777 471 772 q 472 789 472 782 q 450 874 472 847 q 394 900 428 900 q 336 872 358 900 q 314 786 314 844 l 314 685 l 403 685 q 438 688 422 685 q 471 701 453 690 l 439 569 q 422 590 432 585 q 385 596 413 596 l 314 596 l 314 111 q 368 40 314 53 l 381 38 l 381 0 l 39 0 l 39 38 l 51 40 q 104 111 104 53 l 104 596 l 19 596 l 19 624 l 29 625 q 74 640 58 629 q 96 668 89 650 q 105 710 103 686 q 107 767 107 735 q 128 855 108 815 q 184 922 149 894 q 268 965 219 950 q 374 981 317 981 q 456 976 417 981 q 535 953 494 971 l 489 767 z "},"g":{"ha":764,"x_min":18,"x_max":757,"o":"m 757 -72 q 723 -178 757 -131 q 634 -260 689 -226 q 509 -312 579 -293 q 367 -331 439 -331 q 18 -239 154 -331 l 138 -31 l 154 -40 q 146 -108 146 -65 q 157 -145 146 -124 q 193 -186 168 -167 q 256 -219 218 -206 q 349 -233 294 -233 q 423 -224 388 -233 q 485 -198 458 -215 q 529 -156 513 -181 q 546 -99 546 -131 q 524 -41 546 -68 q 444 -14 503 -14 l 328 -14 q 111 71 189 -14 q 33 317 33 156 q 41 394 33 353 q 63 469 49 435 q 439 685 149 685 l 732 685 l 732 646 l 719 643 q 665 572 665 631 l 665 132 q 673 95 665 110 q 701 60 681 81 q 721 39 711 50 q 739 13 731 28 q 752 -24 747 -3 q 757 -72 757 -44 m 456 592 q 424 596 439 596 q 360 576 390 596 q 309 522 331 557 q 274 439 288 488 q 261 332 261 390 q 297 134 261 201 q 396 67 333 67 q 429 74 417 67 q 447 92 442 81 q 454 119 453 104 q 456 151 456 135 l 456 592 z "},"h":{"ha":753,"x_min":15,"x_max":732,"o":"m 394 0 l 394 38 l 404 39 q 445 63 433 43 q 457 111 457 82 l 457 429 q 456 479 457 456 q 449 520 454 503 q 433 547 444 538 q 404 557 422 557 q 363 542 383 557 q 329 501 343 528 q 306 419 310 464 q 301 322 301 375 l 301 106 q 302 88 301 97 q 308 70 303 79 q 323 53 313 61 q 351 40 333 44 l 363 38 l 363 0 l 25 0 l 25 38 l 40 40 q 76 59 60 43 q 92 111 92 75 l 92 792 q 90 819 92 806 q 83 844 89 833 q 65 864 76 856 q 35 874 54 872 l 15 875 l 15 911 l 301 931 l 301 568 q 403 663 350 628 q 522 699 456 699 q 601 678 572 699 q 644 624 629 658 q 663 545 658 590 q 667 450 667 500 l 667 111 q 721 39 667 51 l 732 36 l 732 0 l 394 0 z "},"i":{"ha":413,"x_min":25,"x_max":376,"o":"m 310 890 q 275 804 310 840 q 190 768 240 768 q 107 805 140 768 q 74 892 74 842 q 108 978 74 942 q 192 1014 142 1014 q 276 977 242 1014 q 310 890 310 940 m 40 0 l 40 38 l 53 40 q 91 63 76 46 q 106 111 106 79 l 106 567 q 94 624 106 600 q 47 649 82 649 l 25 649 l 25 685 l 315 699 l 315 111 q 364 40 315 51 l 376 38 l 376 0 l 40 0 z "},"j":{"ha":388,"x_min":-175,"x_max":308,"o":"m 308 890 q 274 804 308 840 q 190 768 240 768 q 108 805 140 768 q 75 892 75 842 q 109 978 75 942 q 193 1014 143 1014 q 276 977 243 1014 q 308 890 308 940 m -67 -53 q -76 -83 -71 -65 q -81 -121 -81 -101 q -56 -194 -81 -169 q 13 -218 -32 -218 q 58 -206 42 -218 q 83 -173 75 -193 q 94 -126 92 -153 q 96 -69 96 -99 l 96 567 q 85 624 96 599 q 38 649 75 649 l 25 649 l 25 685 l 306 700 l 306 -46 q 301 -132 306 -90 q 265 -211 296 -174 q 173 -275 232 -251 q 42 -299 114 -299 q -80 -283 -29 -299 q -175 -243 -131 -267 l -85 -46 l -67 -53 z "},"k":{"ha":751,"x_min":11,"x_max":782,"o":"m 407 0 l 407 36 l 425 40 q 451 55 440 43 q 461 86 461 67 q 451 133 461 100 q 426 207 442 167 q 392 287 411 247 q 351 354 372 326 l 301 297 l 301 111 q 315 61 301 81 q 353 39 329 42 l 365 38 l 365 0 l 26 0 l 26 36 l 40 39 q 76 61 61 43 q 92 111 92 79 l 92 793 q 90 822 92 807 q 81 849 88 838 q 63 867 75 860 q 31 875 50 875 l 11 875 l 11 911 l 301 931 l 301 396 l 436 561 q 451 584 443 571 q 458 610 458 597 q 446 635 458 626 q 414 646 433 643 l 403 647 l 403 685 l 726 685 l 726 647 q 653 632 685 644 q 594 601 621 619 q 544 559 567 582 q 499 513 521 536 q 609 333 569 418 q 674 184 649 249 q 717 81 699 119 q 768 39 736 42 l 782 38 l 782 0 l 407 0 z "},"l":{"ha":408,"x_min":24,"x_max":374,"o":"m 36 0 l 36 38 l 46 39 q 89 69 79 44 q 99 139 99 93 l 99 785 q 85 851 99 833 q 36 874 72 869 l 24 875 l 24 911 l 308 931 l 308 139 q 316 72 308 99 q 364 39 324 46 l 374 38 l 374 0 l 36 0 z "},"m":{"ha":1163,"x_min":29,"x_max":1133,"o":"m 796 0 l 796 38 l 808 40 q 847 63 832 46 q 861 111 861 79 l 861 432 q 851 520 861 488 q 799 553 840 553 q 722 498 750 553 q 693 318 693 443 l 693 111 q 708 63 693 79 q 744 40 722 46 l 757 38 l 757 0 l 418 0 l 418 38 l 431 40 q 469 63 454 46 q 483 111 483 79 l 483 442 q 474 525 483 494 q 421 556 465 556 q 346 498 376 556 q 315 318 315 440 l 315 111 q 330 63 315 79 q 368 40 344 46 l 381 38 l 381 0 l 40 0 l 40 38 l 53 40 q 91 63 76 46 q 106 111 106 79 l 106 515 q 98 578 106 554 q 79 614 90 601 q 55 631 68 626 q 29 638 42 635 l 29 668 l 288 685 q 309 609 304 642 q 315 550 314 576 q 420 660 364 621 q 549 699 476 699 q 693 550 674 699 q 803 661 746 624 q 928 699 861 699 q 999 681 971 699 q 1043 634 1028 664 q 1065 563 1058 604 q 1071 471 1071 521 l 1071 111 q 1085 63 1071 79 q 1122 40 1099 47 l 1133 38 l 1133 0 l 796 0 z "},"n":{"ha":775,"x_min":32,"x_max":750,"o":"m 411 0 l 411 38 l 422 40 q 460 63 446 47 q 475 111 475 79 l 475 447 q 464 533 475 504 q 419 561 453 561 q 384 549 403 561 q 350 511 365 538 q 325 442 335 485 q 315 340 315 400 l 315 111 q 331 63 315 79 q 369 40 346 46 l 382 38 l 382 0 l 42 0 l 42 38 l 53 40 q 91 63 76 47 q 106 111 106 79 l 106 500 q 101 563 106 539 q 86 600 96 586 q 63 621 76 614 q 32 633 49 628 l 32 671 l 288 685 q 308 613 303 644 q 315 560 313 582 q 427 667 368 635 q 542 699 486 699 q 647 650 608 699 q 685 483 685 601 l 685 111 q 699 63 685 79 q 738 40 714 46 l 750 38 l 750 0 l 411 0 z "},"o":{"ha":740,"x_min":28,"x_max":713,"o":"m 713 338 q 687 197 713 261 q 614 85 661 132 q 501 13 567 39 q 354 -14 435 -14 q 220 12 281 -14 q 117 84 160 38 q 51 195 74 131 q 28 338 28 260 q 53 478 28 413 q 125 592 78 543 q 238 670 172 642 q 386 699 304 699 q 522 673 461 699 q 624 599 582 647 q 690 485 667 551 q 713 338 713 418 m 483 274 q 456 534 483 450 q 363 618 429 618 q 288 565 319 618 q 256 399 256 513 q 289 161 256 247 q 390 75 322 75 q 461 128 439 75 q 483 274 483 182 z "},"p":{"ha":758,"x_min":28,"x_max":724,"o":"m 724 310 q 699 168 724 231 q 625 63 674 106 q 502 0 571 14 q 364 -14 433 -14 q 332 -12 349 -14 q 301 -8 315 -11 l 301 -189 q 315 -236 301 -219 q 353 -261 329 -253 l 365 -265 l 365 -300 l 28 -300 l 28 -265 l 40 -261 q 78 -236 65 -253 q 92 -189 92 -219 l 92 574 q 40 644 92 632 l 28 647 l 28 685 l 340 685 q 473 676 411 685 q 590 624 535 667 q 686 498 649 578 q 724 310 724 418 m 496 324 q 481 443 496 392 q 441 529 465 494 q 388 581 417 564 q 329 599 358 599 q 301 594 315 599 l 301 146 q 315 91 301 106 q 358 76 328 76 q 458 139 421 76 q 496 324 496 201 z "},"q":{"ha":765,"x_min":35,"x_max":743,"o":"m 396 -301 l 396 -265 l 410 -261 q 447 -239 432 -254 q 461 -190 461 -224 l 461 -14 q 374 -18 425 -18 q 117 63 200 -18 q 35 321 35 143 q 56 451 35 386 q 118 565 78 517 q 262 660 176 636 q 469 685 347 685 l 736 685 l 736 647 l 724 646 q 685 624 700 643 q 671 574 671 606 l 671 -190 q 686 -241 671 -221 q 731 -264 701 -261 l 743 -265 l 743 -301 l 396 -301 m 461 594 q 448 595 458 594 q 433 596 438 596 q 360 573 392 596 q 306 513 328 550 q 274 427 285 475 q 263 329 263 379 q 298 138 263 206 q 401 69 333 69 q 450 93 439 69 q 461 153 461 117 l 461 594 z "},"r":{"ha":535,"x_min":19,"x_max":557,"o":"m 531 467 l 517 467 q 480 518 506 500 q 422 536 454 536 q 339 488 371 536 q 326 464 331 476 q 319 435 322 451 q 316 394 317 418 q 315 336 315 371 l 315 111 q 329 63 315 79 q 365 40 343 46 l 376 38 l 376 0 l 42 0 l 42 38 l 54 40 q 92 63 78 46 q 106 111 106 79 l 106 494 q 86 597 106 568 q 19 628 67 625 l 19 664 l 279 685 q 303 617 294 653 q 315 540 311 581 q 353 616 331 586 q 401 665 376 646 q 451 691 426 683 q 497 699 476 699 q 533 694 521 699 q 557 682 546 689 l 531 467 z "},"s":{"ha":638,"x_min":44,"x_max":606,"o":"m 606 251 q 584 157 606 204 q 522 72 563 110 q 422 11 481 35 q 290 -12 364 -12 q 232 -8 260 -12 q 181 1 204 -4 q 141 11 158 7 q 115 15 124 15 q 81 8 93 15 q 57 -10 68 0 l 44 278 l 64 279 q 135 129 76 182 q 278 76 194 76 q 369 106 335 76 q 404 178 404 136 q 378 235 404 215 q 315 269 353 256 q 231 294 276 282 q 148 328 186 306 q 84 388 110 350 q 58 492 58 426 q 76 571 58 533 q 128 637 93 608 q 215 682 163 665 q 336 699 267 699 q 388 696 365 699 q 429 689 411 693 q 462 682 447 685 q 490 679 476 679 q 513 685 503 679 q 531 699 522 692 l 549 481 l 531 476 q 499 543 518 515 q 456 589 479 571 q 409 615 433 607 q 363 624 385 624 q 288 605 310 624 q 265 563 265 586 q 290 512 265 529 q 353 481 315 494 q 435 455 392 468 q 517 418 479 442 q 581 356 556 394 q 606 251 606 317 z "},"t":{"ha":489,"x_min":11,"x_max":494,"o":"m 456 18 q 387 -3 425 7 q 290 -14 349 -14 q 192 -1 231 -14 q 130 37 153 11 q 98 100 107 63 q 89 188 89 138 l 89 596 l 11 596 l 11 631 l 24 633 q 88 692 65 643 q 111 808 111 740 q 104 864 111 833 q 169 881 140 869 q 223 907 199 893 q 266 935 247 921 q 299 961 285 950 l 299 685 l 401 685 q 428 686 418 685 q 444 690 438 688 q 455 697 450 693 q 468 708 460 701 l 432 579 q 414 594 421 592 q 388 596 407 596 l 299 596 l 299 188 q 312 117 299 143 q 363 92 325 92 q 476 229 428 92 l 494 225 l 456 18 z "},"u":{"ha":754,"x_min":24,"x_max":729,"o":"m 481 0 q 464 68 468 35 q 460 133 460 101 q 359 30 415 74 q 233 -14 303 -14 q 178 -6 204 -14 q 132 24 151 3 q 101 79 113 44 q 89 168 89 114 l 89 565 q 88 592 89 578 q 80 619 86 607 q 63 640 74 632 q 31 647 51 647 l 24 647 l 24 685 l 299 700 l 299 214 q 308 155 299 179 q 353 131 317 131 q 390 145 371 131 q 424 192 408 160 q 450 275 440 224 q 460 400 460 326 l 460 565 q 458 592 460 578 q 451 619 457 607 q 433 640 444 632 q 401 647 422 647 l 389 647 l 389 685 l 669 700 l 669 169 q 679 85 669 118 q 718 42 689 53 l 729 38 l 729 0 l 481 0 z "},"v":{"ha":643,"x_min":-14,"x_max":664,"o":"m 644 646 q 597 612 617 643 q 560 528 576 581 l 422 89 q 418 76 421 86 q 415 58 415 65 q 419 42 415 47 q 438 38 424 38 l 450 38 l 450 0 l 174 0 l 174 38 l 186 39 q 203 61 203 43 q 199 89 203 74 l 64 553 q 40 619 53 590 q -3 647 26 647 l -14 647 l -14 685 l 332 685 l 332 647 l 321 646 q 281 618 281 642 q 282 597 281 608 q 286 578 283 586 l 374 243 l 469 569 q 475 595 472 581 q 478 617 478 610 q 442 646 478 642 l 432 647 l 432 685 l 664 685 l 664 647 l 644 646 z "},"w":{"ha":890,"x_min":1,"x_max":890,"o":"m 876 646 q 851 636 861 644 q 834 617 840 628 q 825 596 828 607 q 821 576 822 585 l 715 103 q 712 85 714 99 q 710 64 710 72 q 714 45 710 53 q 732 38 718 38 l 739 38 l 739 0 l 489 0 l 489 38 l 499 39 q 514 43 508 40 q 519 54 519 46 q 518 76 519 64 q 515 93 517 88 l 447 439 l 374 103 q 368 81 371 94 q 365 58 365 67 q 372 44 365 49 q 386 38 378 39 l 392 38 l 392 0 l 125 0 l 125 38 l 135 39 q 153 49 146 40 q 160 65 160 57 q 157 93 160 76 q 151 119 154 110 l 64 576 q 49 624 58 604 q 14 646 39 643 l 1 647 l 1 685 l 319 685 l 319 647 l 306 646 q 280 637 290 644 q 269 618 269 629 q 271 597 269 610 q 274 576 272 585 l 328 213 l 431 685 l 557 685 l 650 213 l 722 583 q 725 613 725 594 q 713 640 725 633 q 690 647 700 647 l 679 647 l 679 685 l 890 685 l 890 647 l 876 646 z "},"x":{"ha":729,"x_min":-3,"x_max":719,"o":"m 358 0 l 358 38 l 372 39 q 403 68 403 42 q 398 85 403 74 q 388 106 393 96 l 310 257 l 221 113 q 209 88 214 101 q 204 64 204 75 q 213 44 204 51 q 235 38 222 38 l 246 38 l 246 0 l -3 0 l -3 38 l 10 39 q 62 58 38 42 q 118 124 86 75 l 261 346 l 146 567 q 110 625 126 603 q 65 647 94 647 l 50 647 l 50 685 l 408 685 l 408 647 l 396 647 q 372 639 381 647 q 363 618 363 631 q 368 596 363 607 q 376 578 374 585 l 421 488 l 483 589 q 490 605 488 596 q 492 621 492 614 q 483 640 492 632 q 463 647 475 647 l 454 647 l 454 685 l 685 685 l 685 647 l 665 646 q 615 619 636 643 q 575 567 594 594 l 465 403 l 625 113 q 660 59 644 76 q 706 39 675 42 l 719 38 l 719 0 l 358 0 z "},"y":{"ha":639,"x_min":-22,"x_max":661,"o":"m 651 646 q 592 597 614 640 q 547 482 571 553 l 368 -69 q 334 -171 351 -124 q 292 -253 317 -218 q 233 -309 268 -289 q 147 -329 199 -329 q 74 -318 106 -329 q 15 -283 43 -307 l 71 -103 l 85 -106 l 85 -119 q 109 -190 85 -168 q 156 -211 133 -211 q 192 -199 175 -211 q 223 -167 210 -187 q 244 -121 236 -147 q 251 -65 251 -94 q 218 97 251 3 l 64 539 q 45 592 53 571 q 30 624 38 613 q 14 640 22 635 q -6 646 6 644 l -22 647 l -22 685 l 335 685 l 335 647 l 319 644 q 290 631 301 642 q 279 603 279 619 q 284 568 279 589 q 294 525 289 547 l 368 211 l 468 539 q 474 569 471 550 q 478 600 478 588 q 465 633 478 624 q 432 646 451 642 l 425 647 l 425 685 l 661 685 l 661 647 l 651 646 z "},"z":{"ha":617,"x_min":17,"x_max":617,"o":"m 551 -28 q 519 -3 538 -7 q 485 0 501 0 l 17 0 l 324 601 q 303 603 313 603 q 285 603 294 603 q 210 593 242 603 q 154 563 178 583 q 112 513 131 543 q 78 444 93 483 l 63 446 l 110 706 q 136 689 124 693 q 175 685 149 685 l 601 685 l 300 92 q 326 90 311 90 q 350 89 340 89 q 434 97 396 89 q 503 126 472 106 q 558 179 533 146 q 600 261 582 213 l 617 260 l 551 -28 z "},"{":{"ha":425,"x_min":42,"x_max":397,"o":"m 42 376 q 94 388 75 378 q 125 414 114 397 q 140 453 136 431 q 143 504 143 476 l 143 732 q 152 827 143 789 q 183 888 161 865 q 239 921 204 911 q 325 931 274 931 l 397 931 l 397 893 q 346 885 365 892 q 316 865 326 878 q 302 830 306 851 q 299 779 299 808 l 299 538 q 295 474 299 503 q 280 422 292 444 q 246 382 268 399 q 188 357 224 365 q 278 300 257 342 q 299 190 299 258 l 299 -67 q 302 -117 299 -96 q 316 -151 306 -137 q 346 -172 326 -165 q 397 -179 365 -178 l 397 -217 l 325 -217 q 239 -207 274 -217 q 183 -174 204 -197 q 152 -113 161 -151 q 143 -18 143 -75 l 143 213 q 140 256 143 233 q 125 296 136 278 q 94 326 114 314 q 42 339 75 338 l 42 376 z "},"|":{"ha":833,"x_min":369,"x_max":465,"o":"m 369 -347 l 369 1042 l 465 1042 l 465 -347 l 369 -347 z "},"}":{"ha":425,"x_min":28,"x_max":383,"o":"m 383 338 q 331 326 350 336 q 300 300 311 317 q 285 260 289 283 q 282 210 282 238 l 282 -18 q 273 -113 282 -75 q 242 -174 264 -151 q 186 -207 221 -197 q 100 -217 151 -217 l 28 -217 l 28 -179 q 79 -171 60 -178 q 109 -151 99 -164 q 123 -116 119 -137 q 126 -65 126 -94 l 126 176 q 130 240 126 211 q 145 292 133 269 q 179 332 157 315 q 238 357 201 349 q 147 414 168 372 q 126 524 126 456 l 126 781 q 123 831 126 810 q 109 865 119 851 q 79 885 99 879 q 28 893 60 892 l 28 931 l 100 931 q 186 921 151 931 q 242 888 221 911 q 273 827 264 865 q 282 732 282 789 l 282 501 q 285 458 282 481 q 300 418 289 436 q 331 388 311 400 q 383 375 350 376 l 383 338 z "},"~":{"ha":776,"x_min":72,"x_max":711,"o":"m 711 536 q 679 488 699 514 q 631 438 660 461 q 565 400 603 415 q 482 385 528 385 q 424 392 453 385 q 367 408 396 400 q 310 424 339 417 q 253 432 282 432 q 190 417 221 432 q 131 367 158 401 l 72 406 q 115 460 92 433 q 165 509 138 488 q 226 544 193 531 q 299 557 260 557 q 356 549 328 557 q 413 533 385 542 q 469 517 440 525 q 525 510 497 510 q 597 527 569 510 q 651 574 624 544 l 711 536 z "},"":{"ha":389,"x_min":0,"x_max":0,"o":""},"":{"ha":433,"x_min":78,"x_max":356,"o":"m 328 567 q 295 476 328 510 q 214 442 263 442 q 132 476 165 442 q 99 567 99 510 q 131 661 99 625 q 214 697 163 697 q 296 661 264 697 q 328 567 328 625 m 78 -228 q 113 -90 94 -174 q 132 126 132 -7 q 123 275 132 215 q 111 368 114 335 q 149 354 129 360 q 188 349 168 349 q 262 364 231 349 q 322 400 293 379 q 303 259 308 325 q 299 133 299 193 q 317 -82 299 4 q 356 -228 336 -168 l 78 -228 z "},"":{"ha":776,"x_min":110,"x_max":665,"o":"m 611 153 q 549 136 588 146 q 471 126 511 126 q 410 131 444 126 l 394 43 q 392 29 393 36 q 392 19 392 22 q 397 -3 392 4 q 425 -15 403 -11 l 425 -36 l 264 -36 l 264 -15 q 294 0 283 -8 q 311 43 304 8 l 329 149 q 171 260 232 182 q 110 461 110 339 q 135 590 110 532 q 206 690 161 647 q 310 756 251 732 q 436 785 369 781 l 453 883 q 455 898 454 890 q 456 914 456 906 q 447 933 456 926 q 428 943 439 940 l 428 965 l 575 965 l 575 943 q 547 922 553 932 q 538 890 540 911 l 519 782 q 569 767 551 775 q 597 760 588 760 q 636 781 617 760 l 621 567 l 606 567 q 574 653 599 618 q 506 701 550 689 l 425 224 q 485 214 450 214 q 544 223 519 214 q 589 247 569 232 q 624 280 608 261 q 654 319 639 299 l 665 318 l 611 153 m 422 703 q 366 667 390 692 q 326 610 342 642 q 301 523 307 565 q 296 431 296 481 q 350 276 296 342 l 422 703 z "},"":{"ha":776,"x_min":38,"x_max":750,"o":"m 663 -19 q 545 12 590 -12 q 460 68 500 36 q 260 -14 379 -14 q 94 27 151 -14 q 38 147 38 68 q 49 193 38 171 q 80 233 60 215 q 128 260 100 250 q 192 271 157 271 q 265 263 235 271 q 324 243 296 254 q 326 255 325 249 q 328 275 328 261 q 325 324 328 297 q 307 381 322 350 q 267 433 292 413 q 215 453 242 453 q 160 435 185 453 q 113 388 135 417 l 104 390 l 158 561 q 167 547 161 554 q 192 540 172 540 l 224 540 q 203 590 213 563 q 194 657 194 618 q 217 767 194 717 q 278 852 239 817 q 369 907 317 888 q 482 926 421 926 q 633 872 578 926 q 690 713 689 817 l 563 593 l 553 601 q 579 649 568 625 q 590 715 590 674 q 565 803 590 768 q 499 838 539 838 q 420 796 449 838 q 392 697 392 754 q 427 551 392 600 q 515 503 463 503 q 590 524 560 503 q 643 585 619 544 l 651 582 l 611 406 q 597 418 604 414 q 571 422 590 422 l 500 422 l 497 418 q 525 342 515 382 q 535 261 535 303 q 528 203 535 232 q 514 158 522 175 q 601 131 554 131 q 671 164 636 131 q 735 271 706 197 l 750 267 l 663 -19 m 294 143 q 246 177 268 164 q 192 190 224 190 q 155 174 171 190 q 139 138 139 158 q 158 89 139 106 q 206 72 178 72 q 250 90 225 72 q 294 143 275 107 z "},"":{"ha":776,"x_min":29,"x_max":747,"o":"m 688 74 l 554 207 q 471 166 511 179 q 389 153 431 153 q 306 167 346 153 q 221 207 265 181 l 88 74 l 29 133 l 165 264 q 108 432 108 349 q 164 600 108 514 l 29 731 l 86 790 l 219 657 q 304 697 264 685 q 388 708 344 708 q 553 657 472 708 l 686 790 l 747 731 l 613 600 q 652 515 639 556 q 665 432 665 475 q 613 267 665 347 l 747 133 l 688 74 m 211 432 q 224 360 211 394 q 260 301 238 326 q 316 260 283 275 q 388 244 349 244 q 459 260 426 244 q 515 301 492 275 q 550 360 538 326 q 563 432 563 394 q 550 503 563 469 q 515 563 538 538 q 460 602 492 588 q 389 617 428 617 q 316 602 349 617 q 260 563 283 588 q 224 503 238 538 q 211 432 211 469 z "},"":{"ha":776,"x_min":0,"x_max":776,"o":"m 776 879 q 735 855 753 871 q 699 811 717 839 q 660 743 681 783 q 608 646 639 703 l 578 589 l 644 589 q 674 594 663 589 q 694 606 686 599 l 711 606 l 711 493 l 696 493 q 644 510 674 510 l 539 510 l 490 421 l 643 421 q 674 427 663 421 q 694 443 686 433 l 711 443 l 711 325 l 696 325 q 672 340 681 336 q 644 344 663 344 l 490 344 l 490 161 q 492 117 490 139 q 502 76 494 94 q 526 44 510 57 q 571 32 542 32 l 571 0 l 199 0 l 199 32 q 263 64 250 33 q 276 161 276 94 l 276 344 l 124 344 q 95 340 106 344 q 74 325 85 335 l 57 325 l 57 436 l 72 436 q 125 421 93 421 l 276 421 l 231 510 l 124 510 q 96 507 107 510 q 74 493 85 504 l 57 493 l 57 606 l 72 606 q 124 589 90 589 l 190 589 l 94 778 q 72 819 82 803 q 52 848 63 836 q 29 867 42 860 q 0 879 17 875 l 0 913 l 396 913 l 396 879 q 359 863 369 876 q 349 839 349 850 q 354 795 349 808 q 369 763 360 782 l 465 556 l 525 669 q 574 773 554 726 q 593 838 593 819 q 581 868 593 860 q 549 879 568 876 l 549 913 l 776 913 l 776 879 z "},"":{"ha":833,"x_min":369,"x_max":465,"o":"m 369 451 l 369 938 l 465 938 l 465 451 l 369 451 m 369 -243 l 369 243 l 465 243 l 465 -243 l 369 -243 z "},"":{"ha":714,"x_min":53,"x_max":656,"o":"m 514 253 q 498 299 514 276 q 429 356 482 321 l 319 429 q 270 464 293 447 q 228 497 247 481 q 189 456 201 478 q 176 414 176 433 q 197 356 176 379 q 263 301 218 332 l 361 235 q 401 206 376 225 q 453 167 426 186 q 497 206 481 183 q 514 253 514 229 m 382 839 q 313 813 336 839 q 290 754 290 788 q 309 689 290 717 q 360 639 328 661 l 489 551 q 557 503 526 526 q 610 456 588 481 q 644 400 632 431 q 656 328 656 369 q 619 211 656 263 q 511 119 582 160 q 575 46 550 85 q 600 -49 600 7 q 580 -139 600 -100 q 524 -205 560 -178 q 440 -246 489 -232 q 336 -260 392 -260 q 178 -242 244 -260 q 54 -186 113 -224 l 154 43 l 168 39 q 163 14 165 28 q 161 -12 161 0 q 198 -127 161 -82 q 308 -172 235 -172 q 389 -149 361 -172 q 417 -89 417 -126 q 395 -32 417 -54 q 324 24 374 -10 l 201 106 q 138 152 165 129 q 91 201 110 175 q 63 260 72 228 q 53 336 53 292 q 85 455 53 404 q 178 544 118 506 q 128 620 146 581 q 111 710 111 660 q 128 792 111 753 q 178 860 146 831 q 257 908 211 890 q 360 926 303 926 q 473 914 422 926 q 575 876 524 901 l 532 651 l 515 653 q 516 663 515 660 q 517 674 517 667 q 478 796 517 753 q 382 839 440 839 z "},"":{"ha":578,"x_min":96,"x_max":482,"o":"m 482 867 q 460 799 482 825 q 404 772 438 772 q 347 799 369 772 q 324 869 324 826 q 347 933 324 904 q 404 961 369 961 q 460 933 439 961 q 482 867 482 906 m 254 867 q 232 799 254 825 q 176 772 210 772 q 119 799 142 772 q 96 869 96 826 q 118 933 96 904 q 176 961 140 961 q 233 934 211 961 q 254 867 254 907 z "},"":{"ha":1139,"x_min":89,"x_max":1051,"o":"m 744 190 q 733 203 738 201 q 722 206 729 206 q 699 204 715 206 q 665 202 683 203 q 632 200 647 201 q 611 199 617 199 q 492 219 546 199 q 401 274 439 239 q 342 360 363 310 q 321 471 321 410 q 338 573 321 526 q 389 653 356 619 q 469 705 422 686 q 576 724 517 724 q 647 716 617 724 q 697 708 678 708 q 720 715 713 708 q 735 735 728 722 l 775 510 l 756 504 q 741 543 751 518 q 712 592 731 568 q 666 634 693 617 q 601 651 639 651 q 513 609 551 651 q 475 488 475 567 q 489 399 475 439 q 526 330 503 358 q 580 286 549 301 q 646 271 611 271 q 676 274 658 271 q 712 288 693 278 q 748 319 731 299 q 779 374 765 339 l 801 365 l 744 190 m 89 463 q 124 641 89 554 q 222 795 158 728 q 375 903 286 863 q 571 944 464 944 q 760 906 672 944 q 912 802 847 868 q 1014 649 976 736 q 1051 463 1051 561 q 1015 278 1051 365 q 913 125 978 190 q 760 21 849 60 q 571 -18 672 -18 q 376 22 464 -18 q 224 129 288 63 q 124 283 160 196 q 89 463 89 369 m 156 463 q 186 308 156 383 q 272 176 217 233 q 403 83 326 118 q 571 49 479 49 q 734 82 658 49 q 865 172 810 115 q 953 303 921 228 q 985 463 985 379 q 953 623 985 547 q 865 755 921 699 q 733 844 808 811 q 571 878 658 878 q 403 843 479 878 q 272 751 326 808 q 186 618 217 693 q 156 463 156 543 z "},"":{"ha":507,"x_min":49,"x_max":453,"o":"m 321 510 q 306 540 313 517 q 297 579 299 564 q 242 522 275 544 q 151 499 210 499 q 80 526 111 499 q 49 603 49 553 q 76 682 49 650 q 142 734 103 714 q 223 765 181 754 q 297 779 265 775 q 295 815 297 799 q 286 843 293 832 q 257 861 275 857 q 219 865 239 865 q 142 839 175 865 q 92 765 108 813 l 81 767 l 94 914 q 99 909 97 911 q 104 904 101 907 q 117 900 110 900 q 146 904 131 900 q 211 919 181 913 q 278 926 242 926 q 338 920 304 926 q 392 889 372 914 q 413 834 410 865 q 417 772 417 803 l 417 594 q 422 551 417 571 q 453 529 428 532 l 453 510 l 321 510 m 297 735 q 250 724 274 732 q 208 703 226 717 q 179 672 190 690 q 168 629 168 654 q 181 588 168 603 q 214 574 193 574 q 257 590 240 574 q 283 629 274 606 q 294 681 292 653 q 297 735 297 710 z "},"":{"ha":549,"x_min":56,"x_max":490,"o":"m 265 118 l 200 92 l 56 354 l 200 617 l 265 590 l 203 354 l 265 118 m 490 118 l 425 92 l 281 354 l 425 617 l 490 590 l 428 354 l 490 118 z "},"":{"ha":776,"x_min":68,"x_max":707,"o":"m 689 288 q 694 260 689 268 q 707 246 700 253 l 707 226 l 551 226 l 551 246 q 572 266 568 256 q 575 288 575 276 l 575 499 l 128 499 q 101 492 110 499 q 86 475 93 486 l 68 475 l 68 631 l 86 631 q 99 619 89 625 q 129 613 108 613 l 689 613 l 689 288 z "},"":{"ha":472,"x_min":40,"x_max":424,"o":"m 325 228 q 296 258 317 251 q 251 265 275 265 l 160 265 q 106 258 132 265 q 61 228 79 251 l 40 239 l 139 469 q 160 444 146 450 q 222 439 174 439 l 308 439 q 373 447 353 439 q 403 469 393 454 l 424 460 l 325 228 z "},"":{"ha":688,"x_min":47,"x_max":640,"o":"m 107 639 q 124 551 107 593 q 173 476 142 508 q 247 423 204 443 q 343 403 290 403 q 437 422 393 403 q 513 473 481 440 q 563 548 544 506 q 581 639 581 590 q 563 731 581 688 q 512 806 544 774 q 436 858 479 839 q 343 876 393 876 q 247 856 290 876 q 173 803 204 836 q 124 728 142 771 q 107 639 107 685 m 47 639 q 69 749 47 696 q 129 844 90 803 q 223 911 168 886 q 343 936 278 936 q 460 913 406 936 q 554 849 514 889 q 617 754 594 808 q 640 639 640 700 q 617 526 640 579 q 555 431 594 472 q 460 367 515 390 q 343 343 406 343 q 224 368 278 343 q 130 434 169 393 q 69 528 90 475 q 47 639 47 582 m 518 486 l 356 486 l 356 501 q 371 505 365 503 q 376 515 376 507 q 363 558 376 528 q 318 628 350 588 l 306 625 l 306 543 q 310 513 306 524 q 333 501 314 503 l 333 486 l 179 486 l 179 501 q 199 513 194 504 q 204 543 204 521 l 204 738 q 199 767 204 760 q 179 778 194 774 l 179 793 l 383 793 q 438 790 419 793 q 467 778 456 788 q 476 765 469 775 q 483 740 483 756 q 476 710 483 724 q 458 688 468 697 q 436 672 447 678 q 417 661 425 665 q 465 588 453 619 q 486 531 476 556 q 500 509 493 514 q 518 501 507 504 l 518 486 m 306 664 q 381 725 381 685 q 367 751 381 743 q 336 760 353 760 q 309 750 313 760 q 306 728 306 740 l 306 664 z "},"":{"ha":722,"x_min":179,"x_max":543,"o":"m 179 801 l 179 906 l 543 906 l 543 801 l 179 801 z "},"":{"ha":556,"x_min":90,"x_max":465,"o":"m 465 742 q 451 669 465 703 q 410 609 436 635 q 351 569 385 583 q 278 554 317 554 q 205 569 239 554 q 145 609 171 583 q 105 669 119 635 q 90 742 90 703 q 105 815 90 781 q 145 874 119 849 q 205 913 171 899 q 276 928 239 928 q 350 913 315 928 q 410 874 385 899 q 451 815 436 849 q 465 742 465 781 m 381 742 q 351 816 381 785 q 278 847 321 847 q 205 817 236 847 q 174 742 174 786 q 204 666 174 697 q 276 635 235 635 q 351 667 321 635 q 381 742 381 699 z "},"":{"ha":776,"x_min":60,"x_max":717,"o":"m 446 251 q 451 224 446 232 q 464 210 457 217 l 464 190 l 307 190 l 307 210 q 327 230 324 219 q 331 251 331 240 l 331 463 l 119 463 q 93 456 101 463 q 78 439 85 450 l 60 439 l 60 594 l 78 594 q 97 580 89 583 q 121 576 106 576 l 331 576 l 331 788 q 324 815 331 807 q 307 829 318 822 l 307 849 l 464 849 l 464 829 q 452 817 458 826 q 446 788 446 807 l 446 576 l 656 576 q 685 582 675 576 q 699 594 694 588 l 717 594 l 717 439 l 699 439 q 677 458 688 454 q 656 463 667 463 l 446 463 l 446 251 m 60 132 l 78 132 q 121 114 94 114 l 656 114 q 683 119 675 114 q 699 132 692 125 l 717 132 l 717 -24 l 699 -24 q 677 -4 688 -8 q 656 0 667 0 l 119 0 q 93 -6 101 0 q 78 -24 85 -12 l 60 -24 l 60 132 z "},"":{"ha":508,"x_min":10,"x_max":446,"o":"m 404 578 q 387 592 397 589 q 360 594 376 594 l 10 594 q 206 809 143 708 q 268 976 268 910 q 194 1083 268 1083 q 117 1049 150 1083 q 83 951 83 1014 l 74 949 l 44 1088 q 135 1133 83 1115 q 247 1150 188 1150 q 374 1110 328 1150 q 419 988 419 1069 q 214 708 419 872 l 344 708 q 402 720 381 708 q 438 756 424 732 l 446 751 l 404 578 z "},"":{"ha":508,"x_min":8,"x_max":454,"o":"m 454 794 q 435 717 454 754 q 383 651 417 679 q 303 605 350 622 q 201 588 257 588 q 102 598 149 588 q 8 638 56 608 l 72 775 l 81 772 q 78 757 79 765 q 76 742 76 749 q 107 673 76 700 q 185 646 138 646 q 233 656 211 646 q 272 684 256 667 q 297 724 288 701 q 306 772 306 747 q 272 863 306 829 q 175 896 239 896 q 121 890 147 896 l 281 1038 l 158 1038 q 108 1031 128 1038 q 76 997 89 1024 l 68 999 l 103 1154 q 113 1144 110 1147 q 135 1142 117 1142 l 401 1142 q 410 1111 406 1122 q 421 1089 414 1100 l 306 983 q 411 921 368 971 q 454 794 454 871 z "},"":{"ha":482,"x_min":92,"x_max":390,"o":"m 390 886 q 346 829 390 850 q 238 794 301 808 l 111 767 l 92 804 l 176 885 q 250 947 218 925 q 314 968 282 968 q 369 948 347 968 q 390 886 390 928 z "},"":{"ha":796,"x_min":14,"x_max":782,"o":"m 14 -301 l 14 -267 q 70 -240 50 -264 q 90 -156 90 -215 l 90 531 q 70 615 90 590 q 14 642 50 639 l 14 676 l 311 696 l 311 267 q 319 163 311 193 q 364 132 326 132 q 433 161 408 132 q 470 232 458 190 q 484 321 482 274 q 486 406 486 368 l 486 486 q 481 560 486 531 q 467 608 476 590 q 441 633 457 625 q 404 642 425 640 l 404 676 l 707 696 l 707 146 q 782 35 707 39 l 782 0 l 503 0 q 490 62 492 31 q 486 125 488 93 q 448 78 465 100 q 411 39 431 57 q 368 8 392 21 q 311 -11 344 -6 l 311 -114 q 331 -219 311 -174 q 388 -267 351 -264 l 388 -301 l 14 -301 z "},"":{"ha":714,"x_min":11,"x_max":706,"o":"m 657 749 q 640 767 646 764 q 622 771 635 771 l 593 771 l 593 67 q 580 -54 593 0 q 519 -156 567 -108 q 410 -222 469 -204 q 303 -240 351 -240 q 144 -200 214 -240 q 11 -78 74 -160 l 139 168 l 165 151 q 153 76 156 100 q 151 35 151 51 q 167 -51 151 -15 q 206 -108 182 -86 q 260 -140 231 -131 q 317 -150 289 -150 q 435 -101 399 -150 q 472 31 472 -53 l 472 189 l 399 189 q 323 192 361 189 q 249 206 285 194 q 179 242 213 218 q 118 307 146 265 q 75 394 90 346 q 60 497 60 443 q 89 644 60 578 q 168 757 118 710 q 285 829 218 804 q 429 854 353 854 l 472 854 l 472 956 q 508 973 494 965 q 535 990 522 981 q 560 1013 547 1000 q 593 1044 574 1025 l 593 854 l 625 854 q 662 860 646 854 q 706 886 678 867 l 657 749 m 472 771 l 446 771 q 374 747 403 771 q 326 684 344 722 q 299 599 307 646 q 290 507 290 551 q 303 397 290 442 q 337 325 317 353 q 381 285 357 297 q 428 272 406 272 l 472 272 l 472 771 z "},"":{"ha":411,"x_min":103,"x_max":307,"o":"m 307 467 q 278 382 307 414 q 204 350 249 350 q 131 383 160 350 q 103 468 103 415 q 132 549 103 519 q 204 579 161 579 q 277 549 247 579 q 307 467 307 518 z "},"":{"ha":476,"x_min":92,"x_max":371,"o":"m 371 -153 q 326 -255 371 -219 q 194 -301 282 -290 q 155 -309 167 -304 q 135 -329 143 -314 l 92 -224 q 116 -235 103 -231 q 151 -239 129 -239 q 215 -217 192 -239 q 238 -158 238 -196 q 226 -128 238 -139 q 194 -117 215 -117 q 154 -131 176 -117 q 110 -172 132 -144 l 110 -65 q 129 -71 118 -71 q 140 -67 133 -71 q 150 -62 147 -64 l 272 0 l 333 0 l 231 -53 l 231 -67 q 244 -65 238 -65 q 260 -65 250 -65 q 344 -91 317 -65 q 371 -153 371 -117 z "},"":{"ha":508,"x_min":61,"x_max":457,"o":"m 61 1088 l 339 1150 l 339 697 q 341 661 339 676 q 354 636 343 646 q 389 622 365 626 q 457 617 413 617 l 457 594 l 72 594 l 72 617 q 134 622 111 617 q 169 637 157 626 q 184 665 181 647 q 188 708 188 682 l 188 1010 q 177 1058 188 1043 q 128 1072 167 1072 q 97 1070 117 1072 q 65 1065 76 1068 l 61 1088 z "},"":{"ha":519,"x_min":50,"x_max":469,"o":"m 469 710 q 451 614 469 654 q 402 548 432 574 q 333 510 372 522 q 254 497 294 497 q 178 510 215 497 q 113 547 142 522 q 67 610 85 572 q 50 701 50 649 q 68 798 50 756 q 117 869 86 840 q 185 912 147 897 q 265 926 224 926 q 344 913 307 926 q 408 872 381 899 q 453 804 436 844 q 469 710 469 764 m 336 697 q 333 767 336 735 q 320 822 329 799 q 296 859 311 846 q 257 872 281 872 q 202 835 221 872 q 183 728 183 799 q 206 593 183 635 q 267 551 229 551 q 319 587 303 551 q 336 697 336 622 z "},"":{"ha":549,"x_min":58,"x_max":493,"o":"m 283 590 l 349 617 l 493 354 l 349 92 l 283 118 l 346 354 l 283 590 m 58 590 l 124 617 l 268 354 l 124 92 l 58 118 l 121 354 l 58 590 z "},"":{"ha":1192,"x_min":61,"x_max":1163,"o":"m 61 858 l 339 921 l 339 468 q 341 432 339 447 q 354 407 343 417 q 389 392 365 397 q 457 388 413 388 l 457 365 l 72 365 l 72 388 q 134 392 111 388 q 169 408 157 397 q 184 435 181 418 q 188 479 188 453 l 188 781 q 177 828 188 814 q 128 843 167 843 q 97 841 117 843 q 65 836 76 839 l 61 858 m 836 892 q 799 865 810 881 q 776 817 788 850 l 532 99 q 524 71 528 86 q 519 54 519 56 q 525 34 519 40 q 547 24 531 28 l 547 0 l 356 0 l 356 24 q 394 50 385 35 q 415 99 404 65 l 669 825 q 676 843 672 832 q 679 865 679 854 q 672 881 679 872 q 650 892 664 889 l 650 913 l 836 913 l 836 892 m 1142 131 q 1132 146 1136 143 q 1117 149 1128 149 l 1075 149 l 1075 67 q 1087 35 1075 43 q 1108 24 1099 26 l 1119 22 l 1119 0 l 886 0 l 886 22 l 906 24 q 928 35 918 26 q 939 67 939 44 l 939 149 l 742 149 q 719 147 725 149 q 706 135 713 144 l 706 147 q 714 192 706 167 q 740 246 722 218 q 797 335 775 300 q 831 396 819 371 q 847 439 843 421 q 851 476 851 457 q 845 492 851 488 q 836 499 839 497 l 957 585 q 958 556 958 578 q 928 435 958 507 q 835 282 897 363 q 799 233 811 251 q 785 207 788 215 l 939 207 l 939 406 q 999 446 975 426 q 1037 486 1022 465 q 1058 531 1051 507 q 1067 583 1064 554 l 1086 582 q 1078 525 1081 557 q 1075 478 1075 493 l 1075 207 l 1104 207 q 1140 217 1131 207 q 1156 239 1149 228 l 1163 236 l 1142 131 z "},"":{"ha":1192,"x_min":61,"x_max":1129,"o":"m 61 858 l 339 921 l 339 468 q 341 432 339 447 q 354 407 343 417 q 389 392 365 397 q 457 388 413 388 l 457 365 l 72 365 l 72 388 q 134 392 111 388 q 169 408 157 397 q 184 435 181 418 q 188 479 188 453 l 188 781 q 177 828 188 814 q 128 843 167 843 q 97 841 117 843 q 65 836 76 839 l 61 858 m 829 892 q 792 865 803 881 q 769 817 781 850 l 525 99 q 517 71 521 86 q 513 54 513 56 q 518 34 513 40 q 540 24 524 28 l 540 0 l 349 0 l 349 24 q 388 50 378 35 q 408 99 397 65 l 663 825 q 669 843 665 832 q 672 865 672 854 q 665 881 672 872 q 643 892 657 889 l 643 913 l 829 913 l 829 892 m 1088 -17 q 1070 -3 1081 -6 q 1043 0 1060 0 l 693 0 q 889 215 826 114 q 951 382 951 315 q 878 489 951 489 q 800 454 833 489 q 767 357 767 419 l 757 354 l 728 493 q 819 538 767 521 q 931 556 871 556 q 1057 515 1011 556 q 1103 393 1103 475 q 897 114 1103 278 l 1028 114 q 1085 126 1064 114 q 1121 161 1107 138 l 1129 157 l 1088 -17 z "},"":{"ha":1192,"x_min":8,"x_max":1163,"o":"m 454 565 q 435 488 454 525 q 383 422 417 450 q 303 376 350 393 q 201 358 257 358 q 102 369 149 358 q 8 408 56 379 l 72 546 l 81 543 q 78 528 79 536 q 76 513 76 519 q 107 444 76 471 q 185 417 138 417 q 233 427 211 417 q 272 455 256 438 q 297 495 288 472 q 306 543 306 518 q 272 633 306 600 q 175 667 239 667 q 121 661 147 667 l 281 808 l 158 808 q 108 801 128 808 q 76 768 89 794 l 68 769 l 103 925 q 113 915 110 918 q 135 913 117 913 l 401 913 q 410 882 406 893 q 421 860 414 871 l 306 754 q 411 692 368 742 q 454 565 454 642 m 843 892 q 806 865 817 881 q 783 817 794 850 l 539 99 q 531 71 535 86 q 526 54 526 56 q 532 34 526 40 q 554 24 538 28 l 554 0 l 363 0 l 363 24 q 401 50 392 35 q 422 99 411 65 l 676 825 q 683 843 679 832 q 686 865 686 854 q 678 881 686 872 q 657 892 671 889 l 657 913 l 843 913 l 843 892 m 1142 131 q 1132 146 1136 143 q 1117 149 1128 149 l 1075 149 l 1075 67 q 1087 35 1075 43 q 1108 24 1099 26 l 1119 22 l 1119 0 l 886 0 l 886 22 l 906 24 q 928 35 918 26 q 939 67 939 44 l 939 149 l 742 149 q 719 147 725 149 q 706 135 713 144 l 706 147 q 714 192 706 167 q 740 246 722 218 q 797 335 775 300 q 831 396 819 371 q 847 439 843 421 q 851 476 851 457 q 845 492 851 488 q 836 499 839 497 l 957 585 q 958 556 958 578 q 928 435 958 507 q 835 282 897 363 q 799 233 811 251 q 785 207 788 215 l 939 207 l 939 406 q 999 446 975 426 q 1037 486 1022 465 q 1058 531 1051 507 q 1067 583 1064 554 l 1086 582 q 1078 525 1081 557 q 1075 478 1075 493 l 1075 207 l 1104 207 q 1140 217 1131 207 q 1156 239 1149 228 l 1163 236 l 1142 131 z "},"":{"ha":638,"x_min":24,"x_max":617,"o":"m 478 567 q 444 476 478 510 q 363 442 411 442 q 281 476 314 442 q 247 567 247 510 q 279 662 247 625 q 363 699 311 699 q 445 662 413 699 q 478 567 478 625 m 617 -160 q 604 -153 613 -157 q 585 -149 596 -149 q 551 -163 575 -149 q 490 -195 528 -178 q 401 -227 453 -212 q 283 -242 350 -242 q 92 -181 161 -242 q 24 -11 24 -119 q 35 60 24 29 q 66 115 46 90 q 113 159 86 139 q 172 199 140 179 q 244 244 215 225 q 292 279 274 264 q 317 308 310 294 q 325 339 325 322 q 319 372 325 354 q 339 367 326 369 q 367 364 351 364 q 426 375 399 364 q 476 404 453 386 q 483 386 479 397 q 486 364 486 375 q 469 288 486 322 q 410 213 453 254 q 356 158 381 185 q 311 106 331 132 q 281 51 292 79 q 269 -7 269 24 q 299 -102 269 -68 q 386 -136 328 -136 q 469 -108 426 -136 q 535 -29 511 -81 q 550 21 547 -1 q 553 64 553 43 q 552 89 553 76 q 550 117 551 101 l 565 121 l 617 -160 z "},"":{"ha":889,"x_min":17,"x_max":872,"o":"m 511 0 l 511 38 l 529 40 q 549 57 542 43 q 556 110 556 71 q 531 215 556 167 q 465 297 506 263 q 376 350 425 331 q 279 369 326 369 l 219 149 q 214 119 217 136 q 211 89 211 101 q 224 51 211 61 q 254 39 238 42 l 267 38 l 267 0 l 17 0 l 17 38 l 28 40 q 76 79 61 49 q 103 149 92 110 l 300 818 q 304 835 303 826 q 306 853 306 844 q 286 875 306 871 l 279 876 l 279 913 l 647 913 l 647 876 l 639 875 q 618 851 618 871 q 619 835 618 844 q 624 818 621 826 l 804 117 q 822 66 813 85 q 860 40 832 47 l 872 38 l 872 0 l 511 0 m 390 792 l 300 450 q 349 444 321 450 q 403 430 376 439 q 456 407 431 421 q 496 376 481 393 l 390 792 m 565 990 l 438 1018 q 328 1053 371 1033 q 285 1110 285 1074 q 306 1172 285 1151 q 360 1192 326 1192 q 424 1170 392 1192 q 499 1108 457 1149 l 583 1028 l 565 990 z "},"":{"ha":889,"x_min":17,"x_max":872,"o":"m 511 0 l 511 38 l 529 40 q 549 57 542 43 q 556 110 556 71 q 531 215 556 167 q 465 297 506 263 q 376 350 425 331 q 279 369 326 369 l 219 149 q 214 119 217 136 q 211 89 211 101 q 224 51 211 61 q 254 39 238 42 l 267 38 l 267 0 l 17 0 l 17 38 l 28 40 q 76 79 61 49 q 103 149 92 110 l 300 818 q 304 835 303 826 q 306 853 306 844 q 286 875 306 871 l 279 876 l 279 913 l 647 913 l 647 876 l 639 875 q 618 851 618 871 q 619 835 618 844 q 624 818 621 826 l 804 117 q 822 66 813 85 q 860 40 832 47 l 872 38 l 872 0 l 511 0 m 390 792 l 300 450 q 349 444 321 450 q 403 430 376 439 q 456 407 431 421 q 496 376 481 393 l 390 792 m 608 1110 q 564 1053 608 1074 q 456 1018 519 1032 l 329 990 l 310 1028 l 394 1108 q 468 1170 436 1149 q 532 1192 500 1192 q 587 1172 565 1192 q 608 1110 608 1151 z "},"":{"ha":889,"x_min":17,"x_max":872,"o":"m 511 0 l 511 38 l 529 40 q 549 57 542 43 q 556 110 556 71 q 531 215 556 167 q 465 297 506 263 q 376 350 425 331 q 279 369 326 369 l 219 149 q 214 119 217 136 q 211 89 211 101 q 224 51 211 61 q 254 39 238 42 l 267 38 l 267 0 l 17 0 l 17 38 l 28 40 q 76 79 61 49 q 103 149 92 110 l 300 818 q 304 835 303 826 q 306 853 306 844 q 286 875 306 871 l 279 876 l 279 913 l 647 913 l 647 876 l 639 875 q 618 851 618 871 q 619 835 618 844 q 624 818 621 826 l 804 117 q 822 66 813 85 q 860 40 832 47 l 872 38 l 872 0 l 511 0 m 390 792 l 300 450 q 349 444 321 450 q 403 430 376 439 q 456 407 431 421 q 496 376 481 393 l 390 792 m 618 989 l 456 1060 l 289 989 l 260 1042 l 456 1204 l 651 1042 l 618 989 z "},"":{"ha":889,"x_min":17,"x_max":872,"o":"m 511 0 l 511 38 l 529 40 q 549 57 542 43 q 556 110 556 71 q 531 215 556 167 q 465 297 506 263 q 376 350 425 331 q 279 369 326 369 l 219 149 q 214 119 217 136 q 211 89 211 101 q 224 51 211 61 q 254 39 238 42 l 267 38 l 267 0 l 17 0 l 17 38 l 28 40 q 76 79 61 49 q 103 149 92 110 l 300 818 q 304 835 303 826 q 306 853 306 844 q 286 875 306 871 l 279 876 l 279 913 l 647 913 l 647 876 l 639 875 q 618 851 618 871 q 619 835 618 844 q 624 818 621 826 l 804 117 q 822 66 813 85 q 860 40 832 47 l 872 38 l 872 0 l 511 0 m 390 792 l 300 450 q 349 444 321 450 q 403 430 376 439 q 456 407 431 421 q 496 376 481 393 l 390 792 m 658 1144 q 642 1094 651 1118 q 617 1053 632 1071 q 580 1024 601 1035 q 529 1013 558 1013 q 494 1016 510 1013 q 458 1029 478 1019 l 413 1051 q 393 1060 408 1054 q 358 1065 378 1065 q 318 1051 333 1065 q 296 1025 303 1036 l 264 1042 q 290 1106 274 1081 q 326 1147 307 1132 q 363 1167 344 1161 q 396 1174 382 1174 q 440 1169 421 1174 q 474 1158 458 1165 l 519 1139 q 546 1127 533 1132 q 569 1122 558 1122 q 605 1133 592 1122 q 625 1160 618 1144 l 658 1144 z "},"":{"ha":889,"x_min":17,"x_max":872,"o":"m 511 0 l 511 38 l 529 40 q 549 57 542 43 q 556 110 556 71 q 531 215 556 167 q 465 297 506 263 q 376 350 425 331 q 279 369 326 369 l 219 149 q 214 119 217 136 q 211 89 211 101 q 224 51 211 61 q 254 39 238 42 l 267 38 l 267 0 l 17 0 l 17 38 l 28 40 q 76 79 61 49 q 103 149 92 110 l 300 818 q 304 835 303 826 q 306 853 306 844 q 286 875 306 871 l 279 876 l 279 913 l 647 913 l 647 876 l 639 875 q 618 851 618 871 q 619 835 618 844 q 624 818 621 826 l 804 117 q 822 66 813 85 q 860 40 832 47 l 872 38 l 872 0 l 511 0 m 390 792 l 300 450 q 349 444 321 450 q 403 430 376 439 q 456 407 431 421 q 496 376 481 393 l 390 792 m 656 1090 q 633 1022 656 1049 q 578 996 611 996 q 520 1023 543 996 q 497 1093 497 1050 q 520 1156 497 1128 q 578 1185 543 1185 q 634 1157 613 1185 q 656 1090 656 1129 m 428 1090 q 406 1022 428 1049 q 350 996 383 996 q 292 1023 315 996 q 269 1093 269 1050 q 292 1156 269 1128 q 350 1185 314 1185 q 406 1158 385 1185 q 428 1090 428 1131 z "},"":{"ha":889,"x_min":17,"x_max":872,"o":"m 511 0 l 511 38 l 529 40 q 549 57 542 43 q 556 110 556 71 q 531 215 556 167 q 465 297 506 263 q 376 350 425 331 q 279 369 326 369 l 219 149 q 214 119 217 136 q 211 89 211 101 q 224 51 211 61 q 254 39 238 42 l 267 38 l 267 0 l 17 0 l 17 38 l 28 40 q 76 79 61 49 q 103 149 92 110 l 300 818 q 304 835 303 826 q 306 853 306 844 q 286 875 306 871 l 279 876 l 279 913 l 647 913 l 647 876 l 639 875 q 618 851 618 871 q 619 835 618 844 q 624 818 621 826 l 804 117 q 822 66 813 85 q 860 40 832 47 l 872 38 l 872 0 l 511 0 m 390 792 l 300 450 q 349 444 321 450 q 403 430 376 439 q 456 407 431 421 q 496 376 481 393 l 390 792 m 599 1128 q 587 1071 599 1097 q 556 1024 575 1044 q 510 993 536 1004 q 453 982 483 982 q 396 993 422 982 q 349 1024 369 1004 q 317 1071 329 1044 q 306 1128 306 1097 q 317 1185 306 1158 q 349 1232 329 1213 q 396 1263 369 1251 q 453 1275 422 1275 q 557 1233 515 1275 q 599 1128 599 1190 m 522 1128 q 501 1178 522 1158 q 450 1199 479 1199 q 401 1177 421 1199 q 382 1128 382 1156 q 401 1079 382 1100 q 450 1058 421 1058 q 501 1078 479 1058 q 522 1128 522 1097 z "},"":{"ha":1179,"x_min":-53,"x_max":1169,"o":"m 1081 -25 q 1056 -6 1069 -12 q 1013 0 1042 0 l 475 0 l 475 38 l 486 39 q 531 65 522 43 q 540 139 540 86 l 540 454 q 394 389 458 428 q 288 303 331 350 q 222 203 244 256 q 200 99 200 151 q 210 58 200 75 q 239 39 221 42 l 251 38 l 251 0 l -53 0 l -53 38 q 11 72 -19 40 q 65 147 42 103 l 401 801 q 410 822 406 810 q 414 844 414 833 q 401 869 414 863 q 375 875 389 875 l 375 913 l 1010 913 q 1049 919 1039 913 q 1067 936 1058 925 l 1113 633 l 1094 631 q 1061 715 1083 678 q 1008 778 1039 753 q 939 818 976 804 q 861 832 901 832 q 799 813 821 832 q 778 740 778 794 l 778 579 q 840 588 811 582 q 892 607 869 594 q 926 640 914 619 q 939 693 939 661 l 939 710 l 954 711 l 992 374 l 975 368 q 914 471 960 439 q 819 503 868 503 q 799 502 811 503 q 778 499 788 501 l 778 171 q 781 132 778 149 q 794 103 785 115 q 822 86 804 92 q 871 81 840 81 q 1026 140 950 81 q 1154 324 1101 199 l 1169 319 l 1081 -25 m 540 843 l 332 433 q 413 486 364 457 q 540 535 463 515 l 540 843 z "},"":{"ha":776,"x_min":36,"x_max":765,"o":"m 565 -160 q 551 -222 565 -196 q 516 -267 538 -249 q 466 -294 494 -285 q 408 -308 438 -304 q 369 -316 381 -311 q 349 -336 357 -321 l 306 -231 q 330 -242 317 -237 q 365 -246 343 -246 q 428 -224 406 -246 q 451 -165 451 -203 q 440 -135 451 -146 q 408 -124 429 -124 q 368 -137 390 -124 q 324 -179 346 -151 l 324 -72 q 343 -78 332 -78 q 354 -74 347 -78 q 364 -69 361 -71 l 474 -12 q 338 7 399 -10 q 219 67 278 24 q 83 240 129 132 q 36 479 36 349 q 65 665 36 582 q 147 806 94 747 q 272 895 199 864 q 435 926 346 926 q 499 921 472 926 q 547 909 526 915 q 584 898 568 903 q 615 893 600 893 q 643 899 629 893 q 675 921 657 906 l 718 581 l 701 576 q 608 765 664 701 q 483 829 553 829 q 398 806 435 829 q 336 741 361 782 q 299 644 311 700 q 286 525 286 589 q 309 335 286 417 q 369 197 332 253 q 457 112 407 140 q 561 83 507 83 q 672 131 625 83 q 746 265 718 178 l 765 258 l 696 -21 q 656 -4 681 -4 q 608 -8 636 -4 q 533 -14 579 -11 l 444 -60 l 444 -74 q 458 -72 451 -72 q 474 -72 464 -72 q 539 -98 513 -72 q 565 -160 565 -124 z "},"":{"ha":742,"x_min":24,"x_max":732,"o":"m 642 -25 q 613 -3 631 -7 q 574 0 596 0 l 24 0 l 24 38 l 36 40 q 89 111 89 53 l 89 800 q 75 851 89 831 q 36 874 61 871 l 24 875 l 24 913 l 556 913 q 597 916 583 913 q 624 939 611 919 l 671 633 l 654 631 q 616 721 642 682 q 558 785 590 760 q 488 824 525 811 q 414 836 451 836 q 340 815 356 836 q 325 758 325 794 l 325 657 l 385 657 q 436 664 417 657 q 467 684 456 671 q 483 716 478 697 q 493 757 489 735 l 510 758 l 546 439 l 528 435 q 472 542 511 507 q 382 576 433 576 l 325 576 l 325 175 q 332 123 325 142 q 352 94 339 104 q 385 83 365 85 q 433 81 406 81 q 510 96 471 81 q 588 142 550 111 q 658 219 625 172 q 717 326 692 265 l 732 322 l 642 -25 m 444 990 l 317 1018 q 207 1053 250 1033 q 164 1110 164 1074 q 185 1172 164 1151 q 239 1192 206 1192 q 303 1170 271 1192 q 378 1108 336 1149 l 463 1028 l 444 990 z "},"":{"ha":742,"x_min":24,"x_max":732,"o":"m 642 -25 q 613 -3 631 -7 q 574 0 596 0 l 24 0 l 24 38 l 36 40 q 89 111 89 53 l 89 800 q 75 851 89 831 q 36 874 61 871 l 24 875 l 24 913 l 556 913 q 597 916 583 913 q 624 939 611 919 l 671 633 l 654 631 q 616 721 642 682 q 558 785 590 760 q 488 824 525 811 q 414 836 451 836 q 340 815 356 836 q 325 758 325 794 l 325 657 l 385 657 q 436 664 417 657 q 467 684 456 671 q 483 716 478 697 q 493 757 489 735 l 510 758 l 546 439 l 528 435 q 472 542 511 507 q 382 576 433 576 l 325 576 l 325 175 q 332 123 325 142 q 352 94 339 104 q 385 83 365 85 q 433 81 406 81 q 510 96 471 81 q 588 142 550 111 q 658 219 625 172 q 717 326 692 265 l 732 322 l 642 -25 m 528 1110 q 483 1053 528 1074 q 375 1018 439 1032 l 249 990 l 229 1028 l 314 1108 q 388 1170 356 1149 q 451 1192 419 1192 q 506 1172 485 1192 q 528 1110 528 1151 z "},"":{"ha":742,"x_min":24,"x_max":732,"o":"m 642 -25 q 613 -3 631 -7 q 574 0 596 0 l 24 0 l 24 38 l 36 40 q 89 111 89 53 l 89 800 q 75 851 89 831 q 36 874 61 871 l 24 875 l 24 913 l 556 913 q 597 916 583 913 q 624 939 611 919 l 671 633 l 654 631 q 616 721 642 682 q 558 785 590 760 q 488 824 525 811 q 414 836 451 836 q 340 815 356 836 q 325 758 325 794 l 325 657 l 385 657 q 436 664 417 657 q 467 684 456 671 q 483 716 478 697 q 493 757 489 735 l 510 758 l 546 439 l 528 435 q 472 542 511 507 q 382 576 433 576 l 325 576 l 325 175 q 332 123 325 142 q 352 94 339 104 q 385 83 365 85 q 433 81 406 81 q 510 96 471 81 q 588 142 550 111 q 658 219 625 172 q 717 326 692 265 l 732 322 l 642 -25 m 496 989 l 333 1060 l 167 989 l 138 1042 l 333 1204 l 529 1042 l 496 989 z "},"":{"ha":742,"x_min":24,"x_max":732,"o":"m 642 -25 q 613 -3 631 -7 q 574 0 596 0 l 24 0 l 24 38 l 36 40 q 89 111 89 53 l 89 800 q 75 851 89 831 q 36 874 61 871 l 24 875 l 24 913 l 556 913 q 597 916 583 913 q 624 939 611 919 l 671 633 l 654 631 q 616 721 642 682 q 558 785 590 760 q 488 824 525 811 q 414 836 451 836 q 340 815 356 836 q 325 758 325 794 l 325 657 l 385 657 q 436 664 417 657 q 467 684 456 671 q 483 716 478 697 q 493 757 489 735 l 510 758 l 546 439 l 528 435 q 472 542 511 507 q 382 576 433 576 l 325 576 l 325 175 q 332 123 325 142 q 352 94 339 104 q 385 83 365 85 q 433 81 406 81 q 510 96 471 81 q 588 142 550 111 q 658 219 625 172 q 717 326 692 265 l 732 322 l 642 -25 m 528 1090 q 506 1022 528 1049 q 450 996 483 996 q 392 1023 415 996 q 369 1093 369 1050 q 392 1156 369 1128 q 450 1185 415 1185 q 506 1157 485 1185 q 528 1090 528 1129 m 300 1090 q 278 1022 300 1049 q 222 996 256 996 q 165 1023 188 996 q 142 1093 142 1050 q 164 1156 142 1128 q 222 1185 186 1185 q 278 1158 257 1185 q 300 1090 300 1131 z "},"":{"ha":414,"x_min":24,"x_max":390,"o":"m 24 0 l 24 38 l 38 40 q 89 111 89 51 l 89 800 q 76 851 89 831 q 38 874 63 871 l 24 875 l 24 913 l 390 913 l 390 875 l 378 874 q 339 851 353 871 q 325 800 325 831 l 325 111 q 340 63 325 81 q 378 40 354 46 l 390 38 l 390 0 l 24 0 m 321 990 l 193 1018 q 83 1053 126 1033 q 40 1110 40 1074 q 61 1172 40 1151 q 115 1192 82 1192 q 180 1170 147 1192 q 254 1108 213 1149 l 339 1028 l 321 990 z "},"":{"ha":414,"x_min":24,"x_max":393,"o":"m 24 0 l 24 38 l 38 40 q 89 111 89 51 l 89 800 q 76 851 89 831 q 38 874 63 871 l 24 875 l 24 913 l 390 913 l 390 875 l 378 874 q 339 851 353 871 q 325 800 325 831 l 325 111 q 340 63 325 81 q 378 40 354 46 l 390 38 l 390 0 l 24 0 m 393 1110 q 349 1053 393 1074 q 240 1018 304 1032 l 114 990 l 94 1028 l 179 1108 q 253 1170 221 1149 q 317 1192 285 1192 q 372 1172 350 1192 q 393 1110 393 1151 z "},"":{"ha":414,"x_min":6,"x_max":397,"o":"m 24 0 l 24 38 l 38 40 q 89 111 89 51 l 89 800 q 76 851 89 831 q 38 874 63 871 l 24 875 l 24 913 l 390 913 l 390 875 l 378 874 q 339 851 353 871 q 325 800 325 831 l 325 111 q 340 63 325 81 q 378 40 354 46 l 390 38 l 390 0 l 24 0 m 364 989 l 201 1060 l 35 989 l 6 1042 l 201 1204 l 397 1042 l 364 989 z "},"":{"ha":414,"x_min":15,"x_max":401,"o":"m 24 0 l 24 38 l 38 40 q 89 111 89 51 l 89 800 q 76 851 89 831 q 38 874 63 871 l 24 875 l 24 913 l 390 913 l 390 875 l 378 874 q 339 851 353 871 q 325 800 325 831 l 325 111 q 340 63 325 81 q 378 40 354 46 l 390 38 l 390 0 l 24 0 m 401 1090 q 379 1022 401 1049 q 324 996 357 996 q 266 1023 289 996 q 243 1093 243 1050 q 266 1156 243 1128 q 324 1185 289 1185 q 380 1157 358 1185 q 401 1090 401 1129 m 174 1090 q 151 1022 174 1049 q 96 996 129 996 q 38 1023 61 996 q 15 1093 15 1050 q 38 1156 15 1128 q 96 1185 60 1185 q 152 1158 131 1185 q 174 1090 174 1131 z "},"":{"ha":889,"x_min":14,"x_max":847,"o":"m 847 436 q 731 108 847 215 q 390 0 614 0 l 24 0 l 24 38 l 36 40 q 89 111 89 53 l 89 546 l 14 546 l 14 624 l 89 624 l 89 800 q 74 849 89 831 q 36 874 60 867 l 24 875 l 24 913 l 411 913 q 598 878 517 913 q 735 781 679 843 q 819 631 790 718 q 847 436 847 543 m 596 403 q 580 569 596 493 q 537 702 564 646 q 474 790 510 758 q 397 822 438 822 q 338 806 350 822 q 325 756 325 789 l 325 624 l 465 624 l 465 546 l 325 546 l 325 165 q 327 137 325 150 q 338 113 329 124 q 363 97 346 103 q 410 90 379 90 q 480 108 446 90 q 540 164 514 126 q 581 260 565 201 q 596 403 596 319 z "},"":{"ha":838,"x_min":24,"x_max":814,"o":"m 571 0 l 571 38 l 585 40 q 636 111 636 51 l 636 139 q 635 176 636 160 q 628 208 633 192 q 613 243 624 225 q 585 285 603 261 l 203 782 l 203 111 q 254 40 203 53 l 267 38 l 267 0 l 24 0 l 24 38 l 36 40 q 89 111 89 53 l 89 800 q 75 851 89 831 q 36 874 61 871 l 24 875 l 24 913 l 461 913 l 461 875 l 446 874 q 429 856 429 871 q 434 841 429 849 q 443 829 439 833 l 636 596 l 636 800 q 622 851 636 832 q 583 874 608 871 l 571 875 l 571 913 l 814 913 l 814 875 l 801 874 q 763 851 776 871 q 749 800 749 831 l 749 111 q 763 63 749 81 q 801 40 778 46 l 814 38 l 814 0 l 571 0 m 628 1144 q 611 1094 621 1118 q 586 1053 601 1071 q 549 1024 571 1035 q 499 1013 528 1013 q 463 1016 479 1013 q 428 1029 447 1019 l 382 1051 q 363 1060 378 1054 q 328 1065 347 1065 q 288 1051 303 1065 q 265 1025 272 1036 l 233 1042 q 260 1106 243 1081 q 295 1147 276 1132 q 333 1167 314 1161 q 365 1174 351 1174 q 409 1169 390 1174 q 443 1158 428 1165 l 489 1139 q 515 1127 503 1132 q 539 1122 528 1122 q 574 1133 561 1122 q 594 1160 588 1144 l 628 1144 z "},"":{"ha":914,"x_min":31,"x_max":883,"o":"m 883 454 q 851 260 883 347 q 762 113 819 174 q 624 19 704 51 q 449 -14 544 -14 q 278 19 354 -14 q 146 112 201 51 q 60 260 90 172 q 31 456 31 347 q 64 649 31 563 q 156 798 97 736 q 295 893 215 860 q 467 926 375 926 q 633 892 557 926 q 765 797 710 858 q 852 647 821 735 q 883 454 883 560 m 632 417 q 583 725 632 617 q 444 833 533 833 q 319 755 357 833 q 282 526 282 676 q 333 196 282 313 q 483 79 385 79 q 599 165 567 79 q 632 417 632 250 m 569 990 l 442 1018 q 332 1053 375 1033 q 289 1110 289 1074 q 310 1172 289 1151 q 364 1192 331 1192 q 428 1170 396 1192 q 503 1108 461 1149 l 588 1028 l 569 990 z "},"":{"ha":914,"x_min":31,"x_max":883,"o":"m 883 454 q 851 260 883 347 q 762 113 819 174 q 624 19 704 51 q 449 -14 544 -14 q 278 19 354 -14 q 146 112 201 51 q 60 260 90 172 q 31 456 31 347 q 64 649 31 563 q 156 798 97 736 q 295 893 215 860 q 467 926 375 926 q 633 892 557 926 q 765 797 710 858 q 852 647 821 735 q 883 454 883 560 m 632 417 q 583 725 632 617 q 444 833 533 833 q 319 755 357 833 q 282 526 282 676 q 333 196 282 313 q 483 79 385 79 q 599 165 567 79 q 632 417 632 250 m 601 1110 q 557 1053 601 1074 q 449 1018 513 1032 l 322 990 l 303 1028 l 388 1108 q 461 1170 429 1149 q 525 1192 493 1192 q 580 1172 558 1192 q 601 1110 601 1151 z "},"":{"ha":914,"x_min":31,"x_max":883,"o":"m 883 454 q 851 260 883 347 q 762 113 819 174 q 624 19 704 51 q 449 -14 544 -14 q 278 19 354 -14 q 146 112 201 51 q 60 260 90 172 q 31 456 31 347 q 64 649 31 563 q 156 798 97 736 q 295 893 215 860 q 467 926 375 926 q 633 892 557 926 q 765 797 710 858 q 852 647 821 735 q 883 454 883 560 m 632 417 q 583 725 632 617 q 444 833 533 833 q 319 755 357 833 q 282 526 282 676 q 333 196 282 313 q 483 79 385 79 q 599 165 567 79 q 632 417 632 250 m 613 989 l 450 1060 l 283 989 l 254 1042 l 450 1204 l 646 1042 l 613 989 z "},"":{"ha":914,"x_min":31,"x_max":883,"o":"m 883 454 q 851 260 883 347 q 762 113 819 174 q 624 19 704 51 q 449 -14 544 -14 q 278 19 354 -14 q 146 112 201 51 q 60 260 90 172 q 31 456 31 347 q 64 649 31 563 q 156 798 97 736 q 295 893 215 860 q 467 926 375 926 q 633 892 557 926 q 765 797 710 858 q 852 647 821 735 q 883 454 883 560 m 632 417 q 583 725 632 617 q 444 833 533 833 q 319 755 357 833 q 282 526 282 676 q 333 196 282 313 q 483 79 385 79 q 599 165 567 79 q 632 417 632 250 m 638 1144 q 621 1094 631 1118 q 596 1053 611 1071 q 559 1024 581 1035 q 508 1013 538 1013 q 473 1016 489 1013 q 438 1029 457 1019 l 392 1051 q 372 1060 388 1054 q 338 1065 357 1065 q 297 1051 313 1065 q 275 1025 282 1036 l 243 1042 q 269 1106 253 1081 q 305 1147 286 1132 q 342 1167 324 1161 q 375 1174 361 1174 q 419 1169 400 1174 q 453 1158 438 1165 l 499 1139 q 525 1127 513 1132 q 549 1122 538 1122 q 584 1133 571 1122 q 604 1160 597 1144 l 638 1144 z "},"":{"ha":914,"x_min":31,"x_max":883,"o":"m 883 454 q 851 260 883 347 q 762 113 819 174 q 624 19 704 51 q 449 -14 544 -14 q 278 19 354 -14 q 146 112 201 51 q 60 260 90 172 q 31 456 31 347 q 64 649 31 563 q 156 798 97 736 q 295 893 215 860 q 467 926 375 926 q 633 892 557 926 q 765 797 710 858 q 852 647 821 735 q 883 454 883 560 m 632 417 q 583 725 632 617 q 444 833 533 833 q 319 755 357 833 q 282 526 282 676 q 333 196 282 313 q 483 79 385 79 q 599 165 567 79 q 632 417 632 250 m 650 1090 q 628 1022 650 1049 q 572 996 606 996 q 515 1023 538 996 q 492 1093 492 1050 q 515 1156 492 1128 q 572 1185 538 1185 q 628 1157 607 1185 q 650 1090 650 1129 m 422 1090 q 400 1022 422 1049 q 344 996 378 996 q 287 1023 310 996 q 264 1093 264 1050 q 286 1156 264 1128 q 344 1185 308 1185 q 401 1158 379 1185 q 422 1090 422 1131 z "},"":{"ha":776,"x_min":82,"x_max":694,"o":"m 635 293 q 655 279 646 282 q 676 276 664 276 l 690 263 l 579 153 l 567 165 q 568 179 568 171 q 553 211 568 199 l 388 378 l 222 211 q 207 181 207 196 q 210 165 207 174 l 196 153 l 86 263 l 99 276 q 121 279 111 276 q 142 293 131 282 l 307 458 l 142 624 q 125 636 132 633 q 110 639 118 639 q 94 638 100 639 l 82 650 l 193 761 q 200 753 197 756 q 204 750 203 751 q 206 750 206 749 q 208 731 206 743 q 222 704 210 718 l 388 539 l 553 704 q 568 725 565 717 q 571 747 571 733 l 583 761 l 694 650 l 681 638 q 667 639 675 639 q 635 624 647 639 l 469 458 l 635 293 z "},"":{"ha":914,"x_min":31,"x_max":883,"o":"m 883 454 q 851 260 883 347 q 762 113 819 174 q 624 19 704 51 q 449 -14 544 -14 q 401 -11 424 -14 q 354 -4 378 -8 l 328 -92 q 325 -103 326 -94 q 324 -115 324 -111 q 331 -132 324 -126 q 347 -140 339 -137 l 347 -160 l 194 -160 l 194 -140 q 224 -122 214 -133 q 240 -92 233 -111 l 275 21 q 97 181 163 69 q 31 456 31 293 q 64 649 31 563 q 156 798 97 736 q 295 893 215 860 q 467 926 375 926 q 546 918 506 926 l 565 982 q 568 993 567 986 q 569 1007 569 1000 q 561 1021 569 1017 q 546 1026 553 1025 l 546 1044 l 700 1044 l 700 1026 q 670 1009 681 1022 q 651 968 660 996 l 629 894 q 733 828 686 869 q 814 730 781 786 q 865 604 847 674 q 883 454 883 535 m 650 417 q 632 611 650 526 q 582 749 614 696 l 390 107 q 435 85 411 92 q 486 79 458 79 q 615 165 579 79 q 650 417 650 250 m 514 818 q 480 831 497 828 q 443 833 463 833 q 306 755 347 833 q 264 526 264 676 q 280 330 264 415 q 326 186 296 244 l 514 818 z "},"":{"ha":821,"x_min":36,"x_max":806,"o":"m 793 874 q 760 866 774 871 q 740 850 747 861 q 729 821 732 839 q 726 775 726 803 q 727 749 726 768 q 728 722 728 729 l 740 367 q 740 355 740 364 q 741 335 740 346 q 742 315 742 324 q 742 303 742 306 q 661 66 742 144 q 401 -12 581 -12 q 253 7 318 -12 q 150 63 189 26 q 108 114 122 88 q 86 167 93 140 q 78 220 79 193 q 76 274 76 247 q 76 303 76 289 q 78 332 76 317 l 92 724 q 94 763 93 743 q 94 796 94 783 q 81 851 94 832 q 44 874 67 871 l 36 875 l 36 913 l 407 913 l 407 875 l 396 874 q 366 864 378 871 q 347 840 354 857 q 337 795 340 824 q 332 722 333 767 l 315 364 q 315 351 315 361 q 315 327 315 340 q 314 299 314 314 q 314 272 314 283 q 350 133 314 182 q 468 85 386 85 q 550 106 513 85 q 607 168 588 128 q 623 228 618 192 q 628 307 628 264 q 628 322 628 311 q 627 344 628 332 q 626 366 626 356 q 626 381 626 376 l 614 713 q 595 826 611 783 q 543 874 579 869 l 531 875 l 531 913 l 806 913 l 806 875 l 793 874 m 538 990 l 410 1018 q 300 1053 343 1033 q 257 1110 257 1074 q 278 1172 257 1151 q 332 1192 299 1192 q 397 1170 364 1192 q 471 1108 429 1149 l 556 1028 l 538 990 z "},"":{"ha":821,"x_min":36,"x_max":806,"o":"m 793 874 q 760 866 774 871 q 740 850 747 861 q 729 821 732 839 q 726 775 726 803 q 727 749 726 768 q 728 722 728 729 l 740 367 q 740 355 740 364 q 741 335 740 346 q 742 315 742 324 q 742 303 742 306 q 661 66 742 144 q 401 -12 581 -12 q 253 7 318 -12 q 150 63 189 26 q 108 114 122 88 q 86 167 93 140 q 78 220 79 193 q 76 274 76 247 q 76 303 76 289 q 78 332 76 317 l 92 724 q 94 763 93 743 q 94 796 94 783 q 81 851 94 832 q 44 874 67 871 l 36 875 l 36 913 l 407 913 l 407 875 l 396 874 q 366 864 378 871 q 347 840 354 857 q 337 795 340 824 q 332 722 333 767 l 315 364 q 315 351 315 361 q 315 327 315 340 q 314 299 314 314 q 314 272 314 283 q 350 133 314 182 q 468 85 386 85 q 550 106 513 85 q 607 168 588 128 q 623 228 618 192 q 628 307 628 264 q 628 322 628 311 q 627 344 628 332 q 626 366 626 356 q 626 381 626 376 l 614 713 q 595 826 611 783 q 543 874 579 869 l 531 875 l 531 913 l 806 913 l 806 875 l 793 874 m 601 1110 q 557 1053 601 1074 q 449 1018 513 1032 l 322 990 l 303 1028 l 388 1108 q 461 1170 429 1149 q 525 1192 493 1192 q 580 1172 558 1192 q 601 1110 601 1151 z "},"":{"ha":821,"x_min":36,"x_max":806,"o":"m 793 874 q 760 866 774 871 q 740 850 747 861 q 729 821 732 839 q 726 775 726 803 q 727 749 726 768 q 728 722 728 729 l 740 367 q 740 355 740 364 q 741 335 740 346 q 742 315 742 324 q 742 303 742 306 q 661 66 742 144 q 401 -12 581 -12 q 253 7 318 -12 q 150 63 189 26 q 108 114 122 88 q 86 167 93 140 q 78 220 79 193 q 76 274 76 247 q 76 303 76 289 q 78 332 76 317 l 92 724 q 94 763 93 743 q 94 796 94 783 q 81 851 94 832 q 44 874 67 871 l 36 875 l 36 913 l 407 913 l 407 875 l 396 874 q 366 864 378 871 q 347 840 354 857 q 337 795 340 824 q 332 722 333 767 l 315 364 q 315 351 315 361 q 315 327 315 340 q 314 299 314 314 q 314 272 314 283 q 350 133 314 182 q 468 85 386 85 q 550 106 513 85 q 607 168 588 128 q 623 228 618 192 q 628 307 628 264 q 628 322 628 311 q 627 344 628 332 q 626 366 626 356 q 626 381 626 376 l 614 713 q 595 826 611 783 q 543 874 579 869 l 531 875 l 531 913 l 806 913 l 806 875 l 793 874 m 593 989 l 431 1060 l 264 989 l 235 1042 l 431 1204 l 626 1042 l 593 989 z "},"":{"ha":821,"x_min":36,"x_max":806,"o":"m 793 874 q 760 866 774 871 q 740 850 747 861 q 729 821 732 839 q 726 775 726 803 q 727 749 726 768 q 728 722 728 729 l 740 367 q 740 355 740 364 q 741 335 740 346 q 742 315 742 324 q 742 303 742 306 q 661 66 742 144 q 401 -12 581 -12 q 253 7 318 -12 q 150 63 189 26 q 108 114 122 88 q 86 167 93 140 q 78 220 79 193 q 76 274 76 247 q 76 303 76 289 q 78 332 76 317 l 92 724 q 94 763 93 743 q 94 796 94 783 q 81 851 94 832 q 44 874 67 871 l 36 875 l 36 913 l 407 913 l 407 875 l 396 874 q 366 864 378 871 q 347 840 354 857 q 337 795 340 824 q 332 722 333 767 l 315 364 q 315 351 315 361 q 315 327 315 340 q 314 299 314 314 q 314 272 314 283 q 350 133 314 182 q 468 85 386 85 q 550 106 513 85 q 607 168 588 128 q 623 228 618 192 q 628 307 628 264 q 628 322 628 311 q 627 344 628 332 q 626 366 626 356 q 626 381 626 376 l 614 713 q 595 826 611 783 q 543 874 579 869 l 531 875 l 531 913 l 806 913 l 806 875 l 793 874 m 628 1090 q 606 1022 628 1049 q 550 996 583 996 q 492 1023 515 996 q 469 1093 469 1050 q 492 1156 469 1128 q 550 1185 515 1185 q 606 1157 585 1185 q 628 1090 628 1129 m 400 1090 q 378 1022 400 1049 q 322 996 356 996 q 265 1023 288 996 q 242 1093 242 1050 q 264 1156 242 1128 q 322 1185 286 1185 q 378 1158 357 1185 q 400 1090 400 1131 z "},"":{"ha":776,"x_min":-3,"x_max":781,"o":"m 769 872 q 724 845 742 865 q 679 772 707 825 l 506 435 l 506 111 q 558 40 506 51 l 571 38 l 571 0 l 204 0 l 204 38 l 217 40 q 269 111 269 53 l 269 410 l 78 797 q 4 872 49 854 l -3 875 l -3 913 l 396 913 l 396 875 l 386 872 q 336 829 336 864 q 340 803 336 817 q 350 779 344 790 l 458 543 l 563 758 q 581 798 572 778 q 589 833 589 818 q 576 861 589 851 q 550 874 564 871 l 543 875 l 543 913 l 781 913 l 781 875 l 769 872 m 597 1110 q 553 1053 597 1074 q 444 1018 508 1032 l 318 990 l 299 1028 l 383 1108 q 457 1170 425 1149 q 521 1192 489 1192 q 576 1172 554 1192 q 597 1110 597 1151 z "},"":{"ha":756,"x_min":24,"x_max":742,"o":"m 742 593 q 639 401 742 476 q 326 278 536 326 l 326 111 q 379 40 326 53 l 392 38 l 392 0 l 24 0 l 24 38 l 36 40 q 89 111 89 53 l 89 800 q 74 849 89 831 q 36 874 60 867 l 24 875 l 24 913 l 392 913 l 392 875 l 379 874 q 341 849 356 867 q 326 800 326 831 l 326 749 l 424 749 q 558 745 499 749 q 658 727 617 742 q 720 681 699 713 q 742 593 742 649 m 514 563 q 483 642 514 615 q 404 668 453 668 q 343 649 360 668 q 326 579 326 629 l 326 358 q 410 394 375 371 q 469 447 446 418 q 503 506 492 475 q 514 563 514 536 z "},"":{"ha":753,"x_min":-69,"x_max":717,"o":"m 717 304 q 694 173 717 232 q 635 72 672 114 q 546 8 597 31 q 436 -14 494 -14 q 344 0 386 -14 l 374 192 l 388 190 q 406 103 389 126 q 456 79 424 79 q 483 86 468 79 q 510 110 497 93 q 531 155 522 126 q 539 228 539 183 q 530 284 539 254 q 505 342 521 314 q 467 393 489 369 q 418 431 444 417 q 376 454 393 444 q 350 475 360 464 q 336 499 340 486 q 332 533 332 513 q 347 581 332 561 q 392 631 363 601 q 424 681 414 653 q 435 740 435 708 q 419 811 435 785 q 382 838 403 838 q 342 822 357 838 q 319 778 328 806 q 308 710 311 750 q 306 625 306 671 l 306 99 q 294 -51 306 15 q 253 -161 282 -117 q 178 -229 225 -206 q 60 -253 131 -253 q -5 -248 26 -253 q -69 -229 -36 -243 l -60 -82 l -42 -82 q -24 -145 -39 -126 q 15 -164 -10 -164 q 54 -154 39 -164 q 78 -119 69 -144 q 91 -49 88 -94 q 94 67 94 -4 l 94 425 l 71 425 q 8 396 33 425 l 26 542 q 39 524 29 535 q 72 514 49 514 l 94 514 l 94 610 q 116 749 94 690 q 176 848 138 808 q 267 907 214 888 q 385 926 321 926 q 549 874 494 926 q 603 744 603 822 q 595 699 603 724 q 571 649 588 674 q 527 601 554 624 q 461 563 500 578 q 576 522 528 550 q 656 459 625 494 q 702 383 688 424 q 717 304 717 343 z "},"":{"ha":688,"x_min":35,"x_max":678,"o":"m 449 0 q 423 48 429 29 q 413 99 417 67 q 321 13 374 40 q 214 -14 268 -14 q 140 1 174 -14 q 83 41 107 15 q 47 102 60 67 q 35 178 35 138 q 62 278 35 235 q 138 356 89 322 q 254 414 186 389 q 406 458 322 439 l 406 482 q 401 534 406 511 q 386 573 397 557 q 353 597 375 589 q 296 606 331 606 q 242 595 271 606 q 187 564 214 585 q 136 513 160 543 q 99 440 113 482 l 85 442 l 107 685 q 126 663 117 669 q 150 657 136 657 q 186 663 165 657 q 235 678 207 669 q 301 692 264 686 q 388 699 339 699 q 514 678 468 699 q 582 625 560 658 q 610 548 604 592 q 615 458 615 504 l 615 167 q 627 72 615 106 q 663 38 639 38 l 678 38 l 678 0 l 449 0 m 406 379 q 328 349 360 368 q 278 306 297 329 q 249 257 258 282 q 240 211 240 232 q 259 137 240 161 q 306 113 278 113 q 380 171 354 113 q 406 347 406 229 l 406 379 m 463 767 l 335 794 q 225 830 268 810 q 182 886 182 850 q 203 948 182 928 q 257 968 224 968 q 322 947 289 968 q 396 885 354 925 l 481 804 l 463 767 z "},"":{"ha":688,"x_min":35,"x_max":678,"o":"m 449 0 q 423 48 429 29 q 413 99 417 67 q 321 13 374 40 q 214 -14 268 -14 q 140 1 174 -14 q 83 41 107 15 q 47 102 60 67 q 35 178 35 138 q 62 278 35 235 q 138 356 89 322 q 254 414 186 389 q 406 458 322 439 l 406 482 q 401 534 406 511 q 386 573 397 557 q 353 597 375 589 q 296 606 331 606 q 242 595 271 606 q 187 564 214 585 q 136 513 160 543 q 99 440 113 482 l 85 442 l 107 685 q 126 663 117 669 q 150 657 136 657 q 186 663 165 657 q 235 678 207 669 q 301 692 264 686 q 388 699 339 699 q 514 678 468 699 q 582 625 560 658 q 610 548 604 592 q 615 458 615 504 l 615 167 q 627 72 615 106 q 663 38 639 38 l 678 38 l 678 0 l 449 0 m 406 379 q 328 349 360 368 q 278 306 297 329 q 249 257 258 282 q 240 211 240 232 q 259 137 240 161 q 306 113 278 113 q 380 171 354 113 q 406 347 406 229 l 406 379 m 535 886 q 490 829 535 850 q 382 794 446 808 l 256 767 l 236 804 l 321 885 q 394 947 363 925 q 458 968 426 968 q 513 948 492 968 q 535 886 535 928 z "},"":{"ha":688,"x_min":35,"x_max":678,"o":"m 449 0 q 423 48 429 29 q 413 99 417 67 q 321 13 374 40 q 214 -14 268 -14 q 140 1 174 -14 q 83 41 107 15 q 47 102 60 67 q 35 178 35 138 q 62 278 35 235 q 138 356 89 322 q 254 414 186 389 q 406 458 322 439 l 406 482 q 401 534 406 511 q 386 573 397 557 q 353 597 375 589 q 296 606 331 606 q 242 595 271 606 q 187 564 214 585 q 136 513 160 543 q 99 440 113 482 l 85 442 l 107 685 q 126 663 117 669 q 150 657 136 657 q 186 663 165 657 q 235 678 207 669 q 301 692 264 686 q 388 699 339 699 q 514 678 468 699 q 582 625 560 658 q 610 548 604 592 q 615 458 615 504 l 615 167 q 627 72 615 106 q 663 38 639 38 l 678 38 l 678 0 l 449 0 m 406 379 q 328 349 360 368 q 278 306 297 329 q 249 257 258 282 q 240 211 240 232 q 259 137 240 161 q 306 113 278 113 q 380 171 354 113 q 406 347 406 229 l 406 379 m 511 765 l 349 836 l 182 765 l 153 818 l 349 981 l 544 818 l 511 765 z "},"":{"ha":688,"x_min":35,"x_max":678,"o":"m 449 0 q 423 48 429 29 q 413 99 417 67 q 321 13 374 40 q 214 -14 268 -14 q 140 1 174 -14 q 83 41 107 15 q 47 102 60 67 q 35 178 35 138 q 62 278 35 235 q 138 356 89 322 q 254 414 186 389 q 406 458 322 439 l 406 482 q 401 534 406 511 q 386 573 397 557 q 353 597 375 589 q 296 606 331 606 q 242 595 271 606 q 187 564 214 585 q 136 513 160 543 q 99 440 113 482 l 85 442 l 107 685 q 126 663 117 669 q 150 657 136 657 q 186 663 165 657 q 235 678 207 669 q 301 692 264 686 q 388 699 339 699 q 514 678 468 699 q 582 625 560 658 q 610 548 604 592 q 615 458 615 504 l 615 167 q 627 72 615 106 q 663 38 639 38 l 678 38 l 678 0 l 449 0 m 406 379 q 328 349 360 368 q 278 306 297 329 q 249 257 258 282 q 240 211 240 232 q 259 137 240 161 q 306 113 278 113 q 380 171 354 113 q 406 347 406 229 l 406 379 m 556 921 q 539 871 549 894 q 514 829 529 847 q 477 800 499 811 q 426 789 456 789 q 391 792 407 789 q 356 806 375 796 l 310 828 q 290 836 306 831 q 256 842 275 842 q 215 827 231 842 q 193 801 200 813 l 161 818 q 188 883 171 857 q 223 923 204 908 q 260 944 242 938 q 293 950 279 950 q 337 946 318 950 q 371 935 356 942 l 417 915 q 443 903 431 908 q 467 899 456 899 q 502 910 489 899 q 522 936 515 921 l 556 921 z "},"":{"ha":688,"x_min":35,"x_max":678,"o":"m 449 0 q 423 48 429 29 q 413 99 417 67 q 321 13 374 40 q 214 -14 268 -14 q 140 1 174 -14 q 83 41 107 15 q 47 102 60 67 q 35 178 35 138 q 62 278 35 235 q 138 356 89 322 q 254 414 186 389 q 406 458 322 439 l 406 482 q 401 534 406 511 q 386 573 397 557 q 353 597 375 589 q 296 606 331 606 q 242 595 271 606 q 187 564 214 585 q 136 513 160 543 q 99 440 113 482 l 85 442 l 107 685 q 126 663 117 669 q 150 657 136 657 q 186 663 165 657 q 235 678 207 669 q 301 692 264 686 q 388 699 339 699 q 514 678 468 699 q 582 625 560 658 q 610 548 604 592 q 615 458 615 504 l 615 167 q 627 72 615 106 q 663 38 639 38 l 678 38 l 678 0 l 449 0 m 406 379 q 328 349 360 368 q 278 306 297 329 q 249 257 258 282 q 240 211 240 232 q 259 137 240 161 q 306 113 278 113 q 380 171 354 113 q 406 347 406 229 l 406 379 m 549 868 q 526 800 549 826 q 471 774 504 774 q 413 801 436 774 q 390 871 390 828 q 413 934 390 906 q 471 963 436 963 q 527 935 506 963 q 549 868 549 907 m 321 868 q 299 800 321 826 q 243 774 276 774 q 185 801 208 774 q 163 871 163 828 q 185 934 163 906 q 243 963 207 963 q 299 935 278 963 q 321 868 321 908 z "},"":{"ha":688,"x_min":35,"x_max":678,"o":"m 449 0 q 423 48 429 29 q 413 99 417 67 q 321 13 374 40 q 214 -14 268 -14 q 140 1 174 -14 q 83 41 107 15 q 47 102 60 67 q 35 178 35 138 q 62 278 35 235 q 138 356 89 322 q 254 414 186 389 q 406 458 322 439 l 406 482 q 401 534 406 511 q 386 573 397 557 q 353 597 375 589 q 296 606 331 606 q 242 595 271 606 q 187 564 214 585 q 136 513 160 543 q 99 440 113 482 l 85 442 l 107 685 q 126 663 117 669 q 150 657 136 657 q 186 663 165 657 q 235 678 207 669 q 301 692 264 686 q 388 699 339 699 q 514 678 468 699 q 582 625 560 658 q 610 548 604 592 q 615 458 615 504 l 615 167 q 627 72 615 106 q 663 38 639 38 l 678 38 l 678 0 l 449 0 m 406 379 q 328 349 360 368 q 278 306 297 329 q 249 257 258 282 q 240 211 240 232 q 259 137 240 161 q 306 113 278 113 q 380 171 354 113 q 406 347 406 229 l 406 379 m 514 904 q 502 847 514 874 q 471 801 490 821 q 425 769 451 781 q 368 758 399 758 q 311 769 338 758 q 265 801 285 781 q 233 847 244 821 q 221 904 221 874 q 233 962 221 935 q 265 1008 244 989 q 311 1040 285 1028 q 368 1051 338 1051 q 472 1009 431 1051 q 514 904 514 967 m 438 904 q 416 955 438 935 q 365 975 394 975 q 317 953 336 975 q 297 904 297 932 q 317 856 297 876 q 365 835 336 835 q 416 854 394 835 q 438 904 438 874 z "},"":{"ha":1082,"x_min":35,"x_max":1065,"o":"m 651 326 q 667 230 653 275 q 705 151 681 185 q 763 99 729 118 q 835 81 796 81 q 944 123 896 81 q 1028 253 993 165 l 1044 247 l 975 -15 q 936 -1 957 -1 q 888 -7 917 -1 q 803 -12 858 -12 q 600 30 679 -12 q 476 158 521 72 q 381 31 439 75 q 229 -14 324 -14 q 152 -1 188 -14 q 90 34 117 11 q 49 89 64 57 q 35 160 35 121 q 135 344 35 269 q 424 449 235 419 l 424 500 q 310 601 424 601 q 194 563 250 601 q 104 433 138 525 l 88 435 l 108 685 q 126 665 117 675 q 146 656 135 656 q 185 663 161 656 q 240 677 208 669 q 312 692 272 685 q 399 699 351 699 q 503 678 461 699 q 568 625 546 658 q 666 681 611 663 q 765 700 721 700 q 885 678 832 700 q 978 620 939 657 q 1039 535 1017 583 q 1065 435 1061 488 l 651 326 m 844 475 q 822 578 844 544 q 764 611 799 611 q 685 560 715 611 q 651 414 654 510 l 843 460 q 844 467 843 464 q 844 475 844 471 m 424 372 q 355 351 386 368 q 302 310 324 335 q 268 256 281 286 q 256 194 256 225 q 275 132 256 154 q 318 110 294 110 q 399 180 376 110 q 424 372 422 250 z "},"":{"ha":628,"x_min":29,"x_max":628,"o":"m 489 -153 q 475 -215 489 -189 q 440 -260 461 -242 q 390 -287 418 -278 q 332 -301 361 -297 q 292 -309 304 -304 q 272 -329 281 -314 l 229 -224 q 253 -235 240 -231 q 289 -239 267 -239 q 352 -217 329 -239 q 375 -158 375 -196 q 364 -128 375 -139 q 332 -117 353 -117 q 292 -131 314 -117 q 247 -172 269 -144 l 247 -65 q 267 -71 256 -71 q 278 -67 271 -71 q 288 -62 285 -64 l 382 -14 q 220 22 288 -10 q 110 104 153 54 q 49 216 68 154 q 29 342 29 278 q 55 492 29 426 q 126 604 81 558 q 231 674 171 650 q 358 699 290 699 q 442 690 403 699 q 504 682 482 682 q 529 692 521 682 q 544 713 538 701 l 589 443 l 572 438 q 503 567 544 522 q 413 611 461 611 q 349 594 378 611 q 300 545 321 576 q 268 470 279 514 q 257 375 257 426 q 269 260 257 314 q 306 167 282 207 q 361 106 329 128 q 433 83 393 83 q 495 95 468 83 q 543 126 522 107 q 581 169 564 144 q 613 222 597 194 l 628 217 l 556 -15 q 535 -3 543 -6 q 521 -1 528 -1 q 467 -8 493 -1 q 422 -25 440 -15 l 368 -53 l 368 -67 q 381 -65 375 -65 q 397 -65 388 -65 q 463 -91 436 -65 q 489 -153 489 -117 z "},"":{"ha":679,"x_min":29,"x_max":663,"o":"m 592 -12 q 574 1 585 -6 q 551 8 563 8 q 491 -3 529 8 q 394 -14 453 -14 q 234 15 303 -14 q 120 91 165 43 q 52 203 75 139 q 29 338 29 267 q 57 492 29 425 q 132 606 85 560 q 241 675 179 651 q 372 699 303 699 q 572 622 492 699 q 634 530 617 581 q 663 419 651 479 l 263 313 q 282 219 267 261 q 322 147 297 176 q 376 100 346 117 q 442 83 407 83 q 644 274 569 83 l 663 269 l 592 -12 m 444 460 q 417 572 442 535 q 358 610 393 610 q 283 560 310 610 q 256 422 256 510 l 256 404 l 444 460 m 454 767 l 326 794 q 217 830 260 810 q 174 886 174 850 q 194 948 174 928 q 249 968 215 968 q 313 947 281 968 q 388 885 346 925 l 472 804 l 454 767 z "},"":{"ha":679,"x_min":29,"x_max":663,"o":"m 592 -12 q 574 1 585 -6 q 551 8 563 8 q 491 -3 529 8 q 394 -14 453 -14 q 234 15 303 -14 q 120 91 165 43 q 52 203 75 139 q 29 338 29 267 q 57 492 29 425 q 132 606 85 560 q 241 675 179 651 q 372 699 303 699 q 572 622 492 699 q 634 530 617 581 q 663 419 651 479 l 263 313 q 282 219 267 261 q 322 147 297 176 q 376 100 346 117 q 442 83 407 83 q 644 274 569 83 l 663 269 l 592 -12 m 444 460 q 417 572 442 535 q 358 610 393 610 q 283 560 310 610 q 256 422 256 510 l 256 404 l 444 460 m 517 886 q 472 829 517 850 q 364 794 428 808 l 238 767 l 218 804 l 303 885 q 376 947 344 925 q 440 968 408 968 q 495 948 474 968 q 517 886 517 928 z "},"":{"ha":679,"x_min":29,"x_max":663,"o":"m 592 -12 q 574 1 585 -6 q 551 8 563 8 q 491 -3 529 8 q 394 -14 453 -14 q 234 15 303 -14 q 120 91 165 43 q 52 203 75 139 q 29 338 29 267 q 57 492 29 425 q 132 606 85 560 q 241 675 179 651 q 372 699 303 699 q 572 622 492 699 q 634 530 617 581 q 663 419 651 479 l 263 313 q 282 219 267 261 q 322 147 297 176 q 376 100 346 117 q 442 83 407 83 q 644 274 569 83 l 663 269 l 592 -12 m 444 460 q 417 572 442 535 q 358 610 393 610 q 283 560 310 610 q 256 422 256 510 l 256 404 l 444 460 m 500 765 l 338 836 l 171 765 l 142 818 l 338 981 l 533 818 l 500 765 z "},"":{"ha":679,"x_min":29,"x_max":663,"o":"m 592 -12 q 574 1 585 -6 q 551 8 563 8 q 491 -3 529 8 q 394 -14 453 -14 q 234 15 303 -14 q 120 91 165 43 q 52 203 75 139 q 29 338 29 267 q 57 492 29 425 q 132 606 85 560 q 241 675 179 651 q 372 699 303 699 q 572 622 492 699 q 634 530 617 581 q 663 419 651 479 l 263 313 q 282 219 267 261 q 322 147 297 176 q 376 100 346 117 q 442 83 407 83 q 644 274 569 83 l 663 269 l 592 -12 m 444 460 q 417 572 442 535 q 358 610 393 610 q 283 560 310 610 q 256 422 256 510 l 256 404 l 444 460 m 532 867 q 510 799 532 825 q 454 772 488 772 q 397 799 419 772 q 374 869 374 826 q 397 933 374 904 q 454 961 419 961 q 510 933 489 961 q 532 867 532 906 m 304 867 q 282 799 304 825 q 226 772 260 772 q 169 799 192 772 q 146 869 146 826 q 168 933 146 904 q 226 961 190 961 q 283 934 261 961 q 304 867 304 907 z "},"":{"ha":413,"x_min":10,"x_max":376,"o":"m 40 0 l 40 38 l 53 40 q 91 63 76 46 q 106 111 106 79 l 106 567 q 94 624 106 600 q 47 649 82 649 l 25 649 l 25 685 l 315 699 l 315 111 q 364 40 315 51 l 376 38 l 376 0 l 40 0 m 290 767 l 163 794 q 53 830 96 810 q 10 886 10 850 q 31 948 10 928 q 85 968 51 968 q 149 947 117 968 q 224 885 182 925 l 308 804 l 290 767 z "},"":{"ha":413,"x_min":25,"x_max":376,"o":"m 40 0 l 40 38 l 53 40 q 91 63 76 46 q 106 111 106 79 l 106 567 q 94 624 106 600 q 47 649 82 649 l 25 649 l 25 685 l 315 699 l 315 111 q 364 40 315 51 l 376 38 l 376 0 l 40 0 m 336 886 q 292 829 336 850 q 183 794 247 808 l 57 767 l 38 804 l 122 885 q 196 947 164 925 q 260 968 228 968 q 315 948 293 968 q 336 886 336 928 z "},"":{"ha":413,"x_min":-7,"x_max":385,"o":"m 40 0 l 40 38 l 53 40 q 91 63 76 46 q 106 111 106 79 l 106 567 q 94 624 106 600 q 47 649 82 649 l 25 649 l 25 685 l 315 699 l 315 111 q 364 40 315 51 l 376 38 l 376 0 l 40 0 m 351 765 l 189 836 l 22 765 l -7 818 l 189 981 l 385 818 l 351 765 z "},"":{"ha":413,"x_min":-7,"x_max":379,"o":"m 40 0 l 40 38 l 53 40 q 91 63 76 46 q 106 111 106 79 l 106 567 q 94 624 106 600 q 47 649 82 649 l 25 649 l 25 685 l 315 699 l 315 111 q 364 40 315 51 l 376 38 l 376 0 l 40 0 m 379 867 q 357 799 379 825 q 301 772 335 772 q 244 799 267 772 q 221 869 221 826 q 244 933 221 904 q 301 961 267 961 q 358 933 336 961 q 379 867 379 906 m 151 867 q 129 799 151 825 q 74 772 107 772 q 16 799 39 772 q -7 869 -7 826 q 15 933 -7 904 q 74 961 38 961 q 130 934 108 961 q 151 867 151 907 z "},"":{"ha":740,"x_min":28,"x_max":713,"o":"m 110 740 l 271 811 q 78 875 179 863 l 96 942 q 410 872 275 938 l 569 942 l 597 876 l 486 828 q 653 631 594 751 q 713 351 713 511 q 688 203 713 269 q 618 88 664 136 q 506 13 572 39 q 354 -14 439 -14 q 217 10 278 -14 q 115 80 157 35 q 50 187 72 125 q 28 324 28 249 q 50 449 28 389 q 116 556 72 510 q 224 629 160 601 q 372 657 289 657 q 399 656 386 657 q 422 653 411 656 q 385 712 407 685 q 338 763 364 739 l 138 675 l 110 740 m 485 258 q 478 406 485 346 q 456 505 471 467 q 418 560 442 543 q 361 576 394 576 q 321 567 340 576 q 287 536 301 558 q 264 476 272 514 q 256 382 256 439 q 288 153 256 231 q 390 75 321 75 q 460 122 435 75 q 485 258 485 169 z "},"":{"ha":775,"x_min":32,"x_max":750,"o":"m 411 0 l 411 38 l 422 40 q 460 63 446 47 q 475 111 475 79 l 475 447 q 464 533 475 504 q 419 561 453 561 q 384 549 403 561 q 350 511 365 538 q 325 442 335 485 q 315 340 315 400 l 315 111 q 331 63 315 79 q 369 40 346 46 l 382 38 l 382 0 l 42 0 l 42 38 l 53 40 q 91 63 76 47 q 106 111 106 79 l 106 500 q 101 563 106 539 q 86 600 96 586 q 63 621 76 614 q 32 633 49 628 l 32 671 l 288 685 q 308 613 303 644 q 315 560 313 582 q 427 667 368 635 q 542 699 486 699 q 647 650 608 699 q 685 483 685 601 l 685 111 q 699 63 685 79 q 738 40 714 46 l 750 38 l 750 0 l 411 0 m 588 921 q 571 871 581 894 q 546 829 561 847 q 509 800 531 811 q 458 789 488 789 q 423 792 439 789 q 388 806 407 796 l 342 828 q 322 836 338 831 q 288 842 307 842 q 247 827 263 842 q 225 801 232 813 l 193 818 q 219 883 203 857 q 255 923 236 908 q 292 944 274 938 q 325 950 311 950 q 369 946 350 950 q 403 935 388 942 l 449 915 q 475 903 463 908 q 499 899 488 899 q 534 910 521 899 q 554 936 547 921 l 588 921 z "},"":{"ha":740,"x_min":28,"x_max":713,"o":"m 713 338 q 687 197 713 261 q 614 85 661 132 q 501 13 567 39 q 354 -14 435 -14 q 220 12 281 -14 q 117 84 160 38 q 51 195 74 131 q 28 338 28 260 q 53 478 28 413 q 125 592 78 543 q 238 670 172 642 q 386 699 304 699 q 522 673 461 699 q 624 599 582 647 q 690 485 667 551 q 713 338 713 418 m 483 274 q 456 534 483 450 q 363 618 429 618 q 288 565 319 618 q 256 399 256 513 q 289 161 256 247 q 390 75 322 75 q 461 128 439 75 q 483 274 483 182 m 476 767 l 349 794 q 239 830 282 810 q 196 886 196 850 q 217 948 196 928 q 271 968 238 968 q 335 947 303 968 q 410 885 368 925 l 494 804 l 476 767 z "},"":{"ha":740,"x_min":28,"x_max":713,"o":"m 713 338 q 687 197 713 261 q 614 85 661 132 q 501 13 567 39 q 354 -14 435 -14 q 220 12 281 -14 q 117 84 160 38 q 51 195 74 131 q 28 338 28 260 q 53 478 28 413 q 125 592 78 543 q 238 670 172 642 q 386 699 304 699 q 522 673 461 699 q 624 599 582 647 q 690 485 667 551 q 713 338 713 418 m 483 274 q 456 534 483 450 q 363 618 429 618 q 288 565 319 618 q 256 399 256 513 q 289 161 256 247 q 390 75 322 75 q 461 128 439 75 q 483 274 483 182 m 529 886 q 485 829 529 850 q 376 794 440 808 l 250 767 l 231 804 l 315 885 q 389 947 357 925 q 453 968 421 968 q 508 948 486 968 q 529 886 529 928 z "},"":{"ha":740,"x_min":28,"x_max":713,"o":"m 713 338 q 687 197 713 261 q 614 85 661 132 q 501 13 567 39 q 354 -14 435 -14 q 220 12 281 -14 q 117 84 160 38 q 51 195 74 131 q 28 338 28 260 q 53 478 28 413 q 125 592 78 543 q 238 670 172 642 q 386 699 304 699 q 522 673 461 699 q 624 599 582 647 q 690 485 667 551 q 713 338 713 418 m 483 274 q 456 534 483 450 q 363 618 429 618 q 288 565 319 618 q 256 399 256 513 q 289 161 256 247 q 390 75 322 75 q 461 128 439 75 q 483 274 483 182 m 526 765 l 364 836 l 197 765 l 168 818 l 364 981 l 560 818 l 526 765 z "},"":{"ha":740,"x_min":28,"x_max":713,"o":"m 713 338 q 687 197 713 261 q 614 85 661 132 q 501 13 567 39 q 354 -14 435 -14 q 220 12 281 -14 q 117 84 160 38 q 51 195 74 131 q 28 338 28 260 q 53 478 28 413 q 125 592 78 543 q 238 670 172 642 q 386 699 304 699 q 522 673 461 699 q 624 599 582 647 q 690 485 667 551 q 713 338 713 418 m 483 274 q 456 534 483 450 q 363 618 429 618 q 288 565 319 618 q 256 399 256 513 q 289 161 256 247 q 390 75 322 75 q 461 128 439 75 q 483 274 483 182 m 568 921 q 551 871 561 894 q 526 829 542 847 q 490 800 511 811 q 439 789 468 789 q 403 792 419 789 q 368 806 388 796 l 322 828 q 303 836 318 831 q 268 842 288 842 q 228 827 243 842 q 206 801 213 813 l 174 818 q 200 883 183 857 q 235 923 217 908 q 273 944 254 938 q 306 950 292 950 q 349 946 331 950 q 383 935 368 942 l 429 915 q 456 903 443 908 q 479 899 468 899 q 515 910 501 899 q 535 936 528 921 l 568 921 z "},"":{"ha":740,"x_min":28,"x_max":713,"o":"m 713 338 q 687 197 713 261 q 614 85 661 132 q 501 13 567 39 q 354 -14 435 -14 q 220 12 281 -14 q 117 84 160 38 q 51 195 74 131 q 28 338 28 260 q 53 478 28 413 q 125 592 78 543 q 238 670 172 642 q 386 699 304 699 q 522 673 461 699 q 624 599 582 647 q 690 485 667 551 q 713 338 713 418 m 483 274 q 456 534 483 450 q 363 618 429 618 q 288 565 319 618 q 256 399 256 513 q 289 161 256 247 q 390 75 322 75 q 461 128 439 75 q 483 274 483 182 m 564 867 q 542 799 564 825 q 486 772 519 772 q 428 799 451 772 q 406 869 406 826 q 428 933 406 904 q 486 961 451 961 q 542 933 521 961 q 564 867 564 906 m 336 867 q 314 799 336 825 q 258 772 292 772 q 201 799 224 772 q 178 869 178 826 q 200 933 178 904 q 258 961 222 961 q 315 934 293 961 q 336 867 336 907 z "},"":{"ha":776,"x_min":60,"x_max":717,"o":"m 60 533 l 78 533 q 91 521 82 526 q 121 515 100 515 l 656 515 q 684 521 675 515 q 699 533 693 526 l 717 533 l 717 378 l 699 378 q 677 397 688 393 q 656 401 667 401 l 119 401 q 93 395 101 401 q 78 378 85 389 l 60 378 l 60 533 m 479 703 q 453 629 479 658 q 388 600 428 600 q 323 628 349 600 q 297 703 297 657 q 324 774 297 747 q 388 801 350 801 q 452 774 425 801 q 479 703 479 747 m 479 231 q 453 158 479 186 q 388 129 428 129 q 323 158 349 129 q 297 231 297 186 q 324 303 297 275 q 388 331 350 331 q 452 303 425 331 q 479 231 479 275 z "},"":{"ha":740,"x_min":29,"x_max":713,"o":"m 713 338 q 687 197 713 261 q 614 85 661 132 q 501 13 567 39 q 354 -14 435 -14 q 296 -10 325 -14 l 275 -75 q 271 -87 274 -78 q 268 -103 268 -96 q 274 -124 268 -118 q 300 -132 281 -129 l 300 -153 l 135 -153 l 135 -132 q 169 -118 154 -129 q 196 -76 185 -107 l 225 10 q 81 133 133 47 q 29 338 29 219 q 54 478 29 413 q 126 592 79 543 q 240 670 174 642 q 388 699 306 699 q 446 694 418 699 l 461 742 q 465 752 464 749 q 465 763 465 756 q 438 790 465 786 l 438 813 l 599 813 l 599 792 q 558 775 571 789 q 535 729 546 761 l 517 675 q 661 551 610 639 q 713 338 713 463 m 511 274 q 501 435 511 365 q 472 547 492 504 l 329 92 q 397 75 356 75 q 482 130 453 75 q 511 274 511 185 m 415 607 q 361 618 393 618 q 313 605 336 618 q 271 565 289 592 q 242 497 253 538 q 231 399 231 456 q 242 258 231 322 q 274 153 253 194 l 415 607 z "},"":{"ha":754,"x_min":24,"x_max":729,"o":"m 481 0 q 464 68 468 35 q 460 133 460 101 q 359 30 415 74 q 233 -14 303 -14 q 178 -6 204 -14 q 132 24 151 3 q 101 79 113 44 q 89 168 89 114 l 89 565 q 88 592 89 578 q 80 619 86 607 q 63 640 74 632 q 31 647 51 647 l 24 647 l 24 685 l 299 700 l 299 214 q 308 155 299 179 q 353 131 317 131 q 390 145 371 131 q 424 192 408 160 q 450 275 440 224 q 460 400 460 326 l 460 565 q 458 592 460 578 q 451 619 457 607 q 433 640 444 632 q 401 647 422 647 l 389 647 l 389 685 l 669 700 l 669 169 q 679 85 669 118 q 718 42 689 53 l 729 38 l 729 0 l 481 0 m 463 767 l 335 794 q 225 830 268 810 q 182 886 182 850 q 203 948 182 928 q 257 968 224 968 q 322 947 289 968 q 396 885 354 925 l 481 804 l 463 767 z "},"":{"ha":754,"x_min":24,"x_max":729,"o":"m 481 0 q 464 68 468 35 q 460 133 460 101 q 359 30 415 74 q 233 -14 303 -14 q 178 -6 204 -14 q 132 24 151 3 q 101 79 113 44 q 89 168 89 114 l 89 565 q 88 592 89 578 q 80 619 86 607 q 63 640 74 632 q 31 647 51 647 l 24 647 l 24 685 l 299 700 l 299 214 q 308 155 299 179 q 353 131 317 131 q 390 145 371 131 q 424 192 408 160 q 450 275 440 224 q 460 400 460 326 l 460 565 q 458 592 460 578 q 451 619 457 607 q 433 640 444 632 q 401 647 422 647 l 389 647 l 389 685 l 669 700 l 669 169 q 679 85 669 118 q 718 42 689 53 l 729 38 l 729 0 l 481 0 m 543 886 q 499 829 543 850 q 390 794 454 808 l 264 767 l 244 804 l 329 885 q 403 947 371 925 q 467 968 435 968 q 522 948 500 968 q 543 886 543 928 z "},"":{"ha":754,"x_min":24,"x_max":729,"o":"m 481 0 q 464 68 468 35 q 460 133 460 101 q 359 30 415 74 q 233 -14 303 -14 q 178 -6 204 -14 q 132 24 151 3 q 101 79 113 44 q 89 168 89 114 l 89 565 q 88 592 89 578 q 80 619 86 607 q 63 640 74 632 q 31 647 51 647 l 24 647 l 24 685 l 299 700 l 299 214 q 308 155 299 179 q 353 131 317 131 q 390 145 371 131 q 424 192 408 160 q 450 275 440 224 q 460 400 460 326 l 460 565 q 458 592 460 578 q 451 619 457 607 q 433 640 444 632 q 401 647 422 647 l 389 647 l 389 685 l 669 700 l 669 169 q 679 85 669 118 q 718 42 689 53 l 729 38 l 729 0 l 481 0 m 526 765 l 364 836 l 197 765 l 168 818 l 364 981 l 560 818 l 526 765 z "},"":{"ha":754,"x_min":24,"x_max":729,"o":"m 481 0 q 464 68 468 35 q 460 133 460 101 q 359 30 415 74 q 233 -14 303 -14 q 178 -6 204 -14 q 132 24 151 3 q 101 79 113 44 q 89 168 89 114 l 89 565 q 88 592 89 578 q 80 619 86 607 q 63 640 74 632 q 31 647 51 647 l 24 647 l 24 685 l 299 700 l 299 214 q 308 155 299 179 q 353 131 317 131 q 390 145 371 131 q 424 192 408 160 q 450 275 440 224 q 460 400 460 326 l 460 565 q 458 592 460 578 q 451 619 457 607 q 433 640 444 632 q 401 647 422 647 l 389 647 l 389 685 l 669 700 l 669 169 q 679 85 669 118 q 718 42 689 53 l 729 38 l 729 0 l 481 0 m 569 867 q 547 799 569 825 q 492 772 525 772 q 434 799 457 772 q 411 869 411 826 q 434 933 411 904 q 492 961 457 961 q 548 933 526 961 q 569 867 569 906 m 342 867 q 319 799 342 825 q 264 772 297 772 q 206 799 229 772 q 183 869 183 826 q 206 933 183 904 q 264 961 228 961 q 320 934 299 961 q 342 867 342 907 z "},"":{"ha":639,"x_min":-22,"x_max":661,"o":"m 651 646 q 592 597 614 640 q 547 482 571 553 l 368 -69 q 334 -171 351 -124 q 292 -253 317 -218 q 233 -309 268 -289 q 147 -329 199 -329 q 74 -318 106 -329 q 15 -283 43 -307 l 71 -103 l 85 -106 l 85 -119 q 109 -190 85 -168 q 156 -211 133 -211 q 192 -199 175 -211 q 223 -167 210 -187 q 244 -121 236 -147 q 251 -65 251 -94 q 218 97 251 3 l 64 539 q 45 592 53 571 q 30 624 38 613 q 14 640 22 635 q -6 646 6 644 l -22 647 l -22 685 l 335 685 l 335 647 l 319 644 q 290 631 301 642 q 279 603 279 619 q 284 568 279 589 q 294 525 289 547 l 368 211 l 468 539 q 474 569 471 550 q 478 600 478 588 q 465 633 478 624 q 432 646 451 642 l 425 647 l 425 685 l 661 685 l 661 647 l 651 646 m 507 886 q 463 829 507 850 q 354 794 418 808 l 228 767 l 208 804 l 293 885 q 367 947 335 925 q 431 968 399 968 q 485 948 464 968 q 507 886 507 928 z "},"":{"ha":758,"x_min":15,"x_max":724,"o":"m 724 310 q 699 168 724 231 q 625 63 674 106 q 502 0 571 14 q 364 -14 433 -14 q 332 -12 349 -14 q 301 -8 315 -11 l 301 -189 q 315 -236 301 -219 q 353 -261 329 -253 l 365 -265 l 365 -300 l 28 -300 l 28 -265 l 40 -261 q 78 -236 65 -253 q 92 -189 92 -219 l 92 793 q 80 850 92 825 q 32 875 68 875 l 15 875 l 15 911 l 301 931 l 301 685 l 340 685 q 403 683 371 685 q 469 676 436 682 q 532 658 501 671 q 590 624 563 646 q 686 498 649 578 q 724 310 724 418 m 496 324 q 481 443 496 392 q 441 529 465 494 q 388 581 417 564 q 329 599 358 599 q 301 594 315 599 l 301 146 q 315 90 301 104 q 358 76 329 76 q 458 139 421 76 q 496 324 496 201 z "},"":{"ha":639,"x_min":-22,"x_max":661,"o":"m 651 646 q 592 597 614 640 q 547 482 571 553 l 368 -69 q 334 -171 351 -124 q 292 -253 317 -218 q 233 -309 268 -289 q 147 -329 199 -329 q 74 -318 106 -329 q 15 -283 43 -307 l 71 -103 l 85 -106 l 85 -119 q 109 -190 85 -168 q 156 -211 133 -211 q 192 -199 175 -211 q 223 -167 210 -187 q 244 -121 236 -147 q 251 -65 251 -94 q 218 97 251 3 l 64 539 q 45 592 53 571 q 30 624 38 613 q 14 640 22 635 q -6 646 6 644 l -22 647 l -22 685 l 335 685 l 335 647 l 319 644 q 290 631 301 642 q 279 603 279 619 q 284 568 279 589 q 294 525 289 547 l 368 211 l 468 539 q 474 569 471 550 q 478 600 478 588 q 465 633 478 624 q 432 646 451 642 l 425 647 l 425 685 l 661 685 l 661 647 l 651 646 m 519 867 q 497 799 519 825 q 442 772 475 772 q 384 799 407 772 q 361 869 361 826 q 384 933 361 904 q 442 961 407 961 q 498 933 476 961 q 519 867 519 906 m 292 867 q 269 799 292 825 q 214 772 247 772 q 156 799 179 772 q 133 869 133 826 q 156 933 133 904 q 214 961 178 961 q 270 934 249 961 q 292 867 292 907 z "},"":{"ha":413,"x_min":25,"x_max":376,"o":"m 40 0 l 40 38 l 53 40 q 91 63 76 46 q 106 111 106 79 l 106 567 q 94 624 106 600 q 47 649 82 649 l 25 649 l 25 685 l 315 699 l 315 111 q 364 40 315 51 l 376 38 l 376 0 l 40 0 z "},"":{"ha":1238,"x_min":31,"x_max":1228,"o":"m 1139 -22 q 1120 -5 1129 -10 q 1090 0 1111 0 l 669 0 l 669 78 q 622 34 646 51 q 572 6 597 17 q 515 -9 546 -4 q 449 -14 485 -14 q 278 19 354 -14 q 146 112 201 51 q 60 260 90 172 q 31 456 31 347 q 64 649 31 563 q 156 798 97 736 q 295 893 215 860 q 467 926 375 926 q 586 901 533 926 q 668 843 639 875 l 668 913 l 1082 913 q 1113 916 1104 913 q 1132 932 1122 919 l 1171 629 l 1156 624 q 1063 781 1128 729 q 915 832 999 832 q 872 825 888 832 q 848 807 856 818 q 839 781 840 796 q 838 751 838 767 l 838 647 l 893 647 q 974 673 953 647 q 1001 751 994 699 l 1017 753 l 1047 436 l 1031 433 q 979 538 1013 501 q 876 575 946 575 l 838 575 l 838 149 q 861 99 838 117 q 929 81 885 81 q 1090 142 1021 81 q 1213 324 1158 203 l 1228 319 l 1139 -22 m 632 417 q 617 594 632 517 q 578 724 603 671 q 518 806 553 778 q 444 833 483 833 q 319 755 357 833 q 282 526 282 676 q 333 196 282 313 q 483 79 385 79 q 591 163 550 79 q 632 417 632 246 z "},"":{"ha":1135,"x_min":28,"x_max":1118,"o":"m 1054 -12 q 1040 -2 1050 -10 q 1014 6 1029 6 q 944 -3 986 6 q 846 -12 903 -12 q 753 -5 792 -12 q 686 15 714 3 q 638 40 658 26 q 604 65 618 54 q 556 34 581 49 q 504 9 532 19 q 442 -8 476 -1 q 364 -14 408 -14 q 224 13 286 -14 q 119 85 163 39 q 51 197 75 132 q 28 338 28 261 q 53 480 28 414 q 124 595 78 546 q 233 672 169 644 q 375 700 297 700 q 500 681 446 700 q 603 622 554 663 q 833 699 719 699 q 936 680 888 699 q 1023 626 985 661 q 1086 540 1061 590 q 1118 425 1111 489 l 715 314 q 785 138 735 194 q 899 81 835 81 q 1015 129 965 81 q 1101 269 1065 178 l 1118 267 l 1054 -12 m 899 457 q 873 571 896 532 q 814 610 850 610 q 739 561 767 610 q 711 421 711 513 l 711 401 l 899 457 m 483 292 q 452 534 483 457 q 368 611 421 611 q 283 555 310 611 q 256 385 256 499 q 288 152 256 229 q 374 75 321 75 q 455 134 426 75 q 483 292 483 193 z "},"":{"ha":776,"x_min":42,"x_max":750,"o":"m 750 304 q 722 184 750 242 q 644 83 694 126 q 522 13 593 39 q 363 -14 450 -14 q 282 -8 319 -14 q 214 4 244 -3 q 161 17 183 11 q 125 22 139 22 q 92 13 104 22 q 69 -6 79 4 l 42 365 l 60 368 q 108 237 78 292 q 176 146 139 182 q 258 92 214 110 q 349 75 303 75 q 480 117 431 75 q 529 224 529 160 q 518 278 529 256 q 487 317 507 300 q 438 346 467 333 q 375 372 410 358 l 239 425 q 114 507 163 454 q 65 654 65 560 q 90 762 65 713 q 158 848 114 811 q 264 906 201 885 q 401 926 326 926 q 515 913 464 926 q 603 900 567 900 q 636 908 625 900 q 656 924 647 915 l 667 608 l 649 607 q 613 707 636 664 q 558 779 589 750 q 490 823 526 808 q 419 838 454 838 q 319 807 353 838 q 285 735 285 776 q 294 698 285 714 q 319 670 304 682 q 353 650 335 658 q 392 633 372 642 l 533 578 q 616 539 576 561 q 685 485 656 517 q 733 410 715 454 q 750 304 750 367 m 235 1204 l 397 1133 l 564 1204 l 593 1151 l 397 989 l 201 1151 l 235 1204 z "},"":{"ha":638,"x_min":44,"x_max":606,"o":"m 606 251 q 584 157 606 204 q 522 72 563 110 q 422 11 481 35 q 290 -12 364 -12 q 232 -8 260 -12 q 181 1 204 -4 q 141 11 158 7 q 115 15 124 15 q 81 8 93 15 q 57 -10 68 0 l 44 278 l 64 279 q 135 129 76 182 q 278 76 194 76 q 369 106 335 76 q 404 178 404 136 q 378 235 404 215 q 315 269 353 256 q 231 294 276 282 q 148 328 186 306 q 84 388 110 350 q 58 492 58 426 q 76 571 58 533 q 128 637 93 608 q 215 682 163 665 q 336 699 267 699 q 388 696 365 699 q 429 689 411 693 q 462 682 447 685 q 490 679 476 679 q 513 685 503 679 q 531 699 522 692 l 549 481 l 531 476 q 499 543 518 515 q 456 589 479 571 q 409 615 433 607 q 363 624 385 624 q 288 605 310 624 q 265 563 265 586 q 290 512 265 529 q 353 481 315 494 q 435 455 392 468 q 517 418 479 442 q 581 356 556 394 q 606 251 606 317 m 153 981 l 315 910 l 482 981 l 511 928 l 315 765 l 119 928 l 153 981 z "},"":{"ha":776,"x_min":-3,"x_max":781,"o":"m 769 872 q 724 845 742 865 q 679 772 707 825 l 506 435 l 506 111 q 558 40 506 51 l 571 38 l 571 0 l 204 0 l 204 38 l 217 40 q 269 111 269 53 l 269 410 l 78 797 q 4 872 49 854 l -3 875 l -3 913 l 396 913 l 396 875 l 386 872 q 336 829 336 864 q 340 803 336 817 q 350 779 344 790 l 458 543 l 563 758 q 581 798 572 778 q 589 833 589 818 q 576 861 589 851 q 550 874 564 871 l 543 875 l 543 913 l 781 913 l 781 875 l 769 872 m 592 1090 q 569 1022 592 1049 q 514 996 547 996 q 456 1023 479 996 q 433 1093 433 1050 q 456 1156 433 1128 q 514 1185 479 1185 q 570 1157 549 1185 q 592 1090 592 1129 m 364 1090 q 342 1022 364 1049 q 286 996 319 996 q 228 1023 251 996 q 206 1093 206 1050 q 228 1156 206 1128 q 286 1185 250 1185 q 342 1158 321 1185 q 364 1090 364 1131 z "},"":{"ha":685,"x_min":3,"x_max":676,"o":"m 582 -28 q 563 -8 574 -15 q 528 0 551 0 l 3 0 l 374 836 l 356 836 q 279 831 321 836 q 186 794 238 825 q 138 759 157 778 q 106 722 118 740 q 85 683 93 703 q 71 643 78 664 l 54 646 l 106 940 q 135 919 117 925 q 174 913 153 913 l 668 913 l 299 79 l 339 79 q 516 133 432 79 q 660 308 600 188 l 676 306 l 582 -28 m 199 1204 l 361 1133 l 528 1204 l 557 1151 l 361 989 l 165 1151 l 199 1204 z "},"":{"ha":617,"x_min":17,"x_max":617,"o":"m 551 -28 q 519 -3 538 -7 q 485 0 501 0 l 17 0 l 324 601 q 303 603 313 603 q 285 603 294 603 q 210 593 242 603 q 154 563 178 583 q 112 513 131 543 q 78 444 93 483 l 63 446 l 110 706 q 136 689 124 693 q 175 685 149 685 l 601 685 l 300 92 q 326 90 311 90 q 350 89 340 89 q 434 97 396 89 q 503 126 472 106 q 558 179 533 146 q 600 261 582 213 l 617 260 l 551 -28 m 175 981 l 338 910 l 504 981 l 533 928 l 338 765 l 142 928 l 175 981 z "},"":{"ha":776,"x_min":-131,"x_max":851,"o":"m 808 790 l 793 793 l 793 821 q 785 856 793 838 q 764 891 778 875 q 730 918 750 907 q 685 929 710 929 q 623 911 649 929 q 580 860 597 893 q 550 779 563 826 q 528 674 538 732 l 646 674 q 685 677 668 674 q 722 696 703 681 l 696 578 q 684 601 693 596 q 647 607 675 607 l 515 607 l 482 414 q 411 87 449 217 q 342 -106 374 -43 q 93 -256 261 -256 q 49 -250 76 -256 q -8 -233 22 -244 q -71 -201 -39 -221 q -131 -153 -103 -182 l -50 -3 l -35 -11 q -39 -34 -37 -21 q -40 -58 -40 -47 q -33 -96 -40 -75 q -13 -134 -26 -117 q 18 -163 0 -151 q 58 -175 36 -175 q 151 -125 118 -175 q 207 23 183 -75 q 253 267 231 121 q 318 607 276 414 l 172 607 l 188 674 l 332 674 l 346 744 q 446 949 372 879 q 633 1018 519 1018 q 851 933 743 1018 l 808 790 z "},"":{"ha":568,"x_min":89,"x_max":481,"o":"m 447 765 l 285 836 l 118 765 l 89 818 l 285 981 l 481 818 l 447 765 z "},"":{"ha":568,"x_min":89,"x_max":481,"o":"m 122 981 l 285 910 l 451 981 l 481 928 l 285 765 l 89 928 l 122 981 z "},"":{"ha":446,"x_min":76,"x_max":369,"o":"m 369 904 q 358 847 369 874 q 326 801 346 821 q 281 769 307 781 q 224 758 254 758 q 167 769 193 758 q 120 801 140 781 q 88 847 100 821 q 76 904 76 874 q 88 962 76 935 q 120 1008 100 989 q 167 1040 140 1028 q 224 1051 193 1051 q 328 1009 286 1051 q 369 904 369 967 m 293 904 q 272 955 293 935 q 221 975 250 975 q 172 953 192 975 q 153 904 153 932 q 172 856 153 876 q 221 835 192 835 q 272 854 250 835 q 293 904 293 874 z "},"":{"ha":583,"x_min":94,"x_max":489,"o":"m 489 921 q 472 871 482 894 q 447 829 463 847 q 410 800 432 811 q 360 789 389 789 q 324 792 340 789 q 289 806 308 796 l 243 828 q 224 836 239 831 q 189 842 208 842 q 149 827 164 842 q 126 801 133 813 l 94 818 q 121 883 104 857 q 156 923 138 908 q 194 944 175 938 q 226 950 213 950 q 270 946 251 950 q 304 935 289 942 l 350 915 q 376 903 364 908 q 400 899 389 899 q 435 910 422 899 q 456 936 449 921 l 489 921 z "},"":{"ha":776,"x_min":50,"x_max":726,"o":"m 675 282 l 143 282 q 97 278 119 282 q 58 251 75 275 l 50 251 l 100 431 l 654 431 q 693 435 682 431 q 717 458 704 440 l 726 458 l 675 282 z "},"":{"ha":1061,"x_min":0,"x_max":1061,"o":"m 1010 282 l 93 282 q 47 278 69 282 q 8 251 25 275 l 0 251 l 50 431 l 989 431 q 1028 435 1017 431 q 1051 458 1039 440 l 1061 458 l 1010 282 z "},"":{"ha":333,"x_min":35,"x_max":285,"o":"m 199 664 q 194 650 196 660 q 192 632 192 640 q 198 616 192 622 q 207 607 204 610 l 35 607 l 160 913 l 285 913 l 199 664 z "},"":{"ha":333,"x_min":21,"x_max":271,"o":"m 146 607 l 21 607 l 106 856 q 110 869 107 860 q 114 888 114 879 q 108 903 114 897 q 99 913 101 910 l 271 913 l 146 607 z "},"":{"ha":333,"x_min":28,"x_max":278,"o":"m 153 -150 l 28 -150 l 114 99 q 119 113 117 103 q 121 131 121 122 q 115 147 121 140 q 106 156 108 153 l 278 156 l 153 -150 z "},"":{"ha":557,"x_min":35,"x_max":508,"o":"m 424 664 q 419 650 422 660 q 415 632 415 640 q 422 616 415 622 q 431 607 428 610 l 258 607 l 383 913 l 508 913 l 424 664 m 200 664 q 195 650 199 660 q 192 632 192 640 q 198 616 192 622 q 207 607 204 610 l 35 607 l 160 913 l 285 913 l 200 664 z "},"":{"ha":557,"x_min":21,"x_max":494,"o":"m 369 607 l 244 607 l 331 856 q 335 869 333 860 q 338 888 338 879 q 331 903 338 897 q 322 913 325 910 l 494 913 l 369 607 m 146 607 l 21 607 l 107 856 q 112 869 110 860 q 114 888 114 879 q 108 903 114 897 q 99 913 101 910 l 271 913 l 146 607 z "},"":{"ha":557,"x_min":28,"x_max":501,"o":"m 376 -150 l 251 -150 l 338 99 q 342 113 340 103 q 344 131 344 122 q 338 147 344 140 q 329 156 332 153 l 501 156 l 376 -150 m 153 -150 l 28 -150 l 114 99 q 119 113 117 103 q 121 131 121 122 q 115 147 121 140 q 106 156 108 153 l 278 156 l 153 -150 z "},"":{"ha":714,"x_min":44,"x_max":669,"o":"m 669 518 q 649 456 669 482 q 588 429 628 429 q 560 431 569 429 q 540 435 551 432 l 394 475 q 424 383 404 431 q 467 296 443 335 q 406 31 422 165 q 388 -244 390 -103 l 328 -244 q 309 31 325 -103 q 249 296 293 165 q 292 384 272 336 q 318 475 311 432 q 288 466 311 474 q 235 450 264 458 q 177 435 206 442 q 131 429 149 429 q 67 453 90 429 q 44 517 44 478 q 68 581 44 557 q 132 606 92 606 q 172 599 151 606 l 318 556 l 272 789 q 267 843 267 813 q 293 905 267 882 q 356 928 319 928 q 418 906 392 928 q 444 843 444 883 q 440 793 444 815 l 393 556 l 507 590 q 547 601 526 597 q 588 606 567 606 q 648 579 626 606 q 669 518 669 553 z "},"":{"ha":714,"x_min":43,"x_max":671,"o":"m 671 167 q 647 103 671 128 q 583 78 624 78 q 562 81 572 78 q 540 86 551 83 l 396 128 l 442 -106 q 447 -132 444 -118 q 449 -158 449 -146 q 422 -221 449 -197 q 360 -244 396 -244 q 297 -222 324 -244 q 271 -158 271 -199 q 272 -133 271 -146 q 276 -110 274 -121 l 322 128 q 288 118 311 125 q 239 104 264 111 q 176 86 210 96 q 128 78 149 78 q 68 104 90 78 q 46 167 46 131 q 67 228 46 203 q 128 254 88 254 q 174 247 149 254 l 322 207 q 294 274 315 238 q 254 342 274 310 q 272 369 263 353 q 290 403 281 385 q 307 440 300 421 q 318 475 314 458 q 290 467 313 474 q 242 454 267 461 q 176 436 213 446 q 151 431 163 432 q 129 429 139 429 q 66 453 89 429 q 43 517 43 478 q 67 581 43 556 q 131 606 90 606 q 152 603 142 606 q 174 597 163 600 l 318 556 l 272 789 q 267 815 269 801 q 265 842 265 829 q 292 904 265 881 q 354 928 318 928 q 417 905 390 928 q 443 842 443 882 q 442 817 443 829 q 438 793 440 804 l 392 556 l 536 597 q 586 606 565 606 q 646 579 624 606 q 668 517 668 553 q 647 455 668 481 q 586 429 626 429 q 540 436 565 429 l 392 476 q 418 410 399 446 q 458 342 438 374 q 420 274 439 311 q 396 207 401 238 q 424 215 401 208 q 474 229 447 222 q 540 249 504 238 q 565 253 553 253 q 585 254 576 254 q 648 230 625 254 q 671 167 671 206 z "},"":{"ha":417,"x_min":65,"x_max":351,"o":"m 351 461 q 341 400 351 429 q 311 349 331 371 q 265 315 292 328 q 206 301 239 301 q 149 315 175 301 q 105 349 124 328 q 76 399 86 371 q 65 456 65 426 q 76 516 65 488 q 107 566 88 544 q 154 600 126 588 q 215 613 182 613 q 271 600 246 613 q 314 566 296 588 q 342 517 332 544 q 351 461 351 490 z "},"":{"ha":1233,"x_min":90,"x_max":1143,"o":"m 1143 117 q 1110 22 1143 58 q 1028 -14 1078 -14 q 945 22 978 -14 q 913 117 913 58 q 945 208 913 174 q 1026 242 978 242 q 1109 208 1075 242 q 1143 117 1143 174 m 731 117 q 699 22 731 58 q 617 -14 667 -14 q 534 22 567 -14 q 501 117 501 58 q 534 208 501 174 q 615 242 567 242 q 697 208 664 242 q 731 117 731 174 m 319 117 q 288 22 319 58 q 206 -14 256 -14 q 123 22 156 -14 q 90 117 90 58 q 123 208 90 174 q 204 242 156 242 q 286 208 253 242 q 319 117 319 174 z "},"":{"ha":1651,"x_min":38,"x_max":1615,"o":"m 1615 278 q 1599 163 1615 215 q 1555 72 1583 110 q 1486 13 1526 35 q 1396 -8 1446 -8 q 1313 10 1351 -8 q 1247 63 1275 28 q 1203 153 1219 99 q 1188 281 1188 207 q 1203 390 1188 340 q 1247 477 1218 440 q 1315 535 1275 514 q 1406 556 1356 556 q 1483 538 1446 556 q 1550 486 1521 521 q 1597 399 1579 451 q 1615 278 1615 347 m 1124 278 q 1108 163 1124 215 q 1063 72 1092 110 q 994 13 1035 35 q 904 -8 954 -8 q 822 10 860 -8 q 756 63 783 28 q 712 153 728 99 q 696 281 696 207 q 711 390 696 340 q 755 477 726 440 q 824 535 783 514 q 914 556 864 556 q 992 538 954 556 q 1058 486 1029 521 q 1106 399 1088 451 q 1124 278 1124 347 m 819 892 q 783 865 793 881 q 761 817 772 850 l 518 99 q 509 71 514 86 q 504 54 504 56 q 510 34 504 40 q 532 24 515 28 l 532 0 l 340 0 l 340 24 q 379 50 369 35 q 400 99 389 65 l 654 825 q 660 843 657 832 q 664 865 664 854 q 657 879 664 869 q 635 892 650 889 l 635 913 l 819 913 l 819 892 m 465 643 q 449 527 465 579 q 405 438 433 475 q 336 379 376 400 q 246 358 296 358 q 163 376 201 358 q 97 428 125 393 q 53 517 69 464 q 38 644 38 571 q 53 755 38 704 q 97 842 68 806 q 165 899 125 878 q 256 919 206 919 q 333 902 294 919 q 400 851 371 885 q 447 765 429 817 q 465 643 465 713 m 1476 279 q 1456 443 1476 388 q 1404 499 1436 499 q 1345 442 1365 499 q 1325 281 1325 386 q 1340 109 1325 168 q 1396 50 1356 50 q 1456 108 1435 50 q 1476 279 1476 167 m 985 279 q 965 443 985 388 q 913 499 944 499 q 853 442 874 499 q 833 281 833 386 q 849 109 833 168 q 904 50 864 50 q 964 108 943 50 q 985 279 985 167 m 326 644 q 306 808 326 753 q 254 863 286 863 q 195 806 215 863 q 175 646 175 750 q 191 474 175 533 q 247 415 207 415 q 306 474 286 415 q 326 644 326 532 z "},"":{"ha":324,"x_min":56,"x_max":265,"o":"m 265 118 l 200 92 l 56 354 l 200 617 l 265 590 l 203 354 l 265 118 z "},"":{"ha":324,"x_min":58,"x_max":268,"o":"m 58 590 l 124 617 l 268 354 l 124 92 l 58 118 l 121 354 l 58 590 z "},"":{"ha":776,"x_min":0,"x_max":772,"o":"m 703 -19 q 667 -3 690 -3 q 605 -8 636 -3 q 536 -12 574 -12 q 376 14 449 -12 q 250 90 304 40 q 162 210 196 139 q 118 368 128 281 l 69 368 q 40 363 51 368 q 15 349 28 358 l 0 349 l 21 453 l 36 453 q 56 441 46 444 q 86 438 67 438 l 111 438 q 110 458 110 449 q 110 479 110 468 q 110 499 110 490 q 111 518 111 508 l 83 518 q 56 515 67 518 q 31 501 44 513 l 14 501 l 35 607 l 50 607 q 99 590 64 590 l 118 590 q 238 837 144 747 q 471 926 332 926 q 528 921 504 926 q 571 909 553 915 q 603 898 589 903 q 629 893 617 893 q 653 899 640 893 q 683 921 667 906 l 718 642 l 701 638 q 619 785 665 732 q 507 838 574 838 q 433 819 464 838 q 380 767 401 800 q 346 688 358 733 q 329 590 333 643 l 531 590 q 560 595 549 590 q 583 607 572 600 l 599 607 l 578 501 l 563 501 q 514 518 546 518 l 326 518 q 327 477 326 497 q 329 438 328 457 l 499 438 q 531 444 518 438 q 554 460 543 450 l 569 460 l 549 349 l 532 349 q 512 364 519 360 q 485 368 504 368 l 338 368 q 369 243 346 297 q 423 152 392 189 q 492 96 454 115 q 567 76 529 76 q 678 124 633 76 q 756 267 724 172 l 772 260 l 703 -19 z "},"":{"ha":1081,"x_min":63,"x_max":1003,"o":"m 788 385 l 788 413 q 820 431 815 415 q 825 482 825 447 l 825 783 l 703 482 l 585 782 l 585 482 q 590 433 585 450 q 624 413 596 415 l 624 385 l 488 385 l 488 413 q 517 432 511 418 q 522 482 522 446 l 522 814 q 516 865 522 851 q 488 885 510 878 l 488 913 l 710 913 l 710 885 q 701 881 707 885 q 696 868 696 876 q 698 856 696 865 q 703 838 700 846 l 746 731 l 792 842 q 797 853 793 844 q 800 869 800 863 q 797 879 800 876 q 788 885 793 882 l 788 913 l 1003 913 l 1003 885 q 973 863 978 879 q 968 814 968 847 l 968 482 q 973 433 968 449 q 1003 413 978 417 l 1003 385 l 788 385 m 457 739 q 415 817 439 789 q 340 851 390 846 l 340 482 q 342 456 340 468 q 348 433 343 443 q 363 418 353 424 q 390 413 372 413 l 390 385 l 149 385 l 149 413 q 189 429 179 413 q 199 482 199 446 l 199 853 q 144 837 165 850 q 111 806 124 824 q 92 771 99 789 q 82 739 86 753 l 63 743 l 96 932 q 113 916 101 919 q 142 913 125 913 l 390 913 q 427 915 418 913 q 443 931 436 917 l 476 743 l 457 739 z "}}}
